<?xml version="1.0" encoding="utf-8"?>
<!-- Generator: Adobe Illustrator 23.0.1, SVG Export Plug-In . SVG Version: 6.00 Build 0)  -->
<svg version="1.1" id="Layer_1" xmlns="http://www.w3.org/2000/svg" xmlns:xlink="http://www.w3.org/1999/xlink" x="0px" y="0px"
	 viewBox="0 0 595.3 508.7" style="enable-background:new 0 0 595.3 508.7;" xml:space="preserve">
<style type="text/css">
	.st0{fill:#F7B39C;}
	.st1{fill:#D9754F;}
	.st2{fill:#FEFEFE;}
	.st3{fill:#C7AC07;}
	.st4{fill:#AB9214;}
	.st5{fill:#020303;}
	.st6{fill:#FFE24E;}
	.st7{fill:#FFD804;}
	.st8{fill:#D2BC33;}
</style>
<g>
	<path class="st0" d="M256.4,484.8c0.3-1.3-0.8-1.5-1.6-1.6c-12.9-2.4-23.8-9-34.3-16.3c-0.3-2-1.8-3-3.1-4.3
		c-4.2-4.1-8-8.5-11.2-13.3c-16.6-25-22-53.3-23.2-82.6c-1.2-28.8,2.4-57.3,9.6-85.2c15.3-59.6,41.9-113.2,83.2-159.2
		c18.9-21,40.4-38.6,66.1-50.5c20.6-9.6,41.9-13.8,64.4-8.1c1.2,0.3,2.3,0.8,3.4-0.2c33.9,14,50.9,41.3,59.1,75.4
		c6.3,26.1,6.8,52.6,3.9,79.2c-6.7,61-28,116.6-61.8,167.5c-21.2,32.1-46.8,60.1-80,80.3c-13.2,8-27.3,14.1-42.5,17.1
		c-1,0.2-2.6-0.2-2.4,1.8C276.1,484.8,266.3,484.8,256.4,484.8z M226,331.6c0,3.9-0.2,7.8,0,11.6c1.2,17.7,4.6,34.9,13.9,50.4
		c12,20,29.5,30.3,53.2,28.5c13.2-1,25.2-5.9,36.4-12.7c24.9-14.9,43.7-36,59.1-60.2c27.6-43.5,43.7-90.7,42.5-142.8
		c-0.4-17.5-3.7-34.4-11.7-50.1c-13.8-27.1-38.8-38.2-68.1-30.2c-17.1,4.7-31.9,13.7-44.6,25.6C254.5,200.1,229.6,261.2,226,331.6z"
		/>
	<path class="st1" d="M409.7,63.5c-1.1,0.9-2.3,0.5-3.4,0.2c-22.5-5.7-43.9-1.4-64.4,8.1c-25.7,12-47.2,29.5-66.1,50.5
		c-41.3,46-68,99.7-83.2,159.2c-7.1,27.9-10.8,56.3-9.6,85.2c1.2,29.3,6.7,57.6,23.2,82.6c3.2,4.9,7.1,9.3,11.2,13.3
		c1.3,1.2,2.8,2.3,3.1,4.3c-1.9-0.1-3.3-1.3-4.8-2.2c-12.4-7.2-24.6-14.8-37.2-21.5c-23.6-12.4-38-32.1-46.5-56.7
		c-8.9-25.8-11.2-52.4-9.4-79.5c4.2-66.1,26.2-126.2,62.4-181.2c21.4-32.6,47.3-61.1,81.2-81.4c13-7.8,26.8-13.7,41.8-16.8
		c1.3-0.3,2.8-0.1,3.2-1.8c9.6,0,19.1,0,28.7,0c0.1,1.3,1.2,1.6,2.2,1.8c11,2.2,20.5,7.7,30,13.3c11.3,6.6,22.6,13.1,33.9,19.7
		C407.3,61.4,408.9,61.9,409.7,63.5z"/>
	<path class="st2" d="M226,331.6c3.6-70.4,28.5-131.4,80.7-179.9c12.8-11.9,27.6-20.9,44.6-25.6c29.2-8,54.3,3.1,68.1,30.2
		c8,15.7,11.3,32.7,11.7,50.1c1.2,52.1-14.8,99.3-42.5,142.8c-15.4,24.2-34.2,45.2-59.1,60.2c-11.2,6.7-23.2,11.6-36.4,12.7
		c-23.8,1.9-41.2-8.4-53.2-28.5c-9.3-15.5-12.7-32.7-13.9-50.4C225.8,339.3,226,335.4,226,331.6z M338,247.1c-0.3-0.1-0.7-0.2-1-0.3
		c0-1.6,0-3.2,0-4.8c0-14.6,0-29.2-0.1-43.9c0-3-0.2-6.3-3.7-7.4c-3.3-1-5.7,1-7.7,3.3c-3.8,4.4-5.2,9.6-5.2,15.3
		c0,22.4,0,44.8-0.1,67.1c0,3.2,0,6.7,3.4,8.1c3.8,1.5,6.6-0.9,8.8-3.7c2.7-3.5,5.2-7.3,7.8-10.9c8.4-11.6,16.8-23.2,25.2-34.7
		c3-4.1,4.9-8.6,4.6-13.7c-0.1-2.4-0.8-4.8-3.3-5.9c-2.6-1.1-4.7,0.2-6.5,1.8c-1.6,1.5-3,3.3-4.3,5.1
		C349.9,230.7,343.9,238.9,338,247.1z M380,142.1c-0.6-2.2-0.4-4.3-2.7-5.2c-2.2-0.9-4.3-1.1-6.3,0.6c-1.5,1.3-2.8,2.8-3.4,4.6
		c-2.3,6.5-4.6,12.9-6.7,19.4c-0.9,2.8-1,5.9,2.2,7.4c3,1.4,6.1,0.5,7.8-2.4C375.5,158.8,377.4,150.2,380,142.1z M296.7,382.1
		c-0.1-4.9-4.4-7.3-8.2-4.9c-2,1.2-3.4,3-4.1,5.2c-2.2,6.2-4.4,12.3-6.4,18.6c-1,3-1.5,6.5,2.3,8.1c3.9,1.7,6.7-0.5,8.5-3.8
		c2.6-4.7,3.8-10,5.6-15C295.3,387.5,296.5,384.7,296.7,382.1z M245.5,378.7c0.1,2.8,0.7,5.6,3.5,6.7c2.9,1.2,4.8-1.1,6.3-3.1
		c3.3-4.2,6.5-8.6,9.6-13c2.3-3.3,3.5-7,2.3-11c-1.5-4.7-5.1-5.7-8.3-1.9c-4.2,5-7.9,10.5-11.7,15.8
		C245.9,374.1,245.4,376.4,245.5,378.7z M411.6,167.4c0-3-0.6-6-3.6-7.1c-2.8-1-4.7,1.2-6.3,3.3c-3.2,4.2-6.3,8.3-9.3,12.6
		c-2.3,3.3-3.7,6.9-2.5,10.9c1.5,5.1,5.1,6.1,8.5,2.1c4.1-4.9,7.8-10.2,11.4-15.4C411.1,172,411.7,169.8,411.6,167.4z M267.2,256
		c-0.1-2.8-0.5-5-3.2-6.2c-8.9-3.8-15.1-0.8-17.7,8.5c-1,3.6-1.6,7.3,2.2,9.6c4.3,2.7,11.1,2.3,13.8-0.6
		C265.5,264.2,267.2,260.3,267.2,256z M411.4,284.3c0.3-5.3-2.6-7.6-10.7-8.3c-5-0.4-10.4,5.9-10.7,12.8c-0.4,7.6,2.2,7.4,10.6,8.6
		C405.7,298.1,410.9,291.5,411.4,284.3z M296.2,199.8c0.3-2.5-2.2-5.3-3.9-8.3c-3.2-5.7-6.7-5.8-10.8-0.6c-5.6,7.2-4.4,17.3,2.5,23
		c2,1.7,4,1,5.7-0.3C293.8,210.5,295.7,206.2,296.2,199.8z M400.5,230.2c0,2.8-0.1,5.3,2.3,6.7c2.3,1.3,4.3-0.1,6.2-1.2
		c2.3-1.3,4.7-2.5,6.9-4c5.1-3.5,7.4-8.5,7-14.6c-0.3-4.4-3.3-5.9-7.2-3.9c-2.6,1.4-5.2,2.9-7.7,4.4
		C403.2,220.6,401,225.2,400.5,230.2z M335.4,158.8c0-2.5,0-5.1,0-7.6c0-2-0.4-4-2.4-4.9c-2-1-3.8,0.1-5.4,1.3
		c-3.5,2.5-5.5,6-5.8,10.2c-0.3,5.2-0.3,10.4-0.1,15.7c0.2,4.8,3.3,6.1,7.3,3.5c2-1.3,3.4-3.2,4.6-5.4
		C336,167.4,335.4,163.1,335.4,158.8z M361.1,343.8c-0.1,3.8,0.1,4.4,3.7,10.6c3.2,5.6,6.8,5.7,10.8,0.5c5-6.6,4.6-12.4-1.2-21.2
		c-2.2-3.3-4.8-3.3-7.5-1.1C363.2,335.6,361.3,339.8,361.1,343.8z M256.6,316c0.2-5.8-2.1-8.8-5.3-7.4c-4.7,2.1-9.6,4.3-13.1,8.2
		c-2.9,3.2-4.3,7.1-4.1,11.5c0.3,4.7,3.2,6.4,7.3,4.2c2.8-1.4,5.5-3,8.1-4.7C254.1,324.9,256.2,320.4,256.6,316z M335.3,380.7
		C335.3,380.7,335.3,380.7,335.3,380.7c0-3,0.3-6,0-8.9c-0.4-3.7-3.1-5.1-6.4-3.3c-4.2,2.3-6.6,6.2-7,10.8
		c-0.4,5.3-0.4,10.7-0.1,16.1c0.2,4.3,3.1,5.6,6.8,3.5c4.1-2.3,6-6.1,6.6-10.6C335.6,385.8,335.3,383.2,335.3,380.7z"/>
	<path class="st1" d="M338,247.1c6-8.2,11.9-16.4,17.9-24.6c1.3-1.8,2.7-3.6,4.3-5.1c1.8-1.6,3.9-2.9,6.5-1.8
		c2.6,1.1,3.2,3.5,3.3,5.9c0.3,5.1-1.7,9.6-4.6,13.7c-8.4,11.6-16.8,23.2-25.2,34.7c-2.6,3.6-5.1,7.4-7.8,10.9
		c-2.2,2.8-5,5.3-8.8,3.7c-3.4-1.4-3.4-4.9-3.4-8.1c0-22.4,0.1-44.8,0.1-67.1c0-5.7,1.4-10.9,5.2-15.3c2-2.3,4.4-4.3,7.7-3.3
		c3.5,1.1,3.7,4.5,3.7,7.4c0.1,14.6,0.1,29.2,0.1,43.9c0,1.6,0,3.2,0,4.8C337.3,246.8,337.6,247,338,247.1z"/>
	<path class="st0" d="M380,142.1c-2.6,8.1-4.5,16.8-9.1,24.4c-1.7,2.9-4.8,3.8-7.8,2.4c-3.2-1.5-3.1-4.6-2.2-7.4
		c2.1-6.5,4.4-13,6.7-19.4c0.7-1.8,1.9-3.4,3.4-4.6c2-1.6,4.1-1.4,6.3-0.6C379.6,137.8,379.4,139.9,380,142.1z"/>
	<path class="st0" d="M296.7,382.1c-0.2,2.6-1.3,5.4-2.3,8.2c-1.8,5-3,10.3-5.6,15c-1.8,3.3-4.6,5.4-8.5,3.8
		c-3.8-1.6-3.3-5.1-2.3-8.1c2-6.2,4.2-12.4,6.4-18.6c0.8-2.1,2.1-3.9,4.1-5.2C292.3,374.8,296.5,377.1,296.7,382.1z"/>
	<path class="st0" d="M245.5,378.7c-0.1-2.3,0.4-4.6,1.7-6.4c3.8-5.4,7.5-10.8,11.7-15.8c3.2-3.8,6.8-2.9,8.3,1.9
		c1.3,4,0.1,7.7-2.3,11c-3.1,4.4-6.3,8.7-9.6,13c-1.6,2-3.4,4.2-6.3,3.1C246.2,384.2,245.6,381.5,245.5,378.7z"/>
	<path class="st0" d="M411.6,167.4c0,2.3-0.5,4.5-1.8,6.4c-3.7,5.2-7.3,10.5-11.4,15.4c-3.4,4-7,3-8.5-2.1
		c-1.2-4.1,0.2-7.7,2.5-10.9c3-4.3,6.2-8.4,9.3-12.6c1.6-2.1,3.5-4.3,6.3-3.3C411,161.5,411.6,164.5,411.6,167.4z"/>
	<path class="st0" d="M267.2,256c-0.1,4.3-1.7,8.2-4.9,11.4c-2.7,2.8-9.5,3.3-13.8,0.6c-3.7-2.3-3.2-6-2.2-9.6
		c2.6-9.3,8.8-12.3,17.7-8.5C266.8,251,267.2,253.2,267.2,256z"/>
	<path class="st0" d="M411.4,284.3c-0.5,7.2-5.7,13.8-10.9,13.1c-8.4-1.1-11-1-10.6-8.6c0.3-6.9,5.7-13.3,10.7-12.8
		C408.8,276.7,411.7,279,411.4,284.3z"/>
	<path class="st0" d="M296.2,199.8c-0.5,6.5-2.4,10.7-6.5,13.8c-1.8,1.3-3.7,1.9-5.7,0.3c-7-5.7-8.1-15.8-2.5-23
		c4.1-5.3,7.6-5.1,10.8,0.6C294,194.5,296.5,197.3,296.2,199.8z"/>
	<path class="st0" d="M400.5,230.2c0.6-5.1,2.7-9.6,7.6-12.6c2.6-1.5,5.1-3.1,7.7-4.4c3.9-2,6.9-0.5,7.2,3.9c0.4,6-1.9,11.1-7,14.6
		c-2.2,1.5-4.6,2.7-6.9,4c-1.9,1.1-3.9,2.5-6.2,1.2C400.4,235.6,400.5,233,400.5,230.2z"/>
	<path class="st0" d="M335.4,158.8c-0.1,4.3,0.5,8.7-1.7,12.7c-1.2,2.1-2.6,4-4.6,5.4c-4.1,2.6-7.1,1.3-7.3-3.5
		c-0.2-5.2-0.2-10.5,0.1-15.7c0.3-4.2,2.3-7.7,5.8-10.2c1.6-1.1,3.3-2.3,5.4-1.3c2,1,2.4,2.9,2.4,4.9
		C335.5,153.7,335.4,156.2,335.4,158.8z"/>
	<path class="st0" d="M361.1,343.8c0.2-4,2.1-8.2,5.9-11.2c2.7-2.2,5.3-2.2,7.5,1.1c5.8,8.8,6.2,14.6,1.2,21.2
		c-4,5.2-7.6,5-10.8-0.5C361.2,348.2,361,347.7,361.1,343.8z"/>
	<path class="st0" d="M256.6,316c-0.4,4.4-2.5,8.9-7.1,11.8c-2.6,1.7-5.3,3.2-8.1,4.7c-4.1,2.1-7,0.5-7.3-4.2
		c-0.3-4.4,1.2-8.3,4.1-11.5c3.6-3.9,8.4-6.1,13.1-8.2C254.5,307.2,256.8,310.2,256.6,316z"/>
	<path class="st0" d="M335.3,380.7c0,2.5,0.3,5.1-0.1,7.6c-0.6,4.4-2.6,8.2-6.6,10.6c-3.7,2.2-6.6,0.8-6.8-3.5
		c-0.3-5.4-0.3-10.7,0.1-16.1c0.4-4.7,2.8-8.5,7-10.8c3.3-1.8,6-0.5,6.4,3.3C335.6,374.7,335.3,377.7,335.3,380.7
		C335.3,380.7,335.3,380.7,335.3,380.7z"/>
</g>
</svg>
