<?xml version="1.0" encoding="utf-8"?>
<!-- Generator: Adobe Illustrator 23.0.1, SVG Export Plug-In . SVG Version: 6.00 Build 0)  -->
<svg version="1.1" id="Layer_1" xmlns="http://www.w3.org/2000/svg" xmlns:xlink="http://www.w3.org/1999/xlink" x="0px" y="0px"
	 viewBox="0 0 595.3 508.7" style="enable-background:new 0 0 595.3 508.7;" xml:space="preserve">
<style type="text/css">
	.st0{fill:#555865;}
	.st1{fill:#F4A1A1;}
	.st2{fill:#E9E9E9;}
	.st3{fill:#C4946C;}
	.st4{fill:#C6C5C5;}
	.st5{fill:#A8714B;}
	.st6{fill:#767B8A;}
	.st7{fill:#FED604;}
	.st8{fill:#EE7475;}
	.st9{fill:#E2B162;}
	.st10{fill:#E99393;}
	.st11{fill:#C3A70C;}
	.st12{fill:#F6E0A9;}
	.st13{fill:#D8D8D7;}
	.st14{fill:#865339;}
	.st15{fill:#E56766;}
	.st16{fill:#ACB8B8;}
	.st17{fill:#F6B2B3;}
	.st18{fill:#E4E5E4;}
	.st19{fill:#9A483C;}
	.st20{fill:#F8C6C5;}
	.st21{fill:#AAC9E2;}
	.st22{fill:#F2D67B;}
	.st23{fill:#FFFFFF;}
	.st24{fill:#C99B8D;}
	.st25{fill:#EBCFC3;}
	.st26{fill:#D0C4C0;}
	.st27{fill:#EDDEDA;}
	.st28{fill:#223564;}
	.st29{fill:#3672B8;}
	.st30{fill:#CFCFE6;}
	.st31{fill:#FDEDEB;}
</style>
<g>
	<path class="st26" d="M331.8,167.5c-1.4,0.3-2.6-0.5-3.8-1.1c-4.9-2.7-9.8-5.5-14.7-8.3c-4.8-2.7-9.5-5.5-14.3-8.2
		c-6.9-3.9-13.7-7.8-20.7-11.6c-5.8-3.1-8.7-8.2-9.9-14.3c-0.6-3.3-1.3-6.6-0.9-10c0.5-4.2,0.9-8.5,2-12.6c2.7-9.8,7-18.8,13.4-26.7
		c3.5-4.3,7.7-7.8,12.6-10.5c6.8-3.7,13.8-7.1,21.1-9.7c4.2-1.4,8.4-2.5,12.7-3.6c3.1-0.8,6.3-1.2,9.4-1.8c0.3-0.1,0.6-0.5,0.9-0.7
		c5.1,0,10.2,0,15.3,0c0.6,0.3,1.1,0.7,1.8,0.8c7.2,0.9,14.1,2.9,20.7,6c5.6,2.6,10.8,5.8,16.2,8.9c6.6,3.8,13.3,7.5,19.9,11.3
		c4.4,2.5,8.8,5.1,13.2,7.6c1.5,0.9,3,1.7,4.6,2.5c-0.7,1.1-1.6,0.6-2.5,0.3c-7.8-2.5-15.9-3.6-24-3.5c-2,0-4,0.6-6,0.6
		c-4.7,0.1-9.2,1.3-13.8,2.3c-5.5,1.3-10.7,3.2-15.9,5.4c-6.3,2.7-12.4,5.6-18.2,9.3c-3,1.9-5.9,4.3-8.1,7.1
		c-4.8,5.8-8.9,12-11.5,19.1c-2.7,7.4-5,14.9-4.6,23c0,0.8,0,1.6,0,2.4C326.8,157.5,328.6,162.7,331.8,167.5z"/>
	<path class="st31" d="M331.8,167.5c-3.2-4.8-5-10-4.9-15.8c0-0.8,0-1.6,0-2.4c-0.4-8.1,1.9-15.6,4.6-23c2.6-7.1,6.7-13.4,11.5-19.1
		c2.3-2.7,5.1-5.2,8.1-7.1c5.7-3.7,11.9-6.6,18.2-9.3c5.2-2.2,10.4-4.2,15.9-5.4c4.5-1.1,9.1-2.2,13.8-2.3c2,0,4-0.6,6-0.6
		c8.2-0.2,16.2,1,24,3.5c0.9,0.3,1.8,0.8,2.5-0.3c6.4,3,12.6,6.4,18.3,10.7c5.4,4.1,10.3,8.9,14.2,14.5c2.1,2.9,4.2,5.8,6.2,8.8
		c3.6,5.4,6.2,11.2,8.4,17.3c2.2,6,4.2,12.1,5.6,18.4c0.8,3.8,1.4,7.6,2.1,11.4c0.5,2.7,1,5.5,1.4,8.2c0.1,0.5,0.1,1.1,0.1,1.6
		c-0.2,3.8,0.7,7.4,1.4,11.1c0.3,1.5,0.4,3.3,0,4.8c-0.6,2.3-0.6,4.5-0.6,6.8c0,2.5,0,5.1,0,7.6c0,1.2,0.2,2.4,0.4,3.6
		c0.4,2.1,0.5,4.2-0.1,6.3c-0.2,0.6-0.3,1.3-0.4,2c-0.5,3.2-0.8,6.3-0.9,9.5c-0.1,3.2-1,6.3-1.4,9.5c-0.3,2.4-0.4,4.8-0.9,7.1
		c-1,5.1-1.6,10.2-2.7,15.3c-1.1,5.5-2.5,10.9-3.8,16.3c-2.2,9-4.7,17.8-8.1,26.4c-3.6,8.9-6.7,18-10.6,26.8
		c-3.5,8.1-7.2,16.1-11.2,24c-0.1,0.2-0.2,0.5-0.4,0.7c-2.9,3.6-4.5,7.9-6.9,11.7c-3.4,5.6-6.8,11.2-10.2,16.8
		c-0.8,1.2-1.7,2.4-2.5,3.6c-4.5,6.2-8.8,12.4-13.4,18.4c-3.4,4.4-6.7,9.1-10.9,12.8c-4.5,6-10.3,10.9-15.5,16.3
		c-5.4,5.5-11.5,10.3-17.7,15c-3.1,2.4-6.2,4.6-9.4,6.7c-6.8,4.4-13.8,8.7-21.5,11.6c-0.5,0.2-1,0.4-1.4,0.7
		c-5.5,3.6-11.7,5.1-17.9,6.7c-4.1,1.1-8.3,1.7-12.5,2.5c-0.9,0.2-1.9,0.1-2.8,0.1c-3.6,0-7.2,0.1-10.9,0
		c-10.1-0.4-19.8-2.7-28.6-7.9c-2.8-1.6-5.6-3-8.5-4.5c-0.8-0.4-1.8-0.8-1.7-2c-0.3-0.7-1-0.9-1.7-0.9c0,0,0.1,0,0.1,0
		c0-0.9-0.6-1.4-1.3-1.9c-4.3-3.6-8-7.9-11.4-12.4c-4.5-6-8.4-12.4-11.3-19.3c-2.1-4.9-4-9.9-5.6-15c-1.4-4.6-2.5-9.3-3.5-14
		c-1.5-6.9-2.7-13.9-3.2-20.9c0-0.5-0.3-0.9-0.5-1.5c-1.5,0.7-1.7,1.9-2.3,2.9c-3,5.2-5.5,10.7-9.3,15.4c-3.6,4.4-7.9,7.5-13.4,9.1
		c-4.2,1.2-8.3-0.4-11-3.8c-2.8-3.6-3.3-7.8-3.8-12.1c-0.4-3.5,0.5-6.9,1.2-10.3c1.3-6.2,4-11.8,7-17.4c6.1-11.3,12-22.7,17.9-34.1
		c3.2-6,6.3-12.1,9.5-18.1c4.3-8.3,8.6-16.6,12.9-24.9c0.7-1.4,1.5-2.9,2.2-4.3c2.9-5.8,6.6-11,11.6-15.2c2.8-2.4,6-4,9.4-5.2
		c1-0.3,2.1-0.2,3.2-0.2c1.3,1.4,1.3,1.4,3.1,0.6c2.5,0.6,4,2.5,5.9,3.9c3.9,2.9,7.6,5.8,11.5,8.7c0.3,0.2,0.8,0.2,1.2,0.3
		c0.9,1.7,2.4,2.8,3.9,4c2,1.5,4,3.1,6,4.6c3.3,2.5,6.5,5,9.9,7.5c5.3,3.8,10.6,7.6,14.9,12.6c0,0.5-0.2,1.1,0,1.6
		c1.1,3.7,0.7,7.4,0.8,11.1c0,1.3,0,2.7-0.2,4c-0.6,3.4-1.6,6.7-2.8,10c-2.3,6.1-5.6,11.4-10.1,16.1c-0.6,0.7-1.4,1.3-2,2
		c-2.4,2.8-5.7,4.3-9.1,5.5c-3.4,1.2-6.5,0.8-9.5-1.2c-1.1-0.7-2.2-1.3-3.4-2.1c-0.2,0.6-0.6,0.9-0.5,1.2c0.6,2.8,1.3,5.7,1.9,8.5
		c0.4,1.8,0.8,3.6,1.1,5.4c0,1-0.2,2.1,1.3,2.4c2.3,8.3,7.1,15.2,12.8,21.5c4.9,5.5,11.3,9,18.3,11.1c4.5,1.3,9.1,2.2,13.8,1.9
		c1.7-0.1,3.4-0.4,5.1-0.7c2.9-0.5,5.8-0.9,8.6-1.7c5.2-1.4,10.1-3.5,14.9-6c3.9-2.1,7.6-4.5,11.2-7.1c4.7-3.4,9.3-6.7,13.3-10.9
		c2.1-2.2,4.4-4.4,6.5-6.5c4.3-4.4,8-9.3,11.9-14.1c4.1-5.1,7.6-10.7,11-16.2c2.6-4.2,5.1-8.5,7.4-12.9c7.3-13.6,12.6-28.1,17-42.8
		c1.2-4,2.1-8,3-12c1.1-4.5,2-9.1,2.5-13.8c0.5-4.6,1.4-9.2,1.4-13.9c-0.1-8.6,0.3-17.1-0.6-25.7c-0.7-6.2-2.1-12.1-3.8-18
		c-1.7-5.8-4.3-11.2-7.6-16.3c-6-9.5-13.9-16.5-24.9-19.7c-8.3-2.5-16.6-2.6-24.9-0.4c-1,0.3-1.7,0.7-2,1.7
		c-3.6-0.3-6.7,1.2-9.9,2.6c-3.4,1.5-6.7,3.2-10,5c-3.9,2.2-8.2,2.2-12.4,1.9c-2.5-0.2-4.7-1.6-6.7-3.1c-0.2-0.1-0.1-0.5-0.2-0.8
		C332.3,168.1,332,167.8,331.8,167.5C331.7,167.5,331.8,167.5,331.8,167.5z"/>
	<path class="st26" d="M371.7,162.8c0.3-1,0.9-1.4,2-1.7c8.4-2.2,16.6-2,24.9,0.4c11,3.3,18.9,10.2,24.9,19.7
		c3.2,5.1,5.9,10.6,7.6,16.3c1.7,5.9,3.1,11.8,3.8,18c1,8.6,0.5,17.1,0.6,25.7c0.1,4.7-0.8,9.3-1.4,13.9c-0.5,4.7-1.4,9.2-2.5,13.8
		c-0.9,4-1.8,8.1-3,12c-4.4,14.7-9.7,29.2-17,42.8c-2.3,4.4-4.8,8.7-7.4,12.9c-3.4,5.6-6.9,11.1-11,16.2c-3.8,4.8-7.6,9.7-11.9,14.1
		c-2.2,2.2-4.4,4.3-6.5,6.5c-4,4.2-8.6,7.6-13.3,10.9c-3.6,2.6-7.2,5-11.2,7.1c-4.8,2.5-9.7,4.6-14.9,6c-2.8,0.8-5.7,1.2-8.6,1.7
		c-1.7,0.3-3.4,0.6-5.1,0.7c-4.7,0.3-9.3-0.6-13.8-1.9c-7.1-2.1-13.4-5.6-18.3-11.1c-5.7-6.3-10.5-13.2-12.8-21.5
		c0.2-0.7,0.4-1.4,0.6-2.1c2.8-0.5,5.5-1.2,8-2.5c3-1.5,6.1-2.8,8.9-4.5c6.1-3.6,12-7.5,17.3-12.3c4-3.7,7.9-7.6,11.7-11.6
		c3-3.1,5.8-6.3,8.5-9.6c1.5-2,3.5-3.8,4.2-6.3c1.3-0.4,2.3,0.4,3.4,0.8c2,0.9,3.9,0.8,5.8-0.1c2-1,4.1-2,6-3.2
		c3.9-2.3,7.8-4.6,11.7-6.9c5.4-3.1,11-6.1,16.3-9.4c3.4-2.1,6.2-5.1,8.3-8.6c2.3-4,4.2-8.3,5-13c0.6-3.8,0.4-7.4-1.4-10.9
		c-2.1-4.2-5.7-5.6-10-3.8c-1.6,0.7-3.1,1.6-4.6,2.4c-5,2.8-10,5.6-15,8.4c-0.3-0.1-0.7-0.1-1-0.2c-0.2-2.9-0.4-5.8-0.5-8.7
		c-0.1-5.7,0-11.4,0-17c0.3-0.1,0.5-0.2,0.8-0.2c1.9,1,3.7,2,5.7,3c1.6,0.8,2.5,0.5,3-1.3c1.1-3.8,2.2-7.7,3-11.6
		c1.3-6.5,2.6-13.1,3.4-19.7c0.7-6.2,1-12.5,1-18.8c0-9.9-1.4-19.7-3.5-29.3C373,166.6,372.3,164.7,371.7,162.8z"/>
	<path class="st26" d="M253.1,258.6c-1.1,0.1-2.2-0.1-3.2,0.2c-3.4,1.2-6.6,2.8-9.4,5.2c-5,4.2-8.7,9.4-11.6,15.2
		c-0.7,1.4-1.4,2.9-2.2,4.3c-4.3,8.3-8.6,16.6-12.9,24.9c-3.1,6.1-6.3,12.1-9.5,18.1c-6,11.4-11.8,22.8-17.9,34.1
		c-3,5.6-5.7,11.2-7,17.4c-0.7,3.4-1.6,6.8-1.2,10.3c0.5,4.2,1,8.5,3.8,12.1c2.7,3.4,6.8,4.9,11,3.8c5.5-1.5,9.8-4.7,13.4-9.1
		c3.8-4.7,6.3-10.2,9.3-15.4c0.6-1,0.8-2.2,2.3-2.9c0.2,0.6,0.4,1,0.5,1.5c0.5,7.1,1.7,14,3.2,20.9c1,4.7,2,9.4,3.5,14
		c1.6,5.1,3.6,10.1,5.6,15c2.9,6.9,6.8,13.3,11.3,19.3c3.4,4.5,7.1,8.7,11.4,12.4c0.6,0.5,1.2,1,1.3,1.9c-1-0.4-2-0.7-2.9-1.2
		c-8.8-5-17.7-10.1-26.5-15.1c-6.5-3.7-13.1-7.3-19.5-11.1c-4.6-2.7-8.9-5.9-12.8-9.6c-7.9-7.6-14.4-16.1-19.2-26
		c-0.8-1.8-2-3-3.8-4c-5.3-2.9-10.5-5.9-15.7-8.9c-9.3-5.3-18.6-10.7-27.9-15.9c-2-1.1-3.4-2.6-4.4-4.5c-1.6-3-2.3-6.2-2.5-9.6
		c-0.4-8,1.3-15.5,4.9-22.5c4.9-9.7,10-19.2,15.1-28.8c1.5-2.8,2.9-5.7,4.4-8.6c4.1-8,8.2-15.9,12.4-23.9
		c5.2-10,10.4-19.9,15.7-29.8c2.9-5.4,6.6-10,11.7-13.6c3.4-2.4,7.1-3.7,11.3-3.2c1,0.1,2.1,0.4,3,0.9c7,3.9,14,7.9,21,11.8
		c8.9,5,17.7,10,26.6,15c2.6,1.4,5.1,3,7.6,4.4C253.1,257.9,253.1,258.2,253.1,258.6z"/>
	<path class="st26" d="M309.3,300.7c-4.3-5-9.6-8.8-14.9-12.6c-3.3-2.4-6.6-5-9.9-7.5c-2-1.5-4-3.1-6-4.6c-1.5-1.1-3-2.3-3.9-4
		c0-10.4,0.1-20.9,0.1-31.3c0-15.5-0.1-31,0.1-46.6c0.1-9.5,3.7-17.7,10.7-24.2c1.9-1.8,4.1-3,6.7-3.3c2.1-0.2,3.9,0.2,5.8,1.3
		c4.7,2.7,9.5,5.4,14.3,8.1c4.5,2.6,9,5.2,13.5,7.8c8.7,5,17.4,10,26.1,14.9c-0.1,0.5-0.1,1.1-0.2,1.6c-2.9-0.2-5.2,1.1-7.2,3
		c-6.6,6.2-10.4,13.9-10.4,23c-0.1,24.8,0,49.5,0,74.3c0,4.4-0.3,8.8,0.9,13.1c-1.1,0.4-2.1-0.2-3-0.7c-3.4-1.9-6.7-3.8-10.1-5.6
		C317.7,305.3,313.5,303,309.3,300.7z"/>
	<path class="st31" d="M335,313.9c-1.1-4.3-0.9-8.7-0.9-13.1c0-24.8-0.1-49.5,0-74.3c0-9.2,3.8-16.8,10.4-23c2-1.9,4.3-3.2,7.2-3
		c0.9,0,1.9,0.2,2.5-0.7c2.6,0.6,4.1,2.4,4.9,4.7c0.6,1.6,1,3.3,1.5,4.9c-0.9,0.7-0.8,1.6-0.8,2.6c0,11.5,0.1,23,0.1,34.6
		c0,5.7,0,11.4,0,17c0,2.9,0.3,5.8,0.5,8.7c-0.1,0.3-0.2,0.7-0.3,1c0.3,0,0.7,0,1-0.1c0.2-0.1,0.2-0.5,0.3-0.7c5-2.8,10-5.6,15-8.4
		c1.5-0.8,3-1.7,4.6-2.4c4.3-1.8,7.9-0.4,10,3.8c1.7,3.5,2,7.1,1.4,10.9c-0.8,4.7-2.7,8.9-5,13c-2,3.5-4.9,6.4-8.3,8.6
		c-5.3,3.3-10.8,6.3-16.3,9.4c-3.9,2.3-7.8,4.6-11.7,6.9c-2,1.1-4,2.2-6,3.2c-1.9,0.9-3.8,1-5.8,0.1c-1.1-0.5-2.1-1.2-3.4-0.8
		c-0.3-0.5-0.7-1-1-1.6C335.3,314.6,335.8,314.2,335,313.9L335,313.9z"/>
	<path class="st18" d="M360,246.5c0-11.5-0.1-23-0.1-34.6c0-0.9-0.1-1.9,0.8-2.6c1.1,0.9,0.8,2.2,0.8,3.4c0,8.1,0,16.3,0,24.4
		c0,1.9,0.1,3.7,0,5.6c-0.1,1.2-0.4,2.3-0.7,3.5C360.5,246.3,360.3,246.4,360,246.5z"/>
	<path class="st18" d="M253.1,258.6c0-0.4,0-0.7,0-1.1c1.3,0,2.5,0.3,3.1,1.7C254.3,260,254.3,260,253.1,258.6z"/>
	<path class="st18" d="M354.3,199.7c-0.6,1-1.6,0.8-2.5,0.7c0.1-0.5,0.1-1.1,0.2-1.6C352.8,198.9,353.8,198.8,354.3,199.7z"/>
	<path class="st16" d="M331.7,167.5c0.3,0.3,0.6,0.6,0.9,0.9C332.3,168.1,332,167.8,331.7,167.5z"/>
	<path class="st18" d="M275.5,362.9c0.6,0.1,1.3,0.2,1.9,0.3c-0.2,0.7-0.4,1.4-0.6,2.1C275.3,365,275.5,363.9,275.5,362.9z"/>
	<path class="st18" d="M361.5,272.3c-0.1,0.3-0.1,0.6-0.3,0.7c-0.3,0.1-0.7,0.1-1,0.1c0.1-0.3,0.2-0.7,0.3-1
		C360.9,272.2,361.2,272.3,361.5,272.3z"/>
	<path class="st16" d="M334.9,314.9c0-0.3,0-0.7,0-1C335.8,314.2,335.3,314.6,334.9,314.9z"/>
</g>
</svg>
