<?xml version="1.0" encoding="utf-8"?>
<!-- Generator: Adobe Illustrator 23.0.1, SVG Export Plug-In . SVG Version: 6.00 Build 0)  -->
<svg version="1.1" id="Layer_1" xmlns="http://www.w3.org/2000/svg" xmlns:xlink="http://www.w3.org/1999/xlink" x="0px" y="0px"
	 viewBox="0 0 595.3 508.7" style="enable-background:new 0 0 595.3 508.7;" xml:space="preserve">
<style type="text/css">
	.st0{fill:#F4A1A1;}
	.st1{fill:#ACB8B8;}
	.st2{fill:#C99B8D;}
	.st3{fill:#EBCFC3;}
	.st4{fill:#D0C4C0;}
	.st5{fill:#EDDEDA;}
	.st6{fill:#223564;}
	.st7{fill:#3672B8;}
	.st8{fill:#CFCFE6;}
	.st9{fill:#FDEDEB;}
	.st10{fill:#E4E5E4;}
	.st11{fill:#555865;}
	.st12{fill:#C4946C;}
	.st13{fill:#A8714B;}
	.st14{fill:#767B8A;}
	.st15{fill:#E2B162;}
	.st16{fill:#E99393;}
	.st17{fill:#F6E0A9;}
	.st18{fill:#D8D8D7;}
	.st19{fill:#865339;}
	.st20{fill:#E56766;}
	.st21{fill:#AAC9E2;}
	.st22{fill:#F2D67B;}
	.st23{fill:#FFFFFF;}
	.st24{fill:#F5AA93;}
	.st25{fill:#FED604;}
	.st26{fill:#BB5C39;}
	.st27{fill:#C3A70C;}
	.st28{fill:#C45E31;}
	.st29{fill:#9A483C;}
	.st30{fill:#F8C6C5;}
</style>
<g>
	<path class="st11" d="M459.7,85.4c0.5-0.3,0.9-0.7,1.4-0.9c2.2-0.8,4.5-1.5,6.7-2.2c4.8-1.5,7.5-0.4,10.3,3.8
		c0.1,0.1,0.4,0.2,0.6,0.2c0,2.3,0,4.5,0,6.8c-0.2,0.2-0.6,0.4-0.6,0.6c-2.1,6.3-4.1,12.5-6.2,18.8c-0.1,0.4-0.4,0.7-0.7,1.1
		c-5.8-0.9-10.9-3.2-15.2-7.2c-0.5-0.4-1-0.8-1.5-1.3c-0.2-0.5-0.3-1-0.5-1.6c1.8-5.3,3.6-10.6,5.4-16
		C459.5,87,459.6,86.2,459.7,85.4z"/>
	<path class="st5" d="M259.3,171.3c1.9,0.8,3.7,0.1,5.6-0.2c4-0.6,7.9-1.5,11.9-2c2.6-0.3,5.1-0.4,7.7-0.6c2.1-0.2,4.2-0.7,6.3-1.1
		c0.9-0.2,1.8-0.4,2.5,0.5c0.8,1,1.8,1.4,3,1.3c3.9-0.3,7.5,1.6,11.4,1.5c5.8,1.4,11.7,2.4,17.4,4.2c10.8,3.4,21.4,7.1,31.3,12.8
		c5,2.8,10,5.7,14.8,8.9c4.5,3,8.8,6.3,12.8,9.9c1.8,1.6,3.6,3.1,5.3,4.7c0.6,0.5,1.1,1.1,1.6,1.7c0.8,0.9,1.5,2,2.4,2.8
		c3.8,3.6,6.9,7.8,9.7,12.1c4.1,6.3,7.6,13.1,9.6,20.4c1.4,4.8,2.1,9.7,2.3,14.6c0.1,2.4-0.4,4.7-0.7,7.1c-0.3,2-0.5,4-1.1,6
		c-1.3,4.5-2.9,8.9-5.1,13.2c-1.6,3.2-3.4,6.4-5.4,9.4c-2.7,3.9-5.5,7.7-8.9,11.1c-2.1,2.1-4.2,4.1-6.2,6.3
		c-4.3,4.6-9.4,8.4-14.5,12.2c-6.6,4.8-13.7,8.8-20.9,12.4c-5.9,3-12.1,5.6-18.4,7.7c-8.1,2.7-16.3,5.2-24.8,6.7
		c-3.4,0.6-6.9,1.2-10.3,1.9c-0.5-0.2-1.1-0.6-1.5-0.5c-2,0.7-4,0.5-6,0.6c-0.8,0.1-1.1,0.6-1.2,1.3c-1.2-0.1-2.4-0.3-3.6-0.4
		c-0.4-0.1-0.9-0.3-1.3-0.2c-3,0.3-6-0.4-9-0.8c-4.3-0.6-8.5-1.4-12.8-2.2c-1.2-0.2-2.4-0.3-3.6-0.5c-0.9-0.4-1.8-0.8-2.8-1.1
		c-5.9-1.4-11.7-3.2-17.4-5.1c-1.2-0.4-2.4-0.6-3.6-0.9c-2.4-1.9-5.3-2.4-7.9-3.7c-3.6-1.9-7.3-3.5-10.9-5.4
		c-3.5-1.8-6.9-3.8-10.4-5.7c-0.4-0.4-0.8-0.8-1.2-1.1c-5.2-3.5-10.2-7.3-15-11.4c-0.4-0.3-1-0.4-1.5-0.6c-0.6-0.7-1.1-1.5-1.7-2.1
		c-1.2-1.3-2.5-2.6-3.8-3.8c-3.2-3.1-6-6.4-8.7-9.9c-3.6-4.6-6.8-9.5-9.3-14.8c-2.6-5.5-4.3-11.4-5.8-17.3c-0.1-0.4-0.1-0.9-0.1-1.4
		c0-4.4-0.2-8.8,0.1-13.2c0.2-2.7,1-5.3,1.7-7.9c1.5-5.7,3.9-11.1,6.8-16.2c2.4-4.2,5.3-8.1,8.4-11.9c3.3-4,7.1-7.6,10.7-11.3
		c0.7-0.7,1.5-1.4,1.5-2.5c1.1,0.2,1.9-0.5,2.7-1.2c1.8-1.5,3.6-3.1,5.5-4.5c11.1-8.3,22.9-15.1,35.8-20.3c0.8-0.3,1.5-0.9,2.3-1.3
		c1.1-0.3,2.2-0.5,3.2-0.9c2.5-0.8,4.9-1.7,7.3-2.4c4.2-1.2,8.4-2.3,12.6-3.4C258.7,172.3,259.2,172,259.3,171.3z M297.9,320.1
		c3,0,6.1,0,9.3-0.6c3.3-0.7,6.7-1.3,9.8-2.5c3-1.2,6-2.6,8.9-4.1c3.6-1.8,6.8-4,9.6-6.9c1.6-1.6,3.2-3.2,4.8-4.8
		c3.1-3,5.5-6.6,7.6-10.3c4-7.2,6.3-15,7-23.1c0.5-5.2,0.1-10.4-0.9-15.5c-0.7-3.7-1.9-7.2-3.2-10.7c-1.6-4.2-3.9-8.1-6.5-11.9
		c-2.4-3.5-5.6-6.2-8.5-9.2c-1.9-2-4-3.6-6.3-5.1c-5.7-3.8-11.9-6.4-18.6-8c-2.7-0.7-5.5-1.3-8.3-1.3c-4.5-0.1-9-0.3-13.5,0.5
		c-6.1,1-11.9,2.8-17.3,5.5c-5.2,2.6-9.7,6.1-14,10c-3,2.8-5.5,6-7.8,9.4c-3.8,5.4-6,11.6-7.8,17.9c-1.2,4.1-1.2,8.5-1.9,12.7
		c-0.2,1.2,0.1,2.5,0.2,3.7c0.1,1,0.3,2,0.3,3c0.1,0.9,0,1.8,0.2,2.7c0.8,3.9,1.7,7.7,3,11.4c2.8,7.7,7.1,14.4,12.7,20.2
		c1.5,1.6,3.4,3,5.1,4.5c3,2.7,6.2,4.8,9.8,6.6C279.9,317.9,288.6,320.3,297.9,320.1z"/>
	<path class="st12" d="M406.2,423.3c-1.3-0.1-1.8-1.2-2.6-2c-12-12-24-24-36-36c-9.5-9.5-19-19-28.6-28.6c-0.9-0.9-1.7-1.8-2.5-2.7
		c0.8-1,2.1-0.6,3.2-0.9c7.7-2.1,15.4-4.3,22.8-7.4c4.4-1.8,8.7-3.7,12.9-5.8c4.9-2.5,9.6-5.5,14.3-8.2c-0.1,0.8,0,1.6,0.6,2.2
		c0.6,0.6,1.3,1.3,1.9,1.9c16.1,16.1,32.3,32.3,48.4,48.4c0.9,0.9,1.9,1.6,2.4,2.8c-0.2,0.3-0.4,0.6-0.6,0.9
		c-11.4,11.4-22.8,22.9-34.3,34.3C407.6,422.6,406.9,422.9,406.2,423.3z"/>
	<path class="st4" d="M389.7,331.7c-4.8,2.8-9.5,5.7-14.3,8.2c-4.2,2.2-8.5,4-12.9,5.8c-7.4,3.1-15.1,5.3-22.8,7.4
		c-1.1,0.3-2.3-0.1-3.2,0.9c-1.1,0-2.1,0.1-3.2,0.1c-0.6-0.1-1.1,0-1.4,0.6c-2,0.3-4,0.5-6,0.8c-0.6-0.2-1.1-0.1-1.5,0.5
		c-1.1,0-2.2,0.1-3.3,0.1c-0.6-0.1-1.1-0.1-1.4,0.6c-1.8,0.2-3.6,0.4-5.4,0.6c-0.5-0.7-0.9-0.6-1.4,0.1c-1.5,0.1-3,0.3-4.5,0.4
		c-1,0.1-2,0.1-2.9,0.1c-0.6-0.2-1.2-0.5-1.8-0.6c-1.1-0.1-2.2,0.1-3.3-0.1c-0.6-0.1-1.2-0.5-1.8-0.7c3.4-0.6,6.9-1.3,10.3-1.9
		c8.5-1.5,16.6-4,24.8-6.7c6.3-2.1,12.5-4.7,18.4-7.7c7.2-3.7,14.4-7.6,20.9-12.4c5.1-3.7,10.2-7.5,14.5-12.2c2-2.1,4.1-4.2,6.2-6.3
		c3.4-3.3,6.2-7.2,8.9-11.1c2-3,3.8-6.1,5.4-9.4c2.1-4.2,3.8-8.7,5.1-13.2c0.6-1.9,0.8-4,1.1-6c0.3-2.3,0.8-4.7,0.7-7.1
		c-0.1-5-0.9-9.9-2.3-14.6c-2.1-7.3-5.5-14.1-9.6-20.4c-2.8-4.3-5.9-8.5-9.7-12.1c-0.9-0.8-1.6-1.9-2.4-2.8c-0.5-0.6-1-1.2-1.6-1.7
		c-1.8-1.6-3.5-3.1-5.3-4.7c-4.1-3.6-8.3-7-12.8-9.9c-4.8-3.2-9.8-6-14.8-8.9c-9.9-5.6-20.5-9.3-31.3-12.8
		c-5.7-1.8-11.6-2.9-17.4-4.2c-3.9,0.1-7.5-1.8-11.4-1.5c-1.2,0.1-2.2-0.4-3-1.3c3.1,0,6.3,0,9.4,0c3.7,0,7.4,0,11,0.7
		c0.4,0.7,0.9,0.7,1.4,0.1c3.2,0.4,6.3,0.8,9.5,1.2c0.3,0.6,0.8,0.7,1.5,0.5c2.4,0.4,4.8,0.7,7.2,1.1c1.1,0.2,2.2,0.3,3.3,0.4
		c0.3,0.2,0.6,0.4,0.9,0.5c7,1.5,13.7,3.6,20.4,5.9c0.8,0.3,1.8,0.4,2.6,0.6c1.1,0.6,2.1,1.2,3.3,1.7c7,2.8,13.7,6.2,20.1,10
		c1.7,1,3.5,2,5.3,3c0.1,0.2,0.3,0.4,0.4,0.5c5.5,3.6,10.9,7.4,15.8,11.9c0.4,0.4,1.2,0.4,1.8,0.6c0.1,1.1,0.9,1.8,1.6,2.5
		c1.9,1.9,3.9,3.8,5.8,5.7c6.1,6.4,11.2,13.5,15.3,21.3c2.6,4.9,4.4,10.1,5.7,15.5c0.8,3.5,1,7.1,1.1,10.7
		c0.1,8.2-1.7,15.8-4.9,23.3c-3,6.9-7.1,13.1-11.5,19c-3.2,4.4-7.2,8-11.1,11.9c-0.8,0.8-1.8,1.4-1.8,2.7c-1-0.2-1.7,0.3-2.4,0.9
		c-2.7,2.2-5.3,4.4-8.1,6.5C394.5,328.5,392.1,330,389.7,331.7z"/>
	<path class="st13" d="M389.7,331.7c2.4-1.7,4.8-3.2,7.1-5c2.8-2.1,5.4-4.3,8.1-6.5c0.7-0.6,1.4-1.1,2.4-0.9
		c17.4,17.3,34.7,34.7,52.1,52c0.2,0.2,0.4,0.5,0.6,0.8c-1.4,0-2.6,0.7-3.5,1.7c-1.6,1.7-3.3,3.4-5,5.1c-1.5,1.5-3,3-4.6,4.6
		c-3.6,3.6-3.7,3.3-0.1,6.8c1.6,1.6,3.2,3.2,4.8,4.8c0.6,0.6,1.1,1.1,1.6,1.7c5,6.4,7.3,13.9,7.8,21.9c0.3,4.5-0.9,8.9-2.3,13.2
		c-0.5,1.5-1.2,2.9-1,4.6c-8.8,5-18.1,6.1-27.8,3.7c-5.3-1.3-10.2-3.7-14.3-7.3c-2.8-2.4-5.4-5.1-8.1-7.7c-0.5-0.5-0.8-1.3-1.2-2
		c0.7-0.4,1.4-0.7,2-1.2c11.4-11.4,22.9-22.8,34.3-34.3c0.2-0.2,0.4-0.5,0.6-0.9c-0.5-1.2-1.6-1.9-2.4-2.8
		c-16.1-16.1-32.3-32.3-48.4-48.4c-0.6-0.6-1.3-1.3-1.9-1.9C389.7,333.3,389.6,332.5,389.7,331.7z"/>
	<path class="st14" d="M168.2,174.5c-1.8-0.3-3.6-0.5-5.3-0.8c-7.2-1.3-14.4-2.7-21.6-4.1c-0.3-0.1-0.7-0.1-1-0.2
		c-3.7-0.7-5.7-2.9-6.5-6.5c-0.6-3-1.2-6-1.9-9c-2.9-13.7-5.7-27.4-8.6-41.2c-0.8-3.9-1.6-7.7-2.3-11.6c1.1,0.5,2.3,1.1,3.4,1.3
		c5.1,1,10.2,1.8,15.2,3c5.7,1.4,11.4,2.4,17.1,3.6c4.9,1,9.9,2,14.8,3c3.7,0.8,7.5,1.6,11.2,2.5c3.4,0.7,5.2,2.8,5.9,6.2
		c0.6,3.5,1.4,7,2,10.6c0.4,2.1,0.7,4.2,1.2,6.3c0.9,3.5,1.6,7,1.6,10.6c-0.1,1.3-1.2,1.9-2,2.6c-7,7-14,14-21,21.1
		C169.6,172.8,168.9,173.7,168.2,174.5z M174.4,128.6c-0.1-6-4.8-10.8-10.7-10.8c-6.5,0-11.2,5.5-11,11.2c0.1,5.1,4.1,10.6,11,10.6
		C170.9,139.6,174.7,133.6,174.4,128.6z"/>
	<path class="st15" d="M407.1,206.6c-0.6-0.2-1.4-0.2-1.8-0.6c-4.9-4.5-10.3-8.2-15.8-11.9c-0.2-0.1-0.3-0.3-0.4-0.5
		c0.8-0.9,1.6-1.9,2.5-2.8c11.7-11.7,23.4-23.4,35-35.1c0.6-0.6,1.3-1.2,1.9-2c0.3-0.4,0.5-1,0.7-1.5c1,0,1.6-0.7,2.3-1.3
		c1.4-1.4,2.8-2.9,4.3-4.3c2.9-2.6,5-5.7,6.6-9.3c0.8-1.8,1.6-3.7,2.3-5.6c1-2.9,1.9-5.8,2.9-8.6c1.7-5.2,3.5-10.4,5.2-15.7
		c0.3-1,0.6-1.9,1.7-2.3c0.5,0.4,1,0.8,1.5,1.3c4.3,4,9.4,6.3,15.2,7.2c-1.1,3.6-2.1,7.1-3.3,10.6c-3.2,9.6-6.5,19.2-9.7,28.9
		c-0.7,2.2-1.9,4-3.5,5.7c-14.9,14.8-29.7,29.7-44.6,44.5C409.1,204.4,408.1,205.5,407.1,206.6z"/>
	<path class="st16" d="M139.8,427.4c-0.5-0.4-1.1-0.8-1.6-1.3c-5.5-5.5-11-11.1-16.5-16.6c-2-2-3.6-4.4-4.4-7.1
		c-1.7-5.8-0.3-10.9,3.5-15.4c0.3-0.3,0.6-0.7,0.9-1c6.5-6.5,12.9-12.9,19.4-19.4c0.4-0.4,0.8-0.7,1.3-1.1c1.4,0,2.1,1.2,3,2
		c11.4,11.4,22.8,22.8,34.2,34.2c0.3,0.3,0.6,0.7,0.9,1c-1,0.1-1.6,0.6-2.3,1.3c-1.3,1.4-2.7,2.7-4.1,4.1
		c-5.2,5.2-10.3,10.4-15.5,15.5c-2.5,2.4-5.3,4.3-8.9,4.4c-2.8,0.1-5.6,0.4-8.4-0.6C141,427.3,140.3,427.4,139.8,427.4z"/>
	<path class="st11" d="M193.4,148.3c0.1-3.6-0.7-7.1-1.6-10.6c-0.5-2.1-0.8-4.2-1.2-6.3c-0.7-3.5-1.4-7-2-10.6
		c-0.6-3.4-2.5-5.4-5.9-6.2c-3.7-0.8-7.4-1.7-11.2-2.5c-4.9-1-9.9-2-14.8-3c-5.7-1.2-11.4-2.3-17.1-3.6c-5-1.2-10.1-1.9-15.2-3
		c-1.2-0.2-2.3-0.9-3.4-1.3c-0.6-2.7-1.1-5.5-1.8-8.2c-1-3.9,2.8-9.5,8.2-8.7c3.5,0.5,6.9,1.3,10.3,2c9.4,2,18.7,4,28.1,5.9
		c10.4,2.2,20.7,4.2,31.1,6.4c5.2,1.1,6.8,2.8,7.7,8c-0.2,0.6-0.1,1.1,0.5,1.5c0.1,0.9,0.3,1.7,0.4,2.6c-0.3,0.6-0.2,1.1,0.3,1.5
		c0.1,0.6,0.2,1.3,0.2,1.9c-0.3,0.6-0.2,1.1,0.4,1.5c0.1,0.9,0.3,1.7,0.4,2.6c-0.4,0.7-0.1,1.3,0.5,1.8c0.1,0.6,0.2,1.2,0.3,1.8
		c-0.5,0.6-0.3,1,0.3,1.3c0.1,0.9,0.3,1.8,0.4,2.8c-0.5,0.7-0.2,1.1,0.4,1.6c0.1,0.6,0.2,1.2,0.3,1.8c-0.5,0.7-0.2,1.2,0.4,1.6
		c0.1,0.6,0.2,1.2,0.2,1.8c-0.8,0.9-1.6,1.8-2.5,2.7c-3.5,3.6-7.1,7.2-10.6,10.8c-0.6,0.6-1.1,1.4-1.6,2.1
		C194.3,148.2,193.8,148.3,193.4,148.3z"/>
	<path class="st17" d="M454.4,105.2c-1.1,0.4-1.4,1.3-1.7,2.3c-1.7,5.2-3.5,10.4-5.2,15.7c-1,2.9-1.9,5.8-2.9,8.6
		c-0.7,1.9-1.5,3.7-2.3,5.6c-1.6,3.5-3.7,6.6-6.6,9.3c-1.5,1.4-2.9,2.8-4.3,4.3c-0.6,0.6-1.3,1.3-2.3,1.3c-0.7-0.5-1.5-1-2.2-1.5
		c-2.2-1.4-4.5-2.6-6.5-4.3c-4.4-3.9-8.4-8.2-10.9-13.6c-0.3-0.7-0.9-1.2-1.4-1.8c-0.1-0.9,0-1.8-0.2-2.7
		c-1.6-6.2-2.4-12.5-2.6-18.9c0-0.7-0.2-1.3-0.3-2c-0.1-1.2-0.2-2.4-0.4-3.7c0.8-0.4,1.5-0.9,2.3-1.2c12.3-4.1,24.6-8.2,36.9-12.3
		c1.1-0.3,2.2-0.5,3.3-0.7c0.9,4.4,2.7,8.5,5.2,12.2c0.4,0.6,1.1,1.1,1.6,1.7C454.1,104.2,454.3,104.7,454.4,105.2z"/>
	<path class="st15" d="M404.6,103.9c0.1,1.2,0.2,2.4,0.4,3.7c0.1,0.7,0.2,1.3,0.3,2c0.3,6.4,1,12.7,2.6,18.9
		c0.2,0.9,0.2,1.8,0.2,2.7c-0.9,0.7-1.8,1.4-2.6,2.2c-14.4,14.3-28.7,28.7-43,43c-0.8,0.8-1.4,1.7-2.2,2.6c-0.9-0.2-1.8-0.3-2.6-0.6
		c-6.7-2.3-13.5-4.5-20.4-5.9c-0.3-0.1-0.6-0.3-0.9-0.5c0.9-1,1.7-2.1,2.6-3.1c20.1-20.1,40.2-40.2,60.3-60.4
		c1.3-1.3,2.5-2.6,3.8-3.9C403.5,104.3,404.1,104.2,404.6,103.9z"/>
	<path class="st18" d="M180.5,402.8c-0.3-0.3-0.5-0.7-0.9-1c-11.4-11.4-22.8-22.8-34.2-34.2c-0.9-0.9-1.5-2-3-2
		c-0.3-0.6-0.5-1.3-0.9-1.8c-0.6-0.8-1.4-1.4-2.1-2.2c-2.2-2.4-2.3-3.9-0.1-6.1c3.5-3.6,7-7.1,10.5-10.5c1.7-1.6,4.4-1.6,6.1,0
		c0.8,0.7,1.4,1.5,2.2,2.1c0.5,0.4,1.2,0.6,1.8,0.9c0.1,1.1,0.9,1.8,1.6,2.5c3.9,3.9,7.7,7.8,11.6,11.6c0.7,0.7,1.6,1.2,2.4,1.8
		c0.7,0.9,1.3,1.9,2,2.6c5.9,5.9,11.8,11.9,17.8,17.8c0.6,0.6,1.4,1.2,2,1.8c0.9,1,1.8,1.9,2.6,2.9c0.6,0.7,1.2,1.5,1.7,2.3
		c0,2.5-1.2,4.4-3,6.1c-2.5,2.3-4.8,4.7-7.1,7.1c-2.6,2.6-2.6,2.6-6.4,2.7C183.6,405.6,182.1,404.2,180.5,402.8z"/>
	<path class="st15" d="M201.7,391.1c-0.6-0.8-1.1-1.6-1.7-2.3c-0.8-1-1.7-1.9-2.6-2.9c0.1-1.4,1.2-2.1,2-3
		c11.3-11.3,22.7-22.7,34-34c0.7-0.7,1.5-1.3,2.3-2c1.2,0.3,2.4,0.5,3.6,0.9c5.7,2,11.5,3.8,17.4,5.1c1,0.2,1.9,0.7,2.8,1.1
		c-5.3,5.4-10.6,10.8-16,16.1c-10.2,10.2-20.4,20.5-30.7,30.7c-0.7-0.5-1.6-0.9-2.2-1.5c-2.1-2-4.2-4.2-6.3-6.2
		C203.5,392.4,202.6,391.8,201.7,391.1z"/>
	<path class="st19" d="M457.6,436.6c-0.2-1.7,0.6-3.1,1-4.6c1.4-4.3,2.5-8.7,2.3-13.2c-0.5-8-2.8-15.5-7.8-21.9
		c-0.5-0.6-1.1-1.2-1.6-1.7c-1.6-1.6-3.2-3.2-4.8-4.8c-3.6-3.5-3.5-3.2,0.1-6.8c1.5-1.5,3-3,4.6-4.6c1.7-1.7,3.4-3.3,5-5.1
		c1-1,2.1-1.7,3.5-1.7c4.7,4.3,9.2,8.6,12.2,14.4c3.6,7,5.1,14.3,4.1,22.2c-1,7.9-4.1,14.7-9.3,20.6
		C464.3,432.3,461.3,434.8,457.6,436.6z"/>
	<path class="st20" d="M180.5,402.8c1.5,1.4,3.1,2.8,4.6,4.2c0.6,0.8,1.3,1.5,1.9,2.2c2.3,2.3,4.6,4.5,6.8,6.8
		c0.6,0.6,1,1.4,1.5,2.1c-5.7,5.6-11.4,11.3-17,16.9c-1.5,1.5-3,3-4.6,4.5c-6.1,6-15.7,5.9-21.7,0.1c-3-2.9-6-5.9-8.9-8.8
		c-1.2-1.2-2.7-2-3.5-3.6c0.6,0,1.2-0.1,1.7,0.1c2.7,1,5.6,0.7,8.4,0.6c3.6-0.1,6.4-1.9,8.9-4.4c5.2-5.1,10.4-10.3,15.5-15.5
		c1.4-1.4,2.7-2.7,4.1-4.1C178.9,403.4,179.6,402.9,180.5,402.8z"/>
	<path class="st12" d="M234.8,179.3c-0.8,0.5-1.5,1-2.3,1.3c-12.8,5.2-24.7,12-35.8,20.3c-1.9,1.4-3.7,3-5.5,4.5
		c-0.8,0.7-1.5,1.3-2.7,1.2c-1.6-1.7-3.3-3.3-4.8-5.2c-2.1-2.7-2.3-5.7-0.6-8.8c0.3-0.5,0.6-0.9,0.9-1.4c0.8-0.7,1.7-1.4,2.5-2.2
		c1.9-1.8,3.7-3.7,5.5-5.5c5.6-5.6,11.2-11.2,16.8-16.8c0.6-0.6,1-1.4,1.5-2.2c0.8-0.5,1.6-1,2.4-1.4c1.2,0,2.5,0,3.7,0
		c1.9-0.1,3.5,0.6,4.9,2c4.1,4.1,8.2,8.2,12.2,12.2C234.3,177.8,234.9,178.4,234.8,179.3z"/>
	<path class="st15" d="M175.6,363.7c-0.8-0.6-1.7-1.1-2.4-1.8c-3.9-3.8-7.8-7.7-11.6-11.6c-0.7-0.7-1.5-1.4-1.6-2.5
		c8.8-8.8,17.5-17.5,26.3-26.3c0.9-0.9,1.7-1.8,2.5-2.7c0.5,0.2,1.1,0.3,1.5,0.6c4.8,4.1,9.8,7.9,15,11.4c0.5,0.3,0.8,0.8,1.2,1.1
		c-0.8,0.9-1.6,1.9-2.4,2.8c-8.7,8.7-17.4,17.4-26,26.1C177.1,361.8,176.4,362.8,175.6,363.7z"/>
	<path class="st18" d="M210.5,164.5c-0.5,0.7-0.9,1.6-1.5,2.2c-5.6,5.6-11.2,11.2-16.8,16.8c-1.8,1.8-3.6,3.7-5.5,5.5
		c-0.8,0.8-1.7,1.5-2.5,2.2c-0.8-0.9-1.6-1.9-2.5-2.7c-3.8-3.8-7.6-7.6-11.4-11.4c-0.8-0.8-1.4-1.7-2.1-2.6c0.7-0.8,1.4-1.7,2.2-2.5
		c7-7,14-14,21-21.1c0.8-0.8,1.9-1.4,2-2.6c0.4-0.1,0.9-0.1,1.3-0.2c-0.1,1.3,0.9,2,1.7,2.8c4,4,7.9,8,11.9,11.9
		C209,163.5,209.8,164,210.5,164.5z"/>
	<path class="st13" d="M234.8,179.3c0.1-0.9-0.5-1.5-1.1-2c-4.1-4.1-8.2-8.1-12.2-12.2c-1.3-1.4-2.9-2.1-4.9-2c-1.2,0.1-2.5,0-3.7,0
		c0.7-0.8,1.5-1.7,2.2-2.5c2.9-3,5.9-5.9,8.8-8.9c0.8-0.8,1.4-1.7,2.1-2.6c0.7-0.4,1.3-0.9,2-1.3c2.9-1.4,5.7-1.1,8.3,0.8
		c1,0.7,1.9,1.6,2.8,2.5c6.2,6.2,12.5,12.5,18.7,18.7c0.5,0.5,1,0.9,1.5,1.4c-0.1,0.8-0.6,1.1-1.3,1.3c-4.2,1.1-8.5,2.2-12.6,3.4
		c-2.5,0.7-4.9,1.6-7.3,2.4C237,178.8,235.9,179,234.8,179.3z"/>
	<path class="st1" d="M226.1,149.2c-0.7,0.9-1.4,1.8-2.1,2.6c-2.9,3-5.9,5.9-8.8,8.9c-0.8,0.8-1.5,1.7-2.2,2.5
		c-0.8,0.5-1.6,1-2.4,1.4c-0.7-0.6-1.4-1.1-2.1-1.7c-4-4-8-7.9-11.9-11.9c-0.8-0.8-1.8-1.4-1.7-2.8c0.5-0.7,1-1.5,1.6-2.1
		c3.5-3.6,7.1-7.2,10.6-10.8c0.9-0.9,1.7-1.8,2.5-2.7c2.6,2.5,5.2,5,7.7,7.5c2.5,2.5,4.9,5.2,7.4,7.8
		C225,148.3,225.6,148.7,226.1,149.2z"/>
	<path class="st1" d="M195.4,418.3c-0.5-0.7-0.9-1.5-1.5-2.1c-2.2-2.3-4.6-4.6-6.8-6.8c-0.7-0.7-1.3-1.5-1.9-2.2
		c3.8-0.1,3.8-0.1,6.4-2.7c2.4-2.4,4.7-4.8,7.1-7.1c1.8-1.7,3-3.6,3-6.1c0.9,0.7,1.8,1.3,2.6,2.1c2.1,2,4.1,4.2,6.3,6.2
		c0.6,0.6,1.4,1,2.2,1.5c0.4,1.4,1.5,2.3,2.5,3.1c2.7,2.3,3.1,4.9,0.1,7.8c-3.1,3-6.1,6-9.1,9.1c-0.3,0.3-0.6,0.7-1,0.9
		c-2.1,1.7-3.6,1.7-5.7-0.1C198.2,420.6,197.2,418.9,195.4,418.3z"/>
	<path class="st14" d="M453.9,103.7c-0.5-0.6-1.2-1-1.6-1.7c-2.5-3.7-4.3-7.8-5.2-12.2c0.3-0.3,0.6-0.7,1-0.8
		c3.4-1.2,6.9-2.3,10.4-3.4c0.4-0.1,0.9,0,1.3-0.1c-0.1,0.8-0.2,1.6-0.4,2.3C457.5,93,455.7,98.4,453.9,103.7z"/>
	<path class="st10" d="M298.6,356.7c0.6,0.2,1.1,0.6,1.8,0.7c1.1,0.1,2.2,0,3.3,0.1c0.6,0.1,1.2,0.4,1.8,0.6
		c-0.4,0.6-1.1,0.7-1.8,0.7c-3.5,0-7,0.1-10.5,0c-1.1,0-2.2-0.4-3.3-0.6c0.1-0.7,0.4-1.3,1.2-1.3c2-0.1,4,0.1,6-0.6
		C297.4,356,298,356.5,298.6,356.7z"/>
	<path class="st1" d="M209.2,130.8c-0.6-0.4-1-0.9-0.4-1.6C209.4,129.6,209.6,130.1,209.2,130.8z"/>
	<path class="st1" d="M208.5,127.4c-0.5-0.4-0.9-0.9-0.4-1.6C208.8,126.2,208.9,126.7,208.5,127.4z"/>
	<path class="st1" d="M207.7,123c-0.6-0.3-0.8-0.8-0.3-1.3C208,122,208.3,122.4,207.7,123z"/>
	<path class="st1" d="M207.2,119.9c-0.6-0.5-0.9-1-0.5-1.8C207.4,118.6,207.7,119.1,207.2,119.9z"/>
	<path class="st1" d="M206.3,115.6c-0.5-0.4-0.7-0.9-0.4-1.5C206.6,114.4,207,114.8,206.3,115.6z"/>
	<path class="st1" d="M205.7,112.2c-0.5-0.4-0.7-0.9-0.3-1.5C205.9,111,206.4,111.5,205.7,112.2z"/>
	<path class="st1" d="M205,108.1c-0.5-0.4-0.7-0.9-0.5-1.5C205.2,106.9,205.7,107.3,205,108.1z"/>
	<path class="st10" d="M325.9,170.4c-0.6,0.2-1.1,0.1-1.5-0.5C325.3,169.2,325.4,169.3,325.9,170.4z"/>
	<path class="st10" d="M319.7,356.7c0.3-0.6,0.8-0.7,1.4-0.6C320.7,357.3,320.6,357.4,319.7,356.7z"/>
	<path class="st10" d="M312.9,357.4c0.4-0.7,0.9-0.7,1.4-0.1C313.9,358,313.4,358.1,312.9,357.4z"/>
	<path class="st10" d="M324.5,356.1c0.3-0.6,0.8-0.7,1.5-0.5C325.4,356.7,325.3,356.7,324.5,356.1z"/>
	<path class="st10" d="M331.9,354.7c0.3-0.6,0.8-0.7,1.4-0.6C332.9,355.3,332.8,355.3,331.9,354.7z"/>
	<path class="st10" d="M314.9,168.6c-0.5,0.6-0.9,0.6-1.4-0.1C314.1,167.8,314.5,167.9,314.9,168.6z"/>
	<path class="st21" d="M297.9,320.1c-9.4,0.2-18-2.1-26.3-6.1c-3.6-1.7-6.9-3.9-9.8-6.6c-1.7-1.5-3.5-2.9-5.1-4.5
		c-5.6-5.9-9.9-12.5-12.7-20.2c-1.4-3.7-2.3-7.5-3-11.4c-0.2-0.9-0.1-1.8-0.2-2.7c-0.1-1-0.3-2-0.3-3c-0.1-1.2-0.4-2.5-0.2-3.7
		c0.7-4.2,0.7-8.5,1.9-12.7c1.8-6.3,4-12.5,7.8-17.9c2.3-3.3,4.8-6.6,7.8-9.4c4.2-3.9,8.8-7.5,14-10c5.5-2.7,11.3-4.5,17.3-5.5
		c4.5-0.7,9-0.6,13.5-0.5c2.8,0.1,5.6,0.7,8.3,1.3c6.6,1.6,12.9,4.2,18.6,8c2.3,1.5,4.4,3.1,6.3,5.1c2.9,3,6.1,5.7,8.5,9.2
		c2.6,3.7,4.9,7.6,6.5,11.9c1.3,3.5,2.5,7,3.2,10.7c1,5.1,1.4,10.3,0.9,15.5c-0.8,8.2-3,15.9-7,23.1c-2.1,3.7-4.4,7.4-7.6,10.3
		c-1.6,1.6-3.2,3.2-4.8,4.8c-2.8,2.9-6,5.1-9.6,6.9c-2.9,1.5-5.9,2.9-8.9,4.1c-3.1,1.2-6.5,1.9-9.8,2.5
		C304.1,320,300.9,320,297.9,320.1z M275.6,262.9c-0.5,10.1,7.9,22.2,22.1,22.2c12.6,0.1,22.5-9.7,22.3-22.4
		c-0.2-14.7-12.4-22.2-22.3-22.1C284.8,240.8,275.2,252,275.6,262.9z"/>
	<path class="st22" d="M175.6,363.7c0.8-0.9,1.5-1.9,2.4-2.8c8.7-8.7,17.4-17.4,26-26.1c0.9-0.9,1.6-1.9,2.4-2.8
		c3.5,1.9,6.9,3.9,10.4,5.7c3.6,1.9,7.3,3.6,10.9,5.4c2.6,1.3,5.6,1.9,7.9,3.7c-0.8,0.7-1.6,1.3-2.3,2c-11.3,11.3-22.7,22.7-34,34
		c-0.9,0.9-2,1.6-2,3c-0.7-0.6-1.4-1.1-2-1.8c-5.9-5.9-11.9-11.8-17.8-17.8C176.8,365.6,176.2,364.6,175.6,363.7z"/>
	<path class="st22" d="M360.4,178.9c0.7-0.9,1.4-1.8,2.2-2.6c14.3-14.4,28.7-28.7,43-43c0.8-0.8,1.7-1.4,2.6-2.2
		c0.5,0.6,1.1,1.1,1.4,1.8c2.5,5.4,6.5,9.7,10.9,13.6c1.9,1.7,4.3,2.8,6.5,4.3c0.7,0.5,1.5,1,2.2,1.5c-0.2,0.5-0.3,1.1-0.7,1.5
		c-0.6,0.7-1.2,1.3-1.9,2c-11.7,11.7-23.4,23.4-35,35.1c-0.9,0.9-1.6,1.8-2.5,2.8c-1.8-1-3.5-1.9-5.3-3c-6.4-3.9-13.1-7.3-20.1-10
		C362.5,180.2,361.4,179.5,360.4,178.9z"/>
	<path class="st23" d="M174.4,128.6c0.3,5-3.5,11-10.8,11.1c-6.8,0.1-10.8-5.5-11-10.6c-0.2-5.7,4.5-11.3,11-11.2
		C169.5,117.9,174.3,122.6,174.4,128.6z"/>
	<path class="st11" d="M275.6,262.9c-0.5-11,9.2-22.2,22.1-22.3c9.9-0.1,22.1,7.4,22.3,22.1c0.1,12.7-9.8,22.4-22.3,22.4
		C283.5,285.1,275.1,273,275.6,262.9z"/>
</g>
</svg>
