<svg width="32" height="32" viewBox="0 0 32 32" fill="none" xmlns="http://www.w3.org/2000/svg">
<path d="M16.0003 2.66675C8.64033 2.66675 2.66699 8.64008 2.66699 16.0001C2.66699 23.3601 8.64033 29.3334 16.0003 29.3334C23.3603 29.3334 29.3337 23.3601 29.3337 16.0001C29.3337 8.64008 23.3603 2.66675 16.0003 2.66675ZM10.667 23.3334C8.82699 23.3334 7.33366 21.8401 7.33366 20.0001C7.33366 18.1601 8.82699 16.6667 10.667 16.6667C12.507 16.6667 14.0003 18.1601 14.0003 20.0001C14.0003 21.8401 12.507 23.3334 10.667 23.3334ZM12.667 10.6667C12.667 8.82675 14.1603 7.33342 16.0003 7.33342C17.8403 7.33342 19.3337 8.82675 19.3337 10.6667C19.3337 12.5067 17.8403 14.0001 16.0003 14.0001C14.1603 14.0001 12.667 12.5067 12.667 10.6667ZM21.3337 23.3334C19.4937 23.3334 18.0003 21.8401 18.0003 20.0001C18.0003 18.1601 19.4937 16.6667 21.3337 16.6667C23.1737 16.6667 24.667 18.1601 24.667 20.0001C24.667 21.8401 23.1737 23.3334 21.3337 23.3334Z" fill="#53433E"/>
</svg>
