<?xml version="1.0" encoding="utf-8"?>
<!-- Generator: Adobe Illustrator 23.0.1, SVG Export Plug-In . SVG Version: 6.00 Build 0)  -->
<svg version="1.1" id="Layer_1" xmlns="http://www.w3.org/2000/svg" xmlns:xlink="http://www.w3.org/1999/xlink" x="0px" y="0px"
	 viewBox="0 0 595.3 508.7" style="enable-background:new 0 0 595.3 508.7;" xml:space="preserve">
<style type="text/css">
	.st0{fill:#FBDACF;}
	.st1{fill:#F28D69;}
	.st2{fill:#EAAA96;}
	.st3{fill:#9A4623;}
	.st4{fill:#BA6D15;}
</style>
<g>
	<path class="st0" d="M310.6,414.5c-28.4-0.1-55.4-6.4-81.5-17.4c-29.2-12.3-55.8-28.9-79.7-49.4c-16-13.7-31.6-28-46.1-43.4
		c-13.6-14.5-25.5-30.6-38.2-45.9c-0.9-1.1-2-2-3-3.1c0-0.6,0-1.3,0-1.9c5.2-6.5,10.4-13,15.6-19.5c17-21.1,35-41.3,55.7-58.9
		c13.9-11.9,28.4-23.2,43-34.2c7.3-5.5,15.2-10.3,23.2-14.7c22-12.3,45-22.6,70-27.2c13.5-2.5,27.4-3.2,41.1-4.6c0,19.3,0,38.7,0,58
		c-5.3,0.4-10.6,0.5-15.8,1.4c-20.4,3.3-38.7,11.8-53.5,26.2c-28.1,27.4-38.8,60.5-29.5,99.1c6,24.8,19.8,44.6,40.9,59.1
		c17.4,12,36.7,18.3,58,18.5C310.6,375.8,310.6,395.2,310.6,414.5z"/>
	<path class="st1" d="M62,94.2c19.2,0,38.4,0,57.9,0c0,9.7,0,19.2,0,28.9c-9.4,0-18.8,0-28.6,0c0,9.7,0,19.2,0,29.3
		c-10.1,0-19.7,0-29.4,0C62,133,62,113.6,62,94.2z"/>
	<path class="st1" d="M62,356.3c9.5,0,19,0,29,0c0,9.7,0,19.2,0,29c9.8,0,19.1,0,28.8,0c0,9.8,0,19.2,0,29.3c-19.2,0-38.5,0-57.9,0
		C62,395.1,62,375.7,62,356.3z"/>
	<path class="st2" d="M310.5,152.2c0-19.3,0-38.7,0-58c29.6-0.2,57.7,7,84.7,18.6c22.7,9.7,43.4,22.7,63.2,37.3
		c22.7,16.8,43,36.1,62,56.8c13.7,14.9,26,31,39.2,47c-6.2,8-11.4,15.7-17.6,22.6c-15.5,17.3-30.8,34.8-47.3,51.1
		c-22.5,22.3-47.8,41.1-75.6,56.6c-19.9,11-40.7,19.5-62.7,24.9c-15,3.7-30.3,5.8-45.8,5.5c0-19.3,0-38.7,0-58c0,0,0-0.4,0-0.4
		c8.2-0.9,16.7-1.1,24.7-2.9c18.4-4.3,34.4-13.2,47.3-27.2c2.9-3.4,6-6.6,8.7-10.2c18.8-24.4,24.7-52.2,18.9-82
		c-4.4-22.3-15.6-41.2-33.1-56.3c-19.2-16.6-41.5-24-66.5-24.9C310.6,152.6,310.5,152.2,310.5,152.2z"/>
	<path class="st3" d="M558.8,152.2c-9.6,0-18.9,0-28.7,0c0-9.4,0-18.9,0-28.8c-9.9,0-19.3,0-29.1,0c0-9.9,0-19.3,0-29
		c19.2,0,38.4,0,57.7,0C558.8,113.6,558.8,132.7,558.8,152.2z"/>
	<path class="st3" d="M558.7,414.4c-19.3,0-38.3,0-57.6,0c0-9.6,0-19,0-28.9c9.5,0,19,0,28.7,0c0-9.8,0-19.1,0-28.8
		c9.7,0,19.2,0,28.9,0C558.7,375.6,558.7,394.8,558.7,414.4z"/>
	<path class="st4" d="M310.6,356.5c-21.2-0.1-40.5-6.4-58-18.5c-21.1-14.5-34.9-34.3-40.9-59.1c-9.3-38.6,1.4-71.7,29.5-99.1
		c14.8-14.4,33-22.9,53.5-26.2c5.2-0.8,10.6-0.9,15.8-1.4c0,0,0,0.4,0,0.4c0,33.9,0.1,67.9,0.1,101.8c0,33.9-0.1,67.8-0.1,101.7
		C310.5,356.1,310.6,356.5,310.6,356.5z"/>
	<path class="st3" d="M310.6,254.4c0-33.9-0.1-67.9-0.1-101.8c24.9,0.9,47.3,8.3,66.5,24.9c17.5,15.1,28.7,34,33.1,56.3
		c5.9,29.9-0.1,57.6-18.9,82c-2.7,3.5-5.8,6.8-8.7,10.2c-6.6-6.6-13.2-13.2-19.8-19.8C345.4,288.9,328,271.7,310.6,254.4z"/>
	<path class="st1" d="M310.6,254.4c17.4,17.3,34.7,34.5,52.1,51.8c6.6,6.6,13.2,13.2,19.8,19.8c-12.9,14-28.9,22.9-47.3,27.2
		c-8,1.9-16.4,2-24.7,2.9C310.6,322.2,310.6,288.3,310.6,254.4z"/>
</g>
</svg>
