<?xml version="1.0" encoding="utf-8"?>
<!-- Generator: Adobe Illustrator 23.0.1, SVG Export Plug-In . SVG Version: 6.00 Build 0)  -->
<svg version="1.1" id="Layer_1" xmlns="http://www.w3.org/2000/svg" xmlns:xlink="http://www.w3.org/1999/xlink" x="0px" y="0px"
	 viewBox="0 0 595.3 508.7" style="enable-background:new 0 0 595.3 508.7;" xml:space="preserve">
<style type="text/css">
	.st0{fill:#3F3E44;}
	.st1{fill:#F7A63A;}
	.st2{fill:#F18A10;}
	.st3{fill:#5A595E;}
	.st4{fill:#FDD9AA;}
	.st5{fill:#363536;}
	.st6{fill:#49474C;}
	.st7{fill:#F49823;}
	.st8{fill:#1F1F21;}
	.st9{fill:#ABABB1;}
	.st10{fill:#3E3D43;}
	.st11{fill:#77777F;}
	.st12{fill:#58585E;}
	.st13{fill:#D7D7D9;}
	.st14{fill:#C2C0C6;}
	.st15{fill:#87868E;}
	.st16{fill:#C6C4CA;}
	.st17{fill:#313133;}
	.st18{fill:#8A8991;}
	.st19{fill:#2F2F31;}
	.st20{fill:#222224;}
	.st21{fill:#403F45;}
	.st22{fill:#A9A8AF;}
</style>
<g>
	<path class="st0" d="M419,100.6c2.1,3.8,2.7,8.2,5.2,11.9c0,0.7,0,1.4,0,2.1c-0.3,0.3-0.7,0.5-1,0.8c-1-0.1-1.8,0.2-2.6,0.7
		c-7.6,4.5-15.2,9-22.8,13.4c-4.9,2.8-9.6,6.1-14.8,8.3c-1.7-4.4-3.4-8.8-5.1-13.3c8-4.7,16-9.5,24-14.2
		C407.5,107.1,413,103.4,419,100.6z"/>
	<path class="st1" d="M88.4,281.9c0.8-2,2.2-3.4,4.1-4.5c90.8-52.7,181.5-105.4,272.2-158.1c0.8-0.5,1.7-0.8,2.5-1.2
		c3.3,2.1,6.6,4.2,9.9,6.3c-16,9.4-31.9,18.9-47.9,28.2c-25.5,14.8-51.1,29.5-76.6,44.3c-20,11.6-39.9,23.3-59.9,34.9
		c-15.3,8.9-30.7,17.7-46.1,26.6c-16.6,9.7-33.3,19.4-49.9,29.1c-1.4-0.2-2.7-0.4-4.1-0.6C87.9,286.3,87.9,286.3,88.4,281.9z"/>
	<path class="st2" d="M378.3,145c-41.5,24.1-82.9,48.2-124.4,72.3c-50.2,29.2-100.3,58.3-150.5,87.5c-1.6,1-3.2,1.9-5.2,1.2
		c-0.5-2.5,2.9-2.9,2.7-5.2c2.7,0.1,4.5-1.7,6.6-3c21.1-12.2,42.2-24.4,63.3-36.6c19.8-11.5,39.5-23,59.3-34.5
		c14.1-8.2,28.2-16.4,42.3-24.6c15-8.7,30.1-17.4,45.1-26.1c15.4-8.9,30.9-17.9,46.4-26.8c5.9-3.4,11.4-7.3,17.7-9.8
		C380.9,141.4,378.8,142.8,378.3,145z"/>
	<path class="st3" d="M377.1,124.5c-3.3-2.1-6.6-4.2-9.9-6.3c13.3-7.8,26.5-15.5,39.7-23.3c0.9-0.5,1.6-0.6,2.5-0.1
		c3.1,2,6.3,3.9,9.5,5.8c-6,2.8-11.5,6.5-17.3,9.8c-8.1,4.6-16,9.4-24,14.2C377.6,124.5,377.4,124.5,377.1,124.5z"/>
	<path class="st4" d="M101,300.9c0.2,2.3-3.2,2.7-2.7,5.2c-2.5,2.2-5.8,1.9-8.8,2.4c-4,0.7-7.7,2.6-11.9,2.1
		c-0.5-3.3-2.4-5.9-4.1-8.6c1-3.5,3.8-5.7,5.8-8.4c3-3.9,5.2-8.4,9.1-11.6c-0.5,4.4-0.5,4.4,4.2,4.9c1.4,0.2,2.7,0.4,4.1,0.6
		c-0.4,1.4-0.9,2.9-1.3,4.3C93.4,299,93.4,299,101,300.9z"/>
	<path class="st5" d="M378.3,145c0.5-2.3,2.5-3.7,3.4-5.7c0.4-0.5,0.7-1,1.1-1.5c5.2-2.3,9.9-5.5,14.8-8.3
		c7.7-4.4,15.2-8.9,22.8-13.4c0.8-0.5,1.7-0.9,2.6-0.7c-2.2,4-5.2,6.9-9.2,9.1C402,131.2,390.2,138.2,378.3,145z"/>
	<path class="st6" d="M73.5,302c1.7,2.7,3.6,5.3,4.1,8.6c-3.9,1.8-8.3,1.7-12.6,2.7C67.7,309.4,69.9,305.2,73.5,302z"/>
	<path class="st7" d="M382.8,137.8c-0.4,0.5-0.7,1-1.1,1.5c-6.3,2.5-11.9,6.5-17.7,9.8c-15.5,8.9-30.9,17.9-46.4,26.8
		c-15,8.7-30.1,17.4-45.1,26.1c-14.1,8.2-28.2,16.4-42.3,24.6c-19.8,11.5-39.5,23-59.3,34.5c-21.1,12.2-42.2,24.4-63.3,36.6
		c-2.1,1.2-3.9,3-6.6,3c-7.6-1.9-7.6-1.9-5.5-9.1c0.4-1.4,0.9-2.9,1.3-4.3c16.6-9.7,33.2-19.4,49.9-29.1
		c15.3-8.9,30.7-17.7,46.1-26.6c20-11.6,39.9-23.3,59.9-34.9c25.5-14.8,51.1-29.5,76.6-44.3c16-9.3,32-18.8,47.9-28.2
		c0.2,0,0.4,0.1,0.6,0.1C379.5,129,381.1,133.4,382.8,137.8z"/>
</g>
<g>
	<path class="st8" d="M487.2,220.4c-1.7-6.3-6.3-9.8-13.4-11.7c4.3-2.6,7.7-4.8,11.3-6.8c7.7-4.5,15.7-8.5,23.1-13.5
		c5.1-3.4,9.6-1.6,13.5,1.7c2.8,2.4,4.9,5.4,6.4,8.8c0.5,1.1,0.6,2.4,2.2,2.7c0,3.5,0,7.1,0,10.6c-8,6.2-17.2,10.3-25.7,15.7
		c-1.4,0.9-2.8,1.6-4.6,1.3c-0.1-1.3-1.2-1.7-2.1-2.2C494.3,224.8,490.7,222.6,487.2,220.4z"/>
	<path class="st9" d="M152.1,336.1c-0.5-1.8,1.1-2.3,2-3.2c5.1-4.6,10.4-9.1,15.5-13.8c2.3-2.1,5-3.6,7.9-4.7
		c65-24.4,130-48.8,195.1-73.2c0.6-0.2,1.3-0.4,1.9-0.5c2.7,6.8,5.3,13.6,8,20.3c-1.9,0.6-3.9,1.2-5.8,1.9
		c-43.5,16.3-86.9,32.6-130.4,48.9c-27.9,10.5-55.9,21.1-83.8,31.6C159,341.2,156.3,337.5,152.1,336.1z"/>
	<path class="st10" d="M487.2,220.4c3.6,2.2,7.2,4.3,10.7,6.5c0.9,0.6,2,0.9,2.1,2.2c-9,5.2-18,10.3-27.1,15.5
		c-11,6.3-22,12.7-33,19c-6.2-0.8-12.3-1.6-18.5-2.3c-11.8-1.5-23.6-2.9-35.4-4.4c-4.4-10-7.4-20.4-12.3-30.2
		c0.1-1.6,1.4-2.2,2.6-2.9c18.1-10.5,36.2-21,54.2-31.6c2.6-1.5,4.8-1.7,7.5,0c15.5,9.1,31,17.9,46.6,26.8
		C485.4,219.7,486.3,220,487.2,220.4z M434.1,239c5.1,0.7,9.7-0.6,14-3.3c6.2-3.9,6.2-9.9,0.2-14c-7.4-5.1-21-5.1-28.5,0.1
		c-5.9,4-5.9,9.8,0.1,13.7C424.1,238.3,428.9,239.7,434.1,239z"/>
	<path class="st9" d="M267,403c7-6.3,14.1-12.6,21.1-18.9c-0.1,3.3,1.3,5.8,4.1,7.4c7.8,4.2,15.8,4.2,23.6,0c3-1.6,4.9-4.3,3.4-8.1
		c1-4.9-0.2-7.5-4.5-10c-3.8-2.2-7.9-2.4-12.1-2.3c12.7-11.6,25.5-23.1,38.2-34.7c14.8-13.4,29.5-26.8,44.3-40.1
		c3.7-3.1,7.6-6.1,10.7-9.8c5.4-4.2,10.6-8.8,15.3-13.8c1.2-0.5,2.3-0.3,3.6-0.2c8.4,0.6,16.6,2.6,25,2.8c5.9-2.5,11-6.3,16.6-9.2
		c1.2-0.6,2.1-1.7,3.6-1.5c-1.9,3.4-5.2,5.5-7.9,8c-46.3,41.8-92.7,83.5-139.1,125.3c-11,3.3-21.4,8.2-32.2,11.9
		C276.5,407,271.1,406.3,267,403z"/>
	<path class="st11" d="M162.6,343.5c27.9-10.5,55.9-21.1,83.8-31.6c43.4-16.3,86.9-32.6,130.4-48.9c1.9-0.7,3.9-1.3,5.8-1.9
		c0.8,1.7,1.7,3.3,2.5,5c0.3,3.1,2.9,2.8,4.8,3.1c4.4,0.7,8.8,1.2,13.1,1.8c-6.2,3.5-13.3,4.7-19.5,8.1c-1.5,0.1-2.9,0.6-4.1,1.5
		c-12.9,4.1-25.4,9.3-38.1,14c-58.4,21.9-116.9,43.9-175.3,65.8c-1.1,0.4-2.3,0.6-3.5,1C162.6,355.3,162.6,349.4,162.6,343.5z"/>
	<path class="st12" d="M313.1,397.7c46.4-41.8,92.8-83.5,139.1-125.3c2.8-2.5,6.1-4.5,7.9-8c2.6-2.6,5.7-4.3,9-5.7
		c0,5.4,0.1,10.9,0.1,16.3c-10.2,9.3-20.4,18.7-30.6,28c-11.8,10.6-23.7,21.1-35.5,31.7c-18.2,16.3-36.3,32.6-54.5,49
		c-11.2,10.1-22.4,20.1-33.6,30.2c-0.5,0.4-1.1,0.8-1.7,1.1C313.3,409.3,313.9,403.5,313.1,397.7z"/>
	<path class="st8" d="M403.1,270.9c-4.4-0.6-8.8-1.1-13.1-1.8c-2-0.3-4.6,0-4.8-3.1c1.8-2.9,0.5-6,0.9-9c11.8,1.5,23.6,2.9,35.4,4.4
		c6.2,0.8,12.3,1.5,18.5,2.3c0,3.8,0,7.6,0,11.5c-8.4-0.2-16.6-2.2-25-2.8c-1.2-0.1-2.4-0.3-3.6,0.2
		C408.8,271,405.9,270.8,403.1,270.9z"/>
	<path class="st11" d="M313.1,397.7c0.8,5.8,0.2,11.6,0.4,17.4c-10.7,4.4-21.5,8.8-32.6,12.3c0-6,0-11.9,0-17.9
		C291.7,405.9,302.1,401,313.1,397.7z"/>
	<path class="st8" d="M234.4,434.8c5.1-4.5,11.4-7,17.1-10.6c4.9-3.1,10.3-5.3,14.8-9.1c1.5,0.1,2.6-0.8,3.6-1.6
		c3.1-2.2,5.3-1.3,6.9,1.7c1.6,2.9,1,5.1-2.1,6.6c-1.2,0.6-2.2,1.5-3.3,2.2c-10.5,6-21,12-31.5,17.9c-0.7,0.4-1.5,0.6-2.2,0.9
		C238.4,439.5,236.5,437.1,234.4,434.8z"/>
	<path class="st13" d="M302.7,371.1c4.2,0,8.3,0.1,12.1,2.3c4.3,2.5,5.5,5.1,4.5,10c-0.8,0.7-1.7,1.3-2.5,2
		c-6.4,5.3-24,5.2-28.3-3.6c0-0.8,0-1.6,0-2.5c0.2-0.3,0.3-0.6,0.5-1C291.6,372.3,297.1,371.6,302.7,371.1z M304.2,384
		c2.5-0.7,6.4-0.7,6.1-4c-0.2-3.1-3.6-4.1-6.7-3.9c-2.9,0.2-6.1,1.2-5.9,4.2C298,383.5,301.6,383.5,304.2,384z"/>
	<path class="st14" d="M155.3,355.7c-1.8-0.4-3.1,0.6-4.6,1.3c-10.1,4.8-20.3,9.6-30.4,14.4c-1.2,0.6-2.2,1.6-4.1,1.2
		c11.1-8.1,21.9-16,32.8-23.9c1.3-1,2.8-1.7,3.1-3.5c2.4,0,4.4,0.5,5.9,2.7C160.7,351.8,157.5,353.5,155.3,355.7z"/>
	<path class="st10" d="M469.3,275.1c0-5.4-0.1-10.9-0.1-16.3c2.8-2,5.7-3.9,9-5c3.4,4.1,8.4,5.9,13,8.2c-1.3,2.5-4,3.1-6.1,4.3
		C479.8,269.2,474.9,272.7,469.3,275.1z"/>
	<path class="st15" d="M271.3,424c1.1-0.8,2.1-1.7,3.3-2.2c3.2-1.5,3.7-3.7,2.1-6.6c-1.7-3-3.8-3.9-6.9-1.7c-1,0.8-2.1,1.7-3.6,1.6
		c0.5-4-1-8.1,0.8-12.1c4.1,3.3,9.4,4,13.9,6.6c0,6,0,11.9,0,17.9C277.4,427.1,274.6,424.9,271.3,424z"/>
	<path class="st16" d="M288.5,381.8c4.3,8.9,21.8,9,28.3,3.6c0.8-0.7,1.7-1.3,2.5-2c1.5,3.8-0.4,6.4-3.4,8.1
		c-7.8,4.2-15.7,4.2-23.6,0c-2.9-1.5-4.2-4.1-4.1-7.4C288.2,383.3,288.4,382.5,288.5,381.8z"/>
	<path class="st17" d="M386,257c-0.4,3,0.9,6.2-0.9,9c-0.8-1.7-1.7-3.3-2.5-5c-2.7-6.8-5.3-13.6-8-20.3c-1.8-4.5-2.4-9.1-0.9-13.8
		C378.6,236.6,381.6,247.1,386,257z"/>
	<path class="st18" d="M155.3,355.7c2.3-2.1,5.5-3.8,2.8-7.8c-1.5-2.2-3.5-2.7-5.9-2.7c-0.7-3-0.6-6.1-0.1-9.1
		c4.2,1.5,6.9,5.1,10.5,7.4c0,5.9,0,11.9,0,17.8C159.6,360.1,157.3,358.1,155.3,355.7z"/>
	<path class="st19" d="M491.1,261.9c-4.6-2.3-9.6-4-13-8.2c3-3,7-4.5,10.6-6.7c2.3-1.4,2.4,0.7,2.4,2.2
		C491.2,253.5,491.2,257.7,491.1,261.9z"/>
	<path class="st19" d="M379.5,280.5c1.2-0.9,2.6-1.4,4.1-1.5c0.5,2.3,1.3,4.5,2.4,6.5c-0.4,3,0.8,6.1-0.8,9
		C382.5,290.2,381.2,285.2,379.5,280.5z"/>
	<path class="st20" d="M385.2,294.6c1.6-2.9,0.5-6,0.8-9c3.3,0.3,6.6,0.6,10,0.9c-3.2,3.7-7,6.7-10.7,9.8
		C385.2,295.7,385.2,295.1,385.2,294.6z"/>
	<path class="st19" d="M234.4,434.8c2.1,2.3,4,4.7,3.3,8.1c-3.2,1.4-4.4-1.2-5.3-3.2C231.4,437.8,231.3,435.4,234.4,434.8z"/>
	<path class="st16" d="M288.9,378.3c-0.2,0.3-0.3,0.6-0.5,1C288.6,379,288.8,378.6,288.9,378.3z"/>
	<path class="st20" d="M434.1,239c-5.2,0.8-9.9-0.7-14.2-3.5c-5.9-3.9-5.9-9.7-0.1-13.7c7.5-5.2,21.1-5.2,28.5-0.1
		c6,4.1,5.9,10.2-0.2,14C443.8,238.4,439.2,239.7,434.1,239z M435.7,221.2c-3.7-0.4-7.2,0.3-10.5,2c-5.1,2.5-5.4,6.6-0.8,10.2
		c1.4,1.5,3.2,1.9,5,2.3c4.4,0.5,8.8,0.7,13-1.3c2.6-1.2,4.9-2.8,4.6-5.9c-0.3-3.1-2.4-5-5.5-5.5
		C439.9,221.2,437.8,221.1,435.7,221.2z"/>
	<path class="st21" d="M396,286.4c-3.3-0.3-6.6-0.6-10-0.9c-1.1-2.1-2-4.2-2.4-6.5c6.2-3.4,13.3-4.6,19.5-8.1
		c2.9-0.1,5.7,0.1,8.2,1.7C406.6,277.6,401.4,282.2,396,286.4z"/>
	<path class="st16" d="M304.2,384c-2.6-0.6-6.3-0.6-6.4-3.7c-0.2-3,3.1-4.1,5.9-4.2c3.1-0.2,6.4,0.8,6.7,3.9
		C310.6,383.3,306.8,383.3,304.2,384z"/>
	<path class="st22" d="M441.5,222.9c3.2,0.5,5.3,2.4,5.5,5.5c0.3,3.1-2.1,4.7-4.6,5.9c-4.2,2.1-8.6,1.8-13,1.3
		c1.4-2,3.5-3.4,5.2-5.1C437,228.2,440.4,226.6,441.5,222.9z"/>
	<path class="st11" d="M441.5,222.9c-1.1,3.6-4.5,5.2-6.9,7.6c-1.7,1.7-3.8,3.1-5.2,5.1c-1.8-0.4-3.7-0.8-5-2.3
		c1.4-2.2,3.6-3.6,5.4-5.4c2.1-2.1,5.1-3.5,6-6.8C437.8,221.1,439.9,221.2,441.5,222.9z"/>
	<path class="st22" d="M435.7,221.2c-0.9,3.3-3.8,4.7-6,6.8c-1.8,1.8-4,3.1-5.4,5.4c-4.6-3.6-4.3-7.7,0.8-10.2
		C428.5,221.6,432,220.8,435.7,221.2z"/>
</g>
<polygon class="st8" points="500,229.2 439.9,263.7 439.9,275.2 500,241.3 "/>
</svg>
