<?xml version="1.0" encoding="utf-8"?>
<!-- Generator: Adobe Illustrator 23.0.1, SVG Export Plug-In . SVG Version: 6.00 Build 0)  -->
<svg version="1.1" id="Layer_1" xmlns="http://www.w3.org/2000/svg" xmlns:xlink="http://www.w3.org/1999/xlink" x="0px" y="0px"
	 viewBox="0 0 595.3 508.7" style="enable-background:new 0 0 595.3 508.7;" xml:space="preserve">
<style type="text/css">
	.st0{fill:#C7AC07;}
	.st1{fill:#AB9214;}
	.st2{fill:#020303;}
	.st3{fill:#FFE24E;}
	.st4{fill:#FFD804;}
	.st5{fill:#D2BC33;}
</style>
<g>
	<path class="st0" d="M459.8,31.6c-0.8,1.5,0.6,1.4,1.3,1.7c11,4.8,15.6,13.7,16.1,25.1c0.6,15-3,29.3-7.7,43.3
		c-8.1,24.1-19.4,46.6-33.9,67.6c-0.1-2.6-0.1-5.2-0.2-7.8c-0.5-22.2,1-44.3-0.9-66.5c2.3-6.4,4.6-12.9,5.8-20.4
		c-4.3,2.4-8.1,4.5-11.8,6.5c-2.7-3.2-5.3-6.4-8.1-9.5c-5.4-6.1-12.4-10.3-19-14.9c13.6-8.2,26.9-16.8,41.3-23.5
		c0.7-0.3,2.1-0.2,1.4-1.7c0.6,0,1.2,0,1.7,0c0,0.2,0,0.6,0.1,0.6c0.4,0.1,0.8,0,0.7-0.6c3.2,0,6.4,0,9.6,0c0.6,0.7,1.2,1.5,1.7,0
		C458.6,31.6,459.2,31.6,459.8,31.6z"/>
	<path class="st1" d="M376.1,417c2.4,15.9-3.8,28.2-16.1,37.8c-14.9,11.6-32.1,17.4-50.4,20.6c-1.1,0.2-3-0.6-3,1.7
		c-1.5,0-2.9,0-4.4,0c-0.5-1-0.8-1-1.7,0c-8.1,0-16.2,0-24.4,0c-0.3-0.2-0.5-0.4-0.8-0.6c0,0.2,0,0.4-0.1,0.6c-1.5,0-2.9,0-4.4,0
		c0.1-2.3-1.8-1.5-2.9-1.8c-10-2-19.5-4.9-28.3-10.2c-13.7-8.3-19-20.3-16.6-35.9c3.3,2.1,3.4,6.7,6.8,8.8c1.4,2,3.2,3.7,5.2,5.1
		c14.7,11.1,31.7,14.6,49.6,14.7c7.3,0.1,14.7,0.5,21.9-0.9c1.8-0.3,3.7-0.5,5.5-0.8c13.7-2.5,26.8-6.5,38.7-14
		c9.4-5.4,17.3-12.3,22.5-22.1C374.1,418.9,374.4,417.4,376.1,417z"/>
	<path class="st2" d="M458,31.6c-0.6,1.5-1.2,0.7-1.7,0C456.9,31.6,457.5,31.6,458,31.6z"/>
	<path class="st2" d="M300.6,477.1c1-1,1.3-1,1.7,0C301.7,477.1,301.1,477.1,300.6,477.1z"/>
	<path class="st2" d="M446.7,31.6c0,0.6-0.3,0.7-0.7,0.6c-0.1,0-0.1-0.4-0.1-0.6C446.1,31.6,446.4,31.6,446.7,31.6z"/>
	<path class="st2" d="M275.3,477.1c0-0.2,0-0.4,0.1-0.6c0.3,0.2,0.5,0.4,0.8,0.6C275.9,477.1,275.6,477.1,275.3,477.1z"/>
	<path class="st3" d="M401.4,56.8c6.6,4.6,13.6,8.8,19,14.9c2.8,3.1,5.4,6.3,8.1,9.5c2,4.6,4,9.2,6,13.8c2,22.1,0.5,44.3,0.9,66.5
		c0.1,2.6,0.1,5.2,0.2,7.8c0,16.7-0.1,33.5-0.1,50.2c0,2-0.1,4-0.1,6.1c-1,1.4-2.1,2.8-2.9,4.3c-8.4,16.2-16.7,32.4-25.2,48.5
		c-7.7,14.7-15.6,29.4-23.3,44.1c-2,3.8-4.7,7.3-5,11.9c0,0,0.1-0.1,0.1-0.1c-0.3,0.3-0.7,0.6-1,0.8c-14.1,10.6-29.7,17.9-46.9,21.8
		c-12,2.8-24.2,4-36.5,4.2c0.6-1.5,1.1-3,1.8-4.4c6.4-12.2,12.7-24.4,19.1-36.6c9.3-17.8,18.7-35.6,28-53.5
		c16.9-32.3,33.8-64.7,50.7-97c0.7-1.3,1.7-2.6,1.7-4.3c-0.6,0.1-0.9,0-1.1,0.2c-16.1,10.3-33.6,17.5-51.9,22.7
		c-1.9,0.5-2.8,1.9-3.6,3.5c-7.6,14.3-15.3,28.6-22.8,43c-12.1,23.1-24,46.3-36,69.4c-3.9,7.6-8.2,15-12.1,22.6
		c-4.7,9.1-9.3,18.3-13.9,27.5c-18.5-5.7-34.7-15.3-49-28.4c8.9-2,15.1-9.4,15-17.7c-0.1-8.4-6.6-15.7-15.6-17.3
		c-5.4-1-10.9-1.6-16.2-2.8c-6.1-1.4-12.9-1.5-16.7-7.7c-1-2.2-2.4-4.3-2.7-6.9c1.7-1.8,2.8-4,3.9-6.2c6-11.5,12.2-22.9,18-34.5
		c3.2-6.4,7-12.5,9.3-19.4c0,0,0,0,0,0c0.3-0.3,0.6-0.7,0.9-1c1.2-2.3,2.3-4.5,3.5-6.8c2.7-4.8,5.2-9.6,8.1-14.3
		c1.9-3.1,1-4.4-2.3-5.5c-12.1-4.2-23-10.7-32.7-19c-9.5-8.2-15.3-18.7-18.1-30.8c-2.2-21.5,7.4-38.1,22.3-52.2
		c19.1-18.1,42.4-28.8,67.2-36.3c23.4-7,47.5-10.3,71.9-9.8C349.2,38.4,376.3,43.5,401.4,56.8z M309.3,56.7
		c-16.3-0.2-35.3,2.8-53.7,9c-19.9,6.6-38.2,16-52.2,32.3c-16.9,19.6-15.3,42.1,4.4,58.9c9,7.7,19.6,12.4,30.7,15.7
		c19.5,5.8,39.5,7.2,59.8,5.3c23.5-2.1,45.9-7.9,66.7-19.3c12.8-7.1,24.2-15.9,32-28.7c10-16.3,7.9-34.1-5.5-47.7
		c-5-5.1-10.9-9.1-17.2-12.4C354.8,59.9,333.9,56.6,309.3,56.7z"/>
	<path class="st4" d="M254.4,354.3c4.6-9.2,9.2-18.4,13.9-27.5c3.9-7.6,8.1-15,12.1-22.6c12-23.1,24-46.3,36-69.4
		c7.5-14.4,15.2-28.7,22.8-43c0.8-1.6,1.7-3,3.6-3.5c18.3-5.2,35.8-12.5,51.9-22.7c0.2-0.1,0.5-0.1,1.1-0.2c0.1,1.7-1,3-1.7,4.3
		c-16.9,32.4-33.8,64.7-50.7,97c-9.3,17.8-18.7,35.7-28,53.5c-6.4,12.2-12.8,24.4-19.1,36.6c-0.7,1.4-1.2,2.9-1.8,4.4
		c-8.1-0.8-16.3-1.6-24.4-2.4C264.9,357.3,259.4,356.5,254.4,354.3z"/>
	<path class="st0" d="M204.8,205.7c-1.2,2.3-2.3,4.5-3.5,6.8c-0.3,0.3-0.6,0.7-0.9,1c0,0,0,0,0,0c-3.1,1.9-6.2,3.7-9.3,5.6
		c-10.2,6.2-21,11.4-30.9,18.2c-4.2,1.4-6,4.8-6.8,8.8c-2.2,11.7,6.1,29.3,16.4,35.2c1.2,0.7,1.8,0.7,1.9-0.8
		c3.9,6.2,10.7,6.3,16.7,7.7c5.3,1.2,10.8,1.8,16.2,2.8c9,1.6,15.4,8.9,15.6,17.3c0.1,8.3-6.1,15.7-15,17.7
		c-22.8-1.8-45.2-5-62.7-21.6c-19.5-18.4-28.6-40.9-23.1-67.8c2.7-13.2,11-23.1,22.6-30.1c5.8-3.5,12-6.3,17.5-10.4
		c0.9-0.4,1.8-0.8,2.7-1.3c6.1-3.3,11.9-7.1,18.2-10c11.3-5.3,24.1,2.9,24.3,15.3C204.9,201.9,204.9,203.8,204.8,205.7z"/>
	<path class="st5" d="M270.1,358.8c8.1,0.8,16.3,1.6,24.4,2.4c12.3-0.2,24.5-1.4,36.5-4.2c-1.4,3.2,2.4,4.3,2.8,6.8
		c-0.5,0.7-1.2,1.3-1.6,2c-5.2,9.7-10.3,19.4-15.4,29.1c-8.7,16.5-17.4,33-26,49.5c-2.2,4.3-5.1,8.4-6,13.4
		c-17.9-0.2-34.9-3.7-49.6-14.7c-2-1.5-3.8-3.1-5.2-5.1c0.2-0.6,0.2-1.2,0.5-1.7c9.2-17.7,18.5-35.4,27.7-53.1
		c1.3-2.5,3.2-4.9,3.2-7.9c0,0,0,0,0,0c0.3-0.3,0.6-0.7,0.9-1C265.3,369.4,269,364.7,270.1,358.8z"/>
	<path class="st4" d="M204.8,205.7c0-1.9,0.1-3.8,0.1-5.6c-0.2-12.4-13-20.6-24.3-15.3c-6.2,2.9-12.1,6.7-18.2,10
		c-0.9,0.5-1.8,0.8-2.7,1.3c0-20,0.1-40,0.1-60c2.8,12.1,8.6,22.6,18.1,30.8c9.7,8.3,20.6,14.9,32.7,19c3.3,1.1,4.2,2.4,2.3,5.5
		C210.1,196.1,207.5,200.9,204.8,205.7z"/>
	<path class="st0" d="M261.4,375.3c0,3.1-1.9,5.4-3.2,7.9c-9.2,17.7-18.5,35.4-27.7,53.1c-0.3,0.5-0.3,1.1-0.5,1.7
		c-3.4-2-3.5-6.7-6.8-8.8c-3.1-17.7,5.2-29.9,18.8-39.7C248.5,384.9,255.8,381.2,261.4,375.3z"/>
	<path class="st0" d="M262.2,374.3c-0.3,0.3-0.6,0.7-0.9,1C261.6,375,261.9,374.6,262.2,374.3z"/>
	<path class="st5" d="M350.9,442.2c-11.9,7.5-25,11.4-38.7,14c-1.8,0.3-3.7,0.5-5.5,0.8c2.6-4.9,5.1-9.7,7.7-14.6
		c8.5-16.1,17.1-32.2,25.5-48.5c3.1-5.9,6.5-11.7,8.6-18c10.4,4.2,19.9,9.6,25.1,20.2c-0.3,1.1-0.4,2.3-0.9,3.3
		c-3.7,7.2-7.6,14.3-11.3,21.5C357.8,428,353.8,434.8,350.9,442.2z"/>
	<path class="st0" d="M348.5,375.9c-2.2,6.3-5.6,12.1-8.6,18c-8.4,16.2-17,32.3-25.5,48.5c-2.6,4.9-5.1,9.7-7.7,14.6
		c-7.3,1.4-14.6,1-21.9,0.9c0.9-4.9,3.8-9,6-13.4c8.6-16.6,17.3-33,26-49.5c5.1-9.7,10.3-19.4,15.4-29.1c0.4-0.7,1-1.3,1.6-2
		C338.2,368.5,343,372.6,348.5,375.9z"/>
	<path class="st4" d="M378.9,334.5c0.3-4.5,3.1-8.1,5-11.9c7.6-14.8,15.6-29.4,23.3-44.1c8.4-16.1,16.8-32.4,25.2-48.5
		c0.8-1.5,1.9-2.9,2.9-4.3c-0.1,27.8-8.5,53.1-24.1,75.9C402.4,314.4,391.9,325.7,378.9,334.5z"/>
	<path class="st0" d="M350.9,442.2c2.9-7.4,6.9-14.3,10.5-21.3c3.7-7.2,7.6-14.3,11.3-21.5c0.5-1,0.6-2.2,0.9-3.3
		c4.1,6.6,2.6,13.8,2.4,20.8c-1.7,0.3-2,1.9-2.7,3.1C368.3,429.9,360.4,436.9,350.9,442.2z"/>
	<path class="st4" d="M378,335.3c0.3-0.3,0.7-0.6,1-0.8C378.6,334.7,378.3,335,378,335.3z"/>
	<path class="st1" d="M309.3,56.7c24.7,0,45.5,3.2,65,13.1c6.4,3.2,12.2,7.3,17.2,12.4c13.4,13.6,15.4,31.4,5.5,47.7
		c-7.8,12.8-19.2,21.6-32,28.7c-20.7,11.5-43.2,17.2-66.7,19.3c-20.3,1.8-40.2,0.4-59.8-5.3c-11.2-3.3-21.8-8-30.7-15.7
		c-19.6-16.8-21.3-39.3-4.4-58.9c14-16.2,32.3-25.6,52.2-32.3C274,59.5,292.9,56.5,309.3,56.7z"/>
	<path class="st4" d="M160.3,237.2c9.9-6.8,20.7-12,30.9-18.2c3.1-1.9,6.2-3.7,9.3-5.6c-2.3,6.9-6,13-9.3,19.4
		c-5.9,11.6-12,23-18,34.5c-1.1,2.2-2.2,4.4-3.9,6.2C164.1,262,161.5,249.8,160.3,237.2z"/>
	<path class="st4" d="M200.5,213.5c0.3-0.3,0.6-0.7,0.9-1C201,212.8,200.8,213.1,200.5,213.5z"/>
</g>
</svg>
