<?xml version="1.0" encoding="utf-8"?>
<!-- Generator: Adobe Illustrator 23.0.1, SVG Export Plug-In . SVG Version: 6.00 Build 0)  -->
<svg version="1.1" id="Layer_1" xmlns="http://www.w3.org/2000/svg" xmlns:xlink="http://www.w3.org/1999/xlink" x="0px" y="0px"
	 viewBox="0 0 595.3 508.7" style="enable-background:new 0 0 595.3 508.7;" xml:space="preserve">
<style type="text/css">
	.st0{fill:#FBE9E8;}
	.st1{fill:#320E26;}
	.st2{fill:#591E46;}
	.st3{fill:#F18975;}
	.st4{fill:#E26857;}
	.st5{fill:#684355;}
	.st6{fill:#84536E;}
	.st7{fill:#F2D2D0;}
	.st8{fill:#D3221B;}
	.st9{fill:#E76E69;}
	.st10{fill:#DC443D;}
	.st11{fill:#DE9391;}
	.st12{fill:#E5A9A6;}
	.st13{fill:#F28D69;}
	.st14{fill:#A25660;}
	.st15{fill:#BB5C39;}
	.st16{fill:#8BA6D6;}
	.st17{fill:#375DA8;}
	.st18{fill:#BEA1AB;}
	.st19{fill:#F2F1F1;}
	.st20{fill:#86C6ED;}
	.st21{fill:#AFB8D0;}
	.st22{fill:#FBBF58;}
	.st23{fill:#F08740;}
</style>
<g>
	<path class="st13" d="M154.3,475.7c-2.6-0.3-4.5-1.8-6.1-3.7c-1.9-2.4-3-5.1-2.9-8.3c0-0.3,0-0.7,0-1c0-116.9,0-233.8,0-350.7
		c0-2.5,0.4-4.9,1.6-7.1c1.6-2.9,3.9-4.8,7-6c1.8-0.7,3.5-0.7,5.3-0.7c18.9,0,37.9,0,56.8,0c0.9,0,1.9-0.1,2.8-0.1
		c0.8,0,1.6,0.1,2.4,0.1c14.5,0,29,0,43.6,0c0.8,0,1.6-0.1,2.4-0.1c0.9,0,1.7,0.1,2.6,0.1c8.8,0,17.6,0,26.4,0c2.7,0,5.5,0,8.2,0.1
		c0,15.6,0,31.3,0,46.9c0,0.9,0,1.7-0.1,2.6c-1.1,0-2.1,0.1-3.2,0.1c-33.6,0-67.3,0-100.9,0c-0.6,0-1.2-0.1-1.8,0
		c-0.3,0.1-0.6,0.4-0.9,0.6c-0.6,0.1-1,0.3-1,1c0,0.6,0,1.2,0,1.8c0.2,34.9,0,69.7,0.2,104.6c0.4,55.8,0.1,111.7,0.1,167.5
		c0,0.7-0.1,1.3,0,2c0.1,0.3,0.4,0.6,0.6,0.9c0.6,1,1.6,0.6,2.3,0.6c33.8,0,67.5,0,101.3,0c1.1,0,2.1,0.2,3.2,0.3
		c0,0.9,0.1,1.7,0.1,2.6c0,14.7,0,29.5,0,44.2c0,0.8,0,1.6,0.1,2.4c0,0.1,0,0.3,0,0.4c-0.1,0-0.3,0-0.4,0c-0.8-0.1-1.7-0.4-2.5-0.4
		c-47.1,0-94.3,0-141.4,0c-0.6,0-1.2,0-1.8,0c-0.4,0-0.9,0-1.1-0.2C156.3,475.4,155.3,475.6,154.3,475.7z"/>
	<path class="st14" d="M304.4,476.8c0-0.1,0-0.3,0-0.4c27.8,0,55.7,0,83.5,0c20.5,0,40.9,0,61.4,0c0.7,0,1.6,0.2,2.2-0.2
		c1.2-0.8,2.4-0.6,3.7-0.6c-0.3,0.4-1.4,0.2-0.8,1.2C404.3,476.8,354.4,476.8,304.4,476.8z"/>
	<path class="st3" d="M154.3,475.7c1-0.1,2-0.3,2.9,0.5c0.3,0.2,0.8,0.2,1.1,0.2c0.6,0,1.2,0,1.8,0c47.1,0,94.3,0,141.4,0
		c0.8,0,1.7,0.3,2.5,0.4c-49.8,0-99.7,0-149.5,0C154.5,476.4,154.4,476.1,154.3,475.7z"/>
	<path class="st15" d="M455.1,475.6c-1.2,0-2.5-0.2-3.7,0.6c-0.5,0.4-1.4,0.2-2.2,0.2c-20.5,0-40.9,0-61.4,0c-27.8,0-55.7,0-83.5,0
		c0-0.8-0.1-1.6-0.1-2.4c0-14.7,0-29.5,0-44.2c0-0.9-0.1-1.7-0.1-2.6c0.9-0.1,1.8-0.3,2.7-0.3c33.7,0,67.5,0,101.2,0
		c3.9,0,3.4-0.8,3.4-3.3c0-90.8,0-181.6,0-272.4c0-0.5,0-0.9,0-1.4c-0.1-1.3-0.5-1.7-1.8-1.8c-0.5,0-1.1,0-1.6,0
		c-33.7,0-67.4,0-101,0c-0.9,0-1.9-0.1-2.8-0.1c0-0.9,0.1-1.7,0.1-2.6c0-15.6,0-31.3,0-46.9c0.9,0,1.7-0.1,2.6-0.1
		c11.2,0,22.4,0,33.6,0c0.7,0,1.5,0.1,2.2,0.1c14.9,0,29.9,0,44.8,0c0.7,0,1.5-0.1,2.2-0.1c1,0,2,0,3,0c19,0,38,0,57,0
		c3.9,0,7.1,1.3,9.7,4.1c1.8,1.9,3,4.1,3.1,6.8c0,1.6,0.1,3.2,0.1,4.8c0,115.7,0,231.4,0,347.1c0,1.5,0,3.1-0.1,4.6
		c-0.3,4.1-2.6,7-5.9,9.2C456.3,475.1,455.7,475.3,455.1,475.6z"/>
	<path class="st16" d="M267.2,98.1c-0.8,0-1.6,0.1-2.4,0.1c-14.5,0-29,0-43.6,0c-0.8,0-1.6-0.1-2.4-0.1c0.3-0.3,0.6-0.7,1-0.9
		c4.2-2.5,8.3-5,12.5-7.6c5.1-3.1,10.2-6.3,15.3-9.5c4.3-2.7,8.7-5.3,13-7.9c5.6-3.4,11.3-6.8,16.9-10.2c6.6-4,13.1-8.1,19.7-12
		c3-1.8,6.3-2.3,9.8-1.9c0.4,0,0.7,0.5,1,0.7c-1.1-0.1-2.2-0.2-3.4-0.3c-0.1,0.5-0.2,0.8-0.2,1.2c0,8.1,0,16.1,0,24.2
		c0,0.6,0.5,1.3,0.7,1.9c-0.9-0.1-1.7-0.2-2.6,0.4c-6.3,4-12.7,7.8-19.1,11.7c-5.3,3.2-10.6,6.4-15.9,9.6
		C267.4,97.6,267.3,97.9,267.2,98.1z"/>
	<path class="st17" d="M305.2,75.9c-0.3-0.6-0.7-1.3-0.7-1.9c-0.1-8.1,0-16.1,0-24.2c0-0.4,0.1-0.8,0.2-1.2c1.2,0.1,2.3,0.2,3.4,0.3
		c1.8-0.1,3.2,1.1,4.6,2c6.4,3.8,12.7,7.6,19.1,11.5c3.8,2.3,7.5,4.8,11.3,7.1c5.5,3.3,11,6.6,16.4,9.9c6.9,4.2,13.7,8.5,20.6,12.7
		c3.2,2,6.4,3.8,9.7,5.7c0.1,0.1,0.1,0.2,0.1,0.4c-0.7,0-1.5,0.1-2.2,0.1c-14.9,0-29.9,0-44.8,0c-0.7,0-1.5-0.1-2.2-0.1
		c-0.4-0.5-0.8-1-1.3-1.3c-5.4-3.3-10.9-6.5-16.3-9.8c-5-3-10-6-14.9-9C307.1,77.4,306.1,76.6,305.2,75.9z"/>
	<path class="st18" d="M304.3,147.8c0.9,0,1.9,0.1,2.8,0.1c33.7,0,67.4,0,101,0c0.5,0,1.1,0,1.6,0c1.4,0.1,1.8,0.5,1.8,1.8
		c0,0.5,0,0.9,0,1.4c0,90.8,0,181.6,0,272.4c0,2.5,0.5,3.4-3.4,3.3c-33.7,0-67.5,0-101.2,0c-0.9,0-1.8,0.2-2.7,0.3
		c-1.1-0.1-2.1-0.3-3.2-0.3c-33.8,0-67.5,0-101.3,0c-0.8,0-1.8,0.4-2.3-0.6l0.1-0.1c0.2,0,0.4,0,0.6,0c34.6,0,69.2,0,103.8,0
		c0.5,0,1-0.1,1.8-0.2c0-0.9,0-1.7,0-2.5c0-8.5,0-17,0.1-25.5c0.2,0,0.4,0,0.6,0c0,0.8,0.1,1.6,0.1,2.4c0,7.8,0,15.7,0,23.5
		c0,0.7,0.1,1.4,0.1,2.1c35.4,0,70.6,0,105.8,0c0.4-2,0.4-275.8-0.1-277.5c-0.7,0-1.5,0-2.3,0c-33.7,0-67.5,0-101.2,0
		c-0.7,0-1.5,0-2.2,0.1c-0.3,0-0.6,0-0.8,0c-0.9,0-1.9-0.1-2.8-0.1c-33.6,0-67.3,0-100.9,0c-0.8,0-1.6,0-2.4,0l-0.1-0.1
		c0.3-0.2,0.6-0.5,0.9-0.6c0.6-0.1,1.2,0,1.8,0c33.6,0,67.3,0,100.9,0C302.1,147.8,303.2,147.8,304.3,147.8z"/>
	<path class="st18" d="M197.4,426.3c-0.2-0.3-0.6-0.6-0.6-0.9c-0.1-0.7,0-1.3,0-2c0-55.8,0.3-111.7-0.1-167.5
		c-0.2-34.9,0-69.7-0.2-104.6c0-0.6,0-1.2,0-1.8c0-0.7,0.5-0.9,1-1c0,0,0.1,0.1,0.1,0.1c0,0.8-0.1,1.6-0.1,2.4
		c0,90.9,0,181.9,0,272.8C197.4,424.6,197.5,425.4,197.4,426.3L197.4,426.3z"/>
	<path class="st19" d="M197.5,426.2c0-0.8-0.1-1.6-0.1-2.4c0-90.9,0-181.9,0-272.8c0-0.8,0.1-1.6,0.1-2.4c0.8,0,1.6,0,2.4,0
		c33.6,0,67.3,0,100.9,0c0.9,0,1.9,0.1,2.8,0.1c0,0.9,0,1.7,0,2.6c0,30.1,0,60.2,0,90.3c0,1,0,2,0,3c-3.7-1.8-7.1-4-11.2-5
		c-2.4-0.6-4.7-1.4-7.2-1.4c-2.4,0-4.8-0.1-7.2,0c-1.2,0.1-2.5,0.3-3.7,0.6c-1.5,0.3-2.9,0.7-4.4,1c-1,0.3-2.1,0.5-3,1
		c-3.4,1.9-7.1,3.3-9.7,6.2c-0.2,0.2-0.4,0.3-0.7,0.4c-3,2-4.7,5.2-7,7.8c0,0-0.1,0.1-0.1,0.2c-1.8,3.4-3.9,6.7-4.6,10.6
		c-0.3,1.9-1.2,3.8-1.3,5.8c-0.2,4-0.5,8,0.5,12c0.9,3.4,1.8,6.7,3.3,9.8c1.8,3.7,4.3,6.8,7,9.8c1.7,2,3.9,3.6,6.1,5
		c1.9,1.3,4,2.5,6.2,3.4c1.7,0.6,3.3,1.1,5,1.6c2.5,0.8,5.1,1.3,7.8,1.4c2.9,0.1,5.9,0.3,8.8-0.6c1.7-0.5,3.5-0.6,5.2-1.1
		c1.2-0.3,2.4-0.7,3.5-1.3c2.3-1.1,4.5-2.3,6.8-3.5c0,15.7,0,31.4,0,47.1c0,0.8,0.1,1.6,0.1,2.4c-0.1,0.5-0.1,1.1-0.3,1.5
		c-2.6,5-5.4,10-7.9,15c-1.6,3.2-3.6,6.3-3.7,10.1c-0.1,3.1,0.6,5.8,2.4,8.3c2.4,3.2,5.8,4.5,9.5,5.2c0,8.5,0,17-0.1,25.5
		c0,0.8,0,1.6,0,2.5c-0.7,0.1-1.2,0.2-1.8,0.2c-34.6,0-69.2,0-103.8,0C197.9,426.2,197.7,426.2,197.5,426.2z M297.7,191.8
		c0-0.3,0-0.5,0-0.8c-0.2-4.5-2.3-7.7-6.2-10.2c-2.1-1.3-4.5-1.7-6.7-2c-4.9-0.6-9.8-1.5-14.8-0.5c-2.9,0.6-5.8,0.7-8.6,1.2
		c-1.6,0.3-3.1,0.9-4.7,1.4c-2,0.6-4.1,1.1-5.9,1.9c-5.7,2.6-11,5.7-15.8,9.7c-5,4.2-9.4,9-12.8,14.7c-1.9,3.1-3.7,6.3-5,9.7
		c-1,2.7-2,5.4-2.9,8.2c-0.5,1.4-0.7,2.9-1,4.4c-0.4,2.7,0.4,5.1,1.6,7.4c2.3,4.3,6.2,6,10.8,6.6c0.3,0,0.6-0.2,0.9-0.3
		c0.4-0.1,0.9-0.3,1.3-0.3c4.1-0.2,6.8-2.8,8.7-6c1.3-2.2,1.8-4.8,2.6-7.3c0.4-1.1,0.6-2.2,1-3.2c2.6-5.5,5.9-10.5,10.8-14.4
		c4.5-3.7,9.5-6.3,15.2-7.7c1-0.2,2-0.6,3.1-0.7c1.7-0.2,3.5-0.3,5.2-0.2c2.8,0.1,5.7,0,8.4,0.6c2.5,0.5,4.8,0.2,6.8-0.7
		C294.7,201.1,297.6,197.3,297.7,191.8z M260.2,365.7C260.2,365.7,260.2,365.7,260.2,365.7c0-7,0-14.1,0-21.1c0-0.7,0-1.4-0.3-2
		c-1.4-3.6-3.7-6.4-7.4-8c-3.2-1.4-6.4-1.5-9.5-0.1c-5.3,2.4-8.1,6.7-8.1,12.6c0,12.3,0,24.6,0,37c0,2.5,0.5,4.9,1.7,7
		c2,3.7,5.3,5.9,9.3,6.7c3.4,0.6,6.6-0.4,9.4-2.5c3-2.3,4.9-5.3,4.9-9.3C260.1,379.3,260.2,372.5,260.2,365.7z"/>
	<path class="st20" d="M304.5,148.6c0.7,0,1.5-0.1,2.2-0.1c33.7,0,67.5,0,101.2,0c0.8,0,1.6,0,2.3,0c0.5,1.7,0.5,275.5,0.1,277.5
		c-35.2,0-70.4,0-105.8,0c0-0.7-0.1-1.4-0.1-2.1c0-7.8,0-15.7,0-23.5c0-0.8,0-1.6-0.1-2.4c0.9,0,1.7,0,2.6,0c19.6,0,39.1,0,58.7,0
		c2.8,0,5.5-0.7,7.9-2.2c2.7-1.8,4.7-4.3,5.5-7.4c0.5-2,0.5-4.1,0.5-6.2c0-17.6,0-35.2,0-52.8c0-20.7,0-41.4-0.1-62.1
		c0-2.4-0.4-4.8-1.2-7c-1.5-4.3-4.9-6.7-9.3-7.8c-2.8-0.7-5.2,0.1-7.6,1.2c-2.6,1.1-4.4,3.3-5.7,5.7c-3.1,5.6-5.8,11.4-8.8,17
		c-2.7,5.1-5.4,10.2-8.1,15.3c-1.5,2.9-2.9,5.9-4.4,8.9c-1.9,3.6-3.8,7-5.7,10.6c-1.6,3-3.1,6-4.6,9c-2,3.7-4,7.4-5.9,11.2
		c-1.9,3.7-3.8,7.4-5.7,11.1c-2.4,4.5-4.7,9-7.1,13.5c-0.2,0.3-0.5,0.5-0.8,0.8c0-0.9,0-1.9,0-2.8c0-15.3,0-30.6,0-45.9
		c0-0.1,0-0.3,0-0.4c0.8-0.6,1.5-1.2,2.3-1.7c3-2,5-4.9,7-7.7c1.9-2.7,3.2-5.6,4.4-8.7c1-2.7,1.9-5.4,2.1-8.2
		c0.4-5.2,0.4-10.5-1.3-15.6c-1.1-3.3-2.5-6.4-4.2-9.4c-0.9-1.6-2.2-2.9-3.2-4.4c-1.8-2.7-4.3-4.8-7.1-6.5c0-0.1,0-0.3,0-0.4
		c0-31.2,0-62.5,0-93.7C304.4,150.3,304.4,149.5,304.5,148.6z M348.7,229.7C348.7,229.7,348.7,229.7,348.7,229.7
		c6.2,0,12.5,0,18.7,0c1.4,0,2.7-0.1,4-0.7c3-1.3,5.2-3.3,6.7-6.2c1.2-2.2,1.1-4.6,1-7c-0.1-2.4-1.1-4.4-2.5-6.2
		c-2.7-3.5-6.4-4.8-10.7-4.9c-11.4,0-22.9,0-34.3,0c-1.7,0-3.4,0.1-4.9,0.7c-8,3.1-10.6,11.9-6.5,18.5c2.2,3.5,5.4,5.7,9.8,5.8
		C336.2,229.7,342.4,229.7,348.7,229.7z"/>
	<path class="st16" d="M304.4,356.7c0.3-0.3,0.6-0.5,0.8-0.8c2.4-4.5,4.7-9,7.1-13.5c1.9-3.7,3.8-7.4,5.7-11.1c2-3.7,4-7.4,5.9-11.2
		c1.6-3,3.1-6,4.6-9c1.9-3.5,3.8-7,5.7-10.6c1.5-2.9,2.9-5.9,4.4-8.9c2.7-5.1,5.4-10.2,8.1-15.3c2.9-5.7,5.7-11.4,8.8-17
		c1.3-2.4,3.1-4.5,5.7-5.7c2.4-1,4.8-1.8,7.6-1.2c4.5,1.1,7.8,3.5,9.3,7.8c0.8,2.2,1.2,4.7,1.2,7c0.1,20.7,0.1,41.4,0.1,62.1
		c0,17.6,0,35.2,0,52.8c0,2.1,0,4.2-0.5,6.2c-0.8,3.1-2.7,5.6-5.5,7.4c-2.4,1.5-5.1,2.2-7.9,2.2c-19.6,0-39.1,0-58.7,0
		c-0.9,0-1.7,0-2.6,0c-0.2,0-0.4,0-0.6,0c-3.8-0.6-7.1-2-9.5-5.2c-1.9-2.5-2.5-5.2-2.4-8.3c0.1-3.8,2.1-6.9,3.7-10.1
		c2.6-5.1,5.3-10,7.9-15c0.2-0.5,0.2-1,0.3-1.5C304.4,357.8,304.4,357.3,304.4,356.7z"/>
	<path class="st21" d="M304.5,148.6c0,0.9,0,1.7,0,2.6c0,31.2,0,62.5,0,93.7c-0.3-0.2-0.6-0.3-0.8-0.5c0-1,0-2,0-3
		c0-30.1,0-60.2,0-90.3c0-0.9,0-1.7,0-2.6C303.9,148.6,304.2,148.6,304.5,148.6z"/>
	<path class="st22" d="M303.6,244.5c0.3,0.2,0.6,0.3,0.8,0.5c0,0.1,0,0.3,0,0.4c0,20.7,0,41.4,0,62.2c0,0.1,0,0.3,0,0.4
		c-0.3,0.2-0.5,0.3-0.8,0.5c-2.3,1.2-4.5,2.4-6.8,3.5c-1.1,0.5-2.3,1-3.5,1.3c-1.7,0.4-3.5,0.6-5.2,1.1c-2.9,0.9-5.8,0.7-8.8,0.6
		c-2.6-0.1-5.2-0.6-7.8-1.4c-1.7-0.5-3.4-1-5-1.6c-2.2-0.9-4.3-2.1-6.2-3.4c-2.2-1.5-4.4-3.1-6.1-5c-2.7-3-5.2-6.1-7-9.8
		c-1.5-3.2-2.4-6.5-3.3-9.8c-1-4-0.7-8-0.5-12c0.1-1.9,1-3.8,1.3-5.8c0.7-3.9,2.8-7.2,4.6-10.6c0-0.1,0-0.1,0.1-0.2
		c2.3-2.6,4-5.8,7-7.8c0.2-0.2,0.5-0.3,0.7-0.4c2.7-3,6.4-4.4,9.7-6.2c0.9-0.5,2-0.7,3-1c1.5-0.4,2.9-0.7,4.4-1
		c1.2-0.3,2.5-0.6,3.7-0.6c2.4-0.1,4.8-0.1,7.2,0c2.5,0,4.8,0.8,7.2,1.4C296.4,240.4,299.9,242.7,303.6,244.5z"/>
	<path class="st13" d="M297.7,191.8c-0.1,5.6-3,9.3-7.8,11.5c-2,0.9-4.4,1.2-6.8,0.7c-2.7-0.6-5.6-0.5-8.4-0.6
		c-1.7-0.1-3.5,0-5.2,0.2c-1,0.1-2.1,0.5-3.1,0.7c-5.7,1.3-10.7,4-15.2,7.7c-4.8,3.9-8.2,8.9-10.8,14.4c-0.5,1-0.7,2.1-1,3.2
		c-0.8,2.4-1.3,5.1-2.6,7.3c-1.9,3.2-4.5,5.8-8.7,6c-0.5,0-0.9,0.2-1.3,0.3c-0.3,0.1-0.6,0.3-0.9,0.3c-4.6-0.6-8.5-2.3-10.8-6.6
		c-1.2-2.3-2-4.8-1.6-7.4c0.2-1.5,0.5-3,1-4.4c0.9-2.8,1.9-5.5,2.9-8.2c1.3-3.4,3.1-6.6,5-9.7c3.4-5.7,7.9-10.4,12.8-14.7
		c4.7-4,10.1-7.1,15.8-9.7c1.9-0.9,4-1.3,5.9-1.9c1.6-0.5,3.1-1.2,4.7-1.4c2.9-0.5,5.8-0.7,8.6-1.2c5-1,9.9,0,14.8,0.5
		c2.2,0.3,4.6,0.7,6.7,2c3.9,2.4,6,5.7,6.2,10.2C297.7,191.2,297.7,191.5,297.7,191.8z"/>
	<path class="st16" d="M260.2,365.7c0,6.8,0,13.5,0,20.3c0,4-1.9,7-4.9,9.3c-2.7,2.1-5.9,3.2-9.4,2.5c-4.1-0.8-7.3-3-9.3-6.7
		c-1.2-2.2-1.7-4.5-1.7-7c0.1-12.3,0-24.6,0-37c0-5.9,2.8-10.2,8.1-12.6c3.1-1.4,6.3-1.3,9.5,0.1c3.7,1.6,6,4.3,7.4,8
		c0.2,0.6,0.2,1.3,0.3,2C260.2,351.7,260.1,358.7,260.2,365.7C260.2,365.7,260.2,365.7,260.2,365.7z"/>
	<path class="st21" d="M303.6,308.5c0.3-0.2,0.5-0.3,0.8-0.5c0,15.3,0,30.6,0,45.9c0,0.9,0,1.9,0,2.8c0,0.5,0,1.1-0.7,1.2
		c0-0.8-0.1-1.6-0.1-2.4C303.6,339.9,303.6,324.2,303.6,308.5z"/>
	<path class="st17" d="M348.7,229.7c-6.2,0-12.5,0-18.7,0c-4.4,0-7.6-2.2-9.8-5.8c-4.1-6.5-1.5-15.4,6.5-18.5
		c1.5-0.6,3.3-0.7,4.9-0.7c11.4-0.1,22.9,0,34.3,0c4.3,0,8,1.4,10.7,4.9c1.4,1.8,2.4,3.8,2.5,6.2c0.1,2.4,0.2,4.8-1,7
		c-1.5,2.8-3.7,4.9-6.7,6.2c-1.4,0.6-2.7,0.7-4,0.7C361.1,229.7,354.9,229.7,348.7,229.7C348.7,229.7,348.7,229.7,348.7,229.7z"/>
	<path class="st23" d="M304.4,307.6c0-20.7,0-41.4,0-62.2c2.8,1.7,5.2,3.7,7.1,6.5c1,1.5,2.3,2.8,3.2,4.4c1.7,3,3,6.2,4.2,9.4
		c1.8,5.1,1.8,10.4,1.3,15.6c-0.2,2.8-1.1,5.5-2.1,8.2c-1.2,3.1-2.5,6-4.4,8.7c-2,2.8-4,5.7-7,7.7
		C305.9,306.4,305.2,307,304.4,307.6z"/>
</g>
</svg>
