<svg width="25" height="24" viewBox="0 0 25 24" fill="none" xmlns="http://www.w3.org/2000/svg">
<g clip-path="url(#clip0_2_2723)">
<path d="M24.3302 12.0735C24.3302 5.40454 18.9571 -0.00146484 12.3301 -0.00146484C5.70015 3.51563e-05 0.327148 5.40454 0.327148 12.075C0.327148 18.1005 4.71615 23.0955 10.4521 24.0015V15.564H7.40715V12.075H10.4551V9.41253C10.4551 6.38704 12.2476 4.71603 14.9881 4.71603C16.3021 4.71603 17.6746 4.95154 17.6746 4.95154V7.92154H16.1611C14.6716 7.92154 14.2066 8.85303 14.2066 9.80853V12.0735H17.5336L17.0026 15.5625H14.2051V24C19.9411 23.094 24.3302 18.099 24.3302 12.0735Z" fill="#380D00"/>
</g>
<defs>
<clipPath id="clip0_2_2723">
<rect width="24" height="24" fill="white" transform="translate(0.330078)"/>
</clipPath>
</defs>
</svg>
