<?xml version="1.0" encoding="utf-8"?>
<!-- Generator: Adobe Illustrator 23.0.1, SVG Export Plug-In . SVG Version: 6.00 Build 0)  -->
<svg version="1.1" id="Layer_1" xmlns="http://www.w3.org/2000/svg" xmlns:xlink="http://www.w3.org/1999/xlink" x="0px" y="0px"
	 viewBox="0 0 595.3 508.7" style="enable-background:new 0 0 595.3 508.7;" xml:space="preserve">
<style type="text/css">
	.st0{fill:#FBDACF;}
	.st1{fill:#D9754F;}
	.st2{fill:#3B4193;}
	.st3{fill:#FEF6F4;}
	.st4{fill:#F5AB95;}
	.st5{fill:#FAB82B;}
	.st6{fill:#FAB72D;}
	.st7{fill:#BDD144;}
	.st8{fill:#E94C4B;}
	.st9{fill:#E9524B;}
	.st10{fill:#EEF7F8;}
</style>
<path class="st0" d="M489.2,121c0,14.1,0,28.2,0,42.2c-3.4,2.1-6.7,4.3-10.1,6.4c-19.3,12-36.4,26.5-51,43.9
	c-15.2,18.1-27.3,38.2-36.8,59.9c-3,6.7-5.6,13.6-8.4,20.4c-1.9-0.8-3.9-1.4-5.8-2.3c-4.6-2.1-9.5-3-14.4-3.4
	c-11.5-1-22.2,1.5-32,7.8c-7.1,4.6-13,10.4-16.2,18.4c-2.1,5.2-3.5,10.7-3.8,16.3c-0.4,6.7-0.5,13.4-0.7,20.1
	c-0.1,4.5-0.1,9-0.2,13.4c-0.1,5.9-0.8,11.8-2.3,17.5c-1.6,6.3-4.5,12-9,16.7l-0.2,0c-0.1-2.1-0.3-4.1-0.3-6.2
	c0-77.9,0-155.8,0-233.7c9.4-12.5,18.8-25,28.4-37.7c1.8,0,3.5-0.1,5.3-0.1c50.7,0,101.4,0,152.1,0
	C485.7,120.8,487.4,120.9,489.2,121z"/>
<path class="st0" d="M298.4,398.4c0,0,0.2,0,0.2,0c0.7,1.5,2.2,1.8,3.5,2.3c5.7,2.2,11.6,3.6,17.6,4.2c16,1.6,31.1-1.3,45.5-8.5
	c11.7-5.9,22-13.6,30.7-23.3c12.1-13.5,16.2-29.4,11.6-47.1c-0.9-3.5-2.4-6.9-3.6-10.3c6.9-2.8,14-5.4,20.8-8.3
	c17.1-7.4,33.3-16.6,48.4-27.8c5.5-4.1,10.7-8.4,16.1-12.7c0,59.8,0,119.7,0,179.5c-61.1,0-122.2,0-183.3,0c-2.6,0-5.1,0-7.7,0
	c0-15.2-0.1-30.4-0.1-45.6C298.1,400,298.3,399.2,298.4,398.4z"/>
<path class="st1" d="M489.2,121c-1.8-0.1-3.5-0.2-5.3-0.2c-50.7,0-101.4,0-152.1,0c-1.7,0-3.5,0.1-5.3,0.1
	c-9.5,12.7-19,25.2-28.4,37.7c0-0.2,0-0.4,0.1-0.5c0-0.8-0.1-1.6-0.1-2.4c0-31,0-62.1,0-93.1c1.6-0.1,3.2-0.2,4.8-0.2
	c60.6,0,121.3,0,181.9,0c1.4,0,2.9,0.1,4.3,0.1C489.2,81.9,489.2,101.5,489.2,121z"/>
<path class="st2" d="M489.2,266.9c-5.4,4.2-10.6,8.6-16.1,12.7c-15,11.1-31.2,20.3-48.4,27.8c-6.9,3-13.9,5.6-20.8,8.3
	c-0.5-0.8-1.1-1.6-1.6-2.4c-4.4-7.4-10.2-13.4-17.6-17.9c-0.7-0.4-1.2-1-1.8-1.5c2.8-6.8,5.4-13.7,8.4-20.4
	c9.5-21.6,21.6-41.7,36.8-59.9c14.6-17.4,31.8-31.9,51-43.9c3.4-2.1,6.7-4.3,10.1-6.4C489.2,197.8,489.2,232.3,489.2,266.9z"/>
<path class="st3" d="M298.4,398.4c-0.1,0.8-0.3,1.6-0.3,2.4c0,15.2,0,30.4,0.1,45.6c-1.6,0-3.2,0-4.8,0c-60.3,0-120.6,0-180.9,0
	c-1.9,0-3.8,0.2-5.9-0.4c-0.2-0.9-0.4-1.8-0.5-2.7c-0.1-1,0-1.9,0-2.9c0-92.6,0-185.2,0-277.8c0-1.4,0-2.9,0.1-4.3
	c1.1,0.1,2.2,0.2,3.3,0.2c61.5,0,123,0,184.5,0c1.4,0,2.8-0.3,4.2-0.4c-0.1,0.2-0.1,0.3-0.1,0.5c0,77.9,0,155.8,0,233.7
	C298.1,394.3,298.3,396.3,298.4,398.4z M229.6,333.8c0.1-1.4,0.2-2.9,0.2-4.3c0-19.1,0-38.3,0-57.4c0-1.4-0.2-2.9-0.2-4.3
	c0.1-0.6,0.2-1.3,0.2-1.9c0-20.6,0-41.3,0-61.9c0-0.6-0.2-1.2-0.4-2c-1.2-0.1-2.3-0.2-3.4-0.2c-4.6,0-9.3,0-13.9,0
	c-14.6,0-29.1,0-43.7,0c-1.5,0-3.2-0.5-4.7,1c0,0.9,0,2.1,0,3.2c0,19.4,0,38.7,0,58.1c0,1.3,0.2,2.5,0.2,3.8
	c-0.1,1.3-0.2,2.5-0.2,3.8c0,19.5,0,38.9,0,58.4c0,1.3,0.2,2.5,0.2,3.8c-0.1,0.5-0.2,0.9-0.2,1.4c0,20.6,0,41.2,0,61.8
	c0,0.7,0.3,1.5,0.5,2.2c0.8,0.1,1.5,0.2,2.1,0.3c20.3,0,40.6,0,60.9,0c0.7,0,1.5-0.2,2.4-0.4c0.1-1.7,0.2-3.1,0.2-4.5
	c0-18.9,0-37.7,0-56.6C229.9,336.6,229.7,335.2,229.6,333.8z"/>
<path class="st4" d="M298.2,158c-1.4,0.2-2.8,0.4-4.2,0.4c-61.5,0-123,0-184.5,0c-1.1,0-2.2-0.1-3.3-0.2c0-26.1,0-52.1-0.1-78.2
	c0-4.5,0-9,0-13.4c0-1.3,0.1-2.5,0.2-4c1.1-0.1,2-0.3,2.9-0.4c1.1-0.1,2.2,0,3.4,0c60.1,0,120.2,0,180.3,0c1.8,0,3.5,0.1,5.3,0.2
	c0,31,0,62.1,0,93.1C298.1,156.4,298.2,157.2,298.2,158z M164.9,97.9c-3.8,0-7.5-0.1-11.1,0c-3.6,0.1-7.2-0.6-10.7,0.6
	c-0.6,5.5-0.5,18.3,0.2,21.8c0.5,0.1,1.1,0.4,1.7,0.4c6.2,0,12.4,0,18.7-0.1c0.4,0,0.9-0.4,1.2-0.5
	C165.6,116.3,165.7,102.9,164.9,97.9z M235.5,119.9c0.5,0.2,1.1,0.5,1.7,0.5c6.2,0,12.4,0,18.6,0c0.4,0,0.9-0.3,1.3-0.5
	c0.1-0.5,0.4-0.9,0.4-1.4c0-6.2,0-12.4,0-18.6c0-0.6-0.4-1.1-0.6-1.6c-6.1-0.7-18.3-0.5-21.5,0.3
	C234.7,102.4,234.7,115.9,235.5,119.9z M211,120c0.8-3.8,0.4-7.5,0.4-11.1c0-3.6,0.7-7.2-0.6-10.7c-6.4-0.7-18.3-0.5-21.5,0.3
	c-0.7,3.9-0.7,17.5,0,21.2C192.5,120.7,205.3,120.8,211,120z"/>
<path class="st5" d="M382.9,293.8c0.6,0.5,1.2,1.1,1.8,1.5c7.4,4.5,13.2,10.5,17.6,17.9c0.5,0.8,1,1.6,1.6,2.4
	c1.2,3.4,2.7,6.8,3.6,10.3c4.6,17.8,0.5,33.6-11.6,47.1c-8.7,9.7-19,17.4-30.7,23.3c-14.3,7.2-29.5,10.1-45.5,8.5
	c-6-0.6-12-2-17.6-4.2c-1.3-0.5-2.8-0.8-3.5-2.3c4.5-4.8,7.3-10.4,9-16.7c1.5-5.8,2.3-11.6,2.3-17.5c0.1-4.5,0.1-9,0.2-13.4
	c0.2-6.7,0.4-13.4,0.7-20.1c0.3-5.6,1.7-11.1,3.8-16.3c3.2-8,9-13.8,16.2-18.4c9.8-6.3,20.5-8.8,32-7.8c4.9,0.4,9.8,1.4,14.4,3.4
	C379,292.4,381,293.1,382.9,293.8z"/>
<path class="st6" d="M164,267.8c-0.1-1.3-0.2-2.5-0.2-3.8c0-19.4,0-38.7,0-58.1c0-1.1,0-2.2,0-3.2c1.5-1.5,3.2-1,4.7-1
	c14.6,0,29.1,0,43.7,0c4.6,0,9.3,0,13.9,0c1.1,0,2.2,0.1,3.4,0.2c0.2,0.8,0.4,1.4,0.4,2c0,20.6,0,41.3,0,61.9c0,0.6-0.1,1.3-0.2,1.9
	C207.8,267.8,185.9,267.8,164,267.8z"/>
<path class="st7" d="M164,267.8c21.9,0,43.7,0,65.6,0c0.1,1.4,0.2,2.9,0.2,4.3c0,19.1,0,38.3,0,57.4c0,1.4-0.2,2.9-0.2,4.3
	c-21.9,0-43.7,0-65.6,0c-0.1-1.3-0.2-2.5-0.2-3.8c0-19.5,0-38.9,0-58.4C163.8,270.3,164,269,164,267.8z"/>
<path class="st8" d="M164,333.8c21.9,0,43.7,0,65.6,0c0.1,1.4,0.2,2.9,0.2,4.3c0,18.9,0,37.7,0,56.6c0,1.4-0.1,2.8-0.2,4.5
	c-0.9,0.2-1.7,0.4-2.4,0.4c-20.3,0-40.6,0-60.9,0c-0.6,0-1.3-0.1-2.1-0.3c-0.2-0.8-0.5-1.5-0.5-2.2c0-20.6,0-41.2,0-61.8
	C163.9,334.7,164,334.2,164,333.8z"/>
<path class="st9" d="M164.9,97.9c0.8,5.1,0.7,18.4,0,22.1c-0.4,0.2-0.8,0.5-1.2,0.5c-6.2,0.1-12.4,0.1-18.7,0.1
	c-0.6,0-1.2-0.3-1.7-0.4c-0.7-3.5-0.9-16.3-0.2-21.8c3.5-1.2,7.1-0.4,10.7-0.6C157.4,97.7,161,97.9,164.9,97.9z"/>
<path class="st10" d="M235.5,119.9c-0.7-4-0.7-17.6,0-21.4c3.2-0.8,15.3-0.9,21.5-0.3c0.2,0.5,0.6,1,0.6,1.6c0,6.2,0,12.4,0,18.6
	c0,0.4-0.3,0.9-0.4,1.4c-0.5,0.2-0.9,0.5-1.3,0.5c-6.2,0.1-12.4,0.1-18.6,0C236.6,120.4,236,120.1,235.5,119.9z"/>
<path class="st10" d="M211,120c-5.7,0.8-18.5,0.7-21.7-0.2c-0.7-3.8-0.7-17.3,0-21.2c3.2-0.8,15.1-1,21.5-0.3
	c1.2,3.4,0.5,7.1,0.6,10.7C211.4,112.5,211.8,116.2,211,120z"/>
</svg>
