<?xml version="1.0" encoding="utf-8"?>
<!-- Generator: Adobe Illustrator 23.0.1, SVG Export Plug-In . SVG Version: 6.00 Build 0)  -->
<svg version="1.1" id="Layer_1" xmlns="http://www.w3.org/2000/svg" xmlns:xlink="http://www.w3.org/1999/xlink" x="0px" y="0px"
	 viewBox="0 0 595.3 508.7" style="enable-background:new 0 0 595.3 508.7;" xml:space="preserve">
<style type="text/css">
	.st0{fill:#564E57;}
	.st1{fill:#2A2A2A;}
	.st2{fill:#7C8287;}
	.st3{fill:#FBDACF;}
	.st4{fill:#F4EBE9;}
	.st5{fill:#769FA6;}
	.st6{fill:#D9EFF9;}
	.st7{fill:#EA6A44;}
	.st8{fill:#BB5C39;}
	.st9{fill:#E8F5F8;}
	.st10{fill:#F2BB91;}
	.st11{fill:#A6DBF8;}
</style>
<path class="st0" d="M296.4,389.9c-1.8-1.2-3.9-0.7-5.8-0.7c-64.4,0-128.9,0-193.3,0c-2,0-4-0.1-5.9-0.2c0-106,0-212.1,0-318.1
	c2.1,0.1,4.2,0.2,6.4,0.2c70.4,0,140.8,0,211.2,0.1c0.1,8.4,0.1,16.8,0.2,25.2c-1.7,0-3.4,0.1-5.1,0.1c-60.7,0-121.5,0-182.2,0
	c-1.6,0-3.4-0.8-4.7,0.7c-0.1,1.6-0.2,3.1-0.2,4.7c0,85.8,0,171.5,0,257.3c0,1.4,0.1,2.8,0.1,4.2c1.5,1.7,3.4,0.9,5.1,0.9
	c62.3,0.1,124.6,0.1,187,0.1c0,8.4,0.1,16.9,0.1,25.3C305,389.8,300.7,389.9,296.4,389.9z"/>
<path class="st1" d="M309.2,389.8c0-8.4-0.1-16.9-0.1-25.3c1.4,0,2.8-0.1,4.2-0.1c61,0,122,0,183.1,0c1.6,0,3.4,0.7,4.8-0.7
	c0.1-1.4,0.2-2.8,0.2-4.2c0-86,0-172,0.1-258c0-4-1.1-4.8-4.9-4.8c-60.9,0.1-121.9,0.1-182.8,0.1c-1.6,0-3.1-0.1-4.7-0.2
	c-0.1-8.4-0.1-16.8-0.2-25.2c2.1-0.1,4.2-0.2,6.4-0.2c70.5,0,141.1,0,211.6,0c0,106,0,212.1,0,318.1c-66.3,0-132.5,0-198.8,0.1
	c-2.1,0-4.3-0.5-6.2,0.8C317.7,389.9,313.5,389.9,309.2,389.8L309.2,389.8z"/>
<path class="st1" d="M321.8,424.8c52.4,0,104.8,0,157.3,0c6.2,0,6.2,0,6.2,6.4c0,4,0,7.9,0,11.9c0,7.2,0,7.2-7,7.2
	c-40,0-79.9,0-119.9,0c-14.7,0-29.5,0-44.2,0c-1.7,0-3.4,0.3-5-0.6c0-8.3-0.1-16.6-0.1-24.9l0,0
	C313.3,424.7,317.5,424.7,321.8,424.8z"/>
<path class="st0" d="M309,424.7c0,8.3,0.1,16.6,0.1,24.9c-58.4,0-116.8,0-175.1,0.1c-3.6,0-4.7-1.3-4.5-4.7c0.2-4.9,0.3-9.9,0-14.9
	c-0.3-4.2,0.9-5.6,5.4-5.6c18,0.3,36,0.1,54,0.1c35.8,0,71.7,0,107.5,0.1C300.6,424.8,304.8,424.7,309,424.7z"/>
<path class="st2" d="M309,424.7c-4.2,0-8.4,0.1-12.7,0.1c0-11.6,0-23.2,0-34.9c4.3,0,8.6-0.1,12.8-0.1c0,0,0,0,0,0
	C309.2,401.4,309.1,413.1,309,424.7L309,424.7z"/>
<path class="st0" d="M309.1,424.7c0.1-11.6,0.1-23.2,0.2-34.9c4.2,0,8.4,0.1,12.6,0.1c0,11.6-0.1,23.2-0.1,34.8
	C317.5,424.7,313.3,424.7,309.1,424.7z"/>
<path class="st3" d="M309.1,96.4c1.6,0.1,3.1,0.2,4.7,0.2c60.9,0,121.9,0,182.8-0.1c3.8,0,4.9,0.8,4.9,4.8c-0.1,86-0.1,172-0.1,258
	c0,1.4-0.1,2.8-0.2,4.2c-61.8,0-123.5,0-185.3-0.1c-2.3,0-4.5-0.1-6.8-0.1c0.1-27.3,0.1-54.7,0.2-82c1.8-0.1,3.7-0.2,5.5-0.2
	c24.8,0,49.5-0.1,74.3,0.1c4.2,0,5.3-1.3,5.2-5.3c-0.2-15.7-0.1-31.4-0.1-47.1c0-6.8-0.2-13.6-0.3-20.4c-0.8-1.3-1.4-2.7-2.3-4
	c-10.2-14.7-20.5-29.4-30.6-44.1c-1.7-2.6-3.6-3.4-6.6-3.4c-15.1,0.1-30.2-0.1-45.3-0.1c0-17.7,0-35.4,0.1-53.2c0-6.3,0-6.3-6.2-6.3
	c-61.9,0-123.9,0-185.8,0c1.4-1.5,3.2-0.7,4.7-0.7c60.7,0,121.5,0,182.2,0C305.7,96.5,307.4,96.4,309.1,96.4z M448.3,335.5
	c6.5,0,13-0.1,19.6,0.1c2.7,0.1,3.7-0.7,3.7-3.5c-0.1-12.9-0.1-25.8,0-38.7c0-2.9-1.1-3.6-3.8-3.6c-6.1,0.1-12.2,0.2-18.3,0
	c-2.9-0.1-3.6,1.1-3.5,3.8c0.2,4.5,0,9.1,0.1,13.6c0.1,2.2-0.8,3-3,2.9c-4.8-0.1-9.6,0.1-14.5-0.1c-2.7-0.1-3.8,0.6-3.8,3.5
	c0.2,6.2,0.2,12.5,0,18.7c-0.1,2.6,0.9,3.4,3.4,3.4C435,335.4,441.7,335.5,448.3,335.5z M448.4,124.4c-6.7,0-13.3,0.1-20,0
	c-2.5,0-3.6,0.6-3.5,3.3c0.2,6.2,0.2,12.5,0,18.7c-0.1,2.9,1,3.7,3.7,3.6c4.7-0.2,9.3,0.1,14-0.1c2.5-0.1,3.6,0.7,3.5,3.3
	c-0.2,4.4,0.1,8.8-0.1,13.2c-0.1,2.5,0.6,3.6,3.3,3.5c6.2-0.1,12.5-0.1,18.7,0c2.4,0,3.6-0.6,3.6-3.3c-0.1-13-0.1-26,0-39.1
	c0-2.5-0.9-3.2-3.3-3.1C461.7,124.5,455,124.4,448.4,124.4z"/>
<path class="st4" d="M117.1,97.3c61.9,0,123.9,0,185.8,0c6.2,0,6.2,0,6.2,6.3c0,17.7,0,35.4-0.1,53.2c-0.3,0.1-0.6,0.2-0.8,0.3
	c-13.9-0.1-27.8-0.1-41.8-0.1c-0.5,0-1,0.4-1.5,0.6c-0.8,0.7-1.8,1.4-2.5,2.3c-12.3,15.3-24.5,30.7-36.7,46.1
	c-1.3,1.6-1.7,3.5-1.7,5.5c0,21.8,0.1,43.6,0,65.4c0,3.4,1.2,4.3,4.5,4.3c26.6-0.1,53.2-0.1,79.8-0.1c0.3,0.1,0.6,0.2,1,0.3
	c-0.1,27.3-0.1,54.7-0.2,82c-1.8,0.1-3.7,0.2-5.5,0.2c-29,0-58.1,0-87.1,0c-33.1,0-66.3-0.1-99.4-0.1c0-1.4-0.1-2.8-0.1-4.2
	c0-85.8,0-171.5,0-257.3C116.9,100.4,117,98.8,117.1,97.3z M145,335.5c1.1,0.9,2.4,0.8,3.6,0.8c12.9,0,25.8,0,38.7,0
	c1.3,0,2.6,0,3.6-1c0-6.9-0.2-13.9,0.1-20.8c0.1-3.4-0.7-4.9-4.4-4.6c-4.1,0.3-8.2-0.1-12.3,0.1c-2.9,0.1-4.1-0.8-3.9-3.8
	c0.2-4.4,0-8.8,0.1-13.2c0.1-2.3-0.8-3.4-3.2-3.3c-6.4,0.1-12.8,0.1-19.1,0c-2.4,0-3.3,0.8-3.3,3.2
	C144.9,307.1,144.9,321.3,145,335.5z M144.8,147.2c0,6.4,0.1,12.7,0,19.1c0,2.4,0.6,3.7,3.3,3.6c6.4-0.1,12.7-0.1,19.1,0
	c2.4,0,3.2-1,3.2-3.3c-0.1-4.1,0.1-8.2-0.1-12.3c-0.2-3.2,0.7-4.6,4.2-4.4c4.4,0.3,8.8,0,13.2,0.1c2.3,0.1,3.3-0.7,3.3-3.1
	c-0.1-6.4-0.1-12.7,0-19.1c0.1-2.7-1-3.4-3.5-3.3c-13,0.1-26,0.1-39.1,0c-2.8,0-3.7,1-3.6,3.7C144.9,134.4,144.8,140.8,144.8,147.2z
	"/>
<path class="st5" d="M117,363.4c33.1,0,66.3,0.1,99.4,0.1c29,0,58.1,0,87.1,0c1.8,0,3.7-0.1,5.5-0.2c2.3,0,4.5,0.1,6.8,0.1
	c61.8,0,123.5,0,185.3,0.1c-1.4,1.5-3.2,0.7-4.8,0.7c-61,0-122,0-183.1,0c-1.4,0-2.8,0.1-4.2,0.1c-62.3,0-124.6,0-187-0.1
	C120.5,364.4,118.5,365.2,117,363.4z"/>
<path class="st6" d="M309.3,281.3c-0.3-0.1-0.6-0.2-1-0.3c0.7-2.5,0.9-5,0.9-7.6c0-21.7,0-43.4,0.1-65c28.2,0,56.5,0,84.7,0
	c0.1,6.8,0.3,13.6,0.3,20.4c0,15.7-0.1,31.4,0.1,47.1c0.1,4-1.1,5.3-5.2,5.3c-24.8-0.2-49.5-0.1-74.3-0.1
	C312.9,281.2,311.1,281.3,309.3,281.3z"/>
<path class="st7" d="M393.9,208.4c-28.2,0-56.5,0-84.7,0c0-0.2-0.1-0.4-0.2-0.6c0-15.6,0.1-31.1,0.1-46.7c0-1.4,0-2.8-0.9-4.1
	c0.3-0.1,0.6-0.2,0.8-0.3c15.1,0.1,30.2,0.2,45.3,0.1c3,0,4.8,0.8,6.6,3.4c10.1,14.8,20.4,29.4,30.6,44.1
	C392.5,205.7,393.2,207.1,393.9,208.4z"/>
<path class="st8" d="M448.3,335.5c-6.7,0-13.3-0.1-20,0c-2.6,0.1-3.5-0.7-3.4-3.4c0.2-6.2,0.2-12.5,0-18.7c-0.1-2.9,1.1-3.6,3.8-3.5
	c4.8,0.2,9.6,0,14.5,0.1c2.2,0,3-0.7,3-2.9c-0.1-4.5,0.1-9.1-0.1-13.6c-0.1-2.7,0.6-3.9,3.5-3.8c6.1,0.2,12.2,0.1,18.3,0
	c2.6-0.1,3.8,0.7,3.8,3.6c-0.1,12.9-0.1,25.8,0,38.7c0,2.9-1,3.6-3.7,3.5C461.4,335.4,454.9,335.5,448.3,335.5z"/>
<path class="st8" d="M448.4,124.4c6.7,0,13.3,0.1,20,0c2.3,0,3.3,0.7,3.3,3.1c-0.1,13-0.1,26,0,39.1c0,2.7-1.1,3.4-3.6,3.3
	c-6.2-0.1-12.5-0.1-18.7,0c-2.7,0.1-3.4-1-3.3-3.5c0.1-4.4-0.1-8.8,0.1-13.2c0.1-2.7-1-3.4-3.5-3.3c-4.7,0.1-9.3-0.1-14,0.1
	c-2.7,0.1-3.8-0.7-3.7-3.6c0.2-6.2,0.2-12.5,0-18.7c-0.1-2.7,1-3.4,3.5-3.3C435.1,124.5,441.7,124.4,448.4,124.4z"/>
<path class="st9" d="M309,207.9c0.1,0.2,0.2,0.4,0.2,0.6c0,21.7-0.1,43.4-0.1,65c0,2.6-0.1,5.1-0.9,7.6c-26.6,0-53.2,0-79.8,0.1
	c-3.2,0-4.5-0.9-4.5-4.3c0.1-21.8,0.1-43.6,0-65.4c0-2.1,0.4-3.9,1.7-5.5c12.3-15.4,24.5-30.7,36.7-46.1c0.7-0.9,1.7-1.5,2.5-2.3
	c5.8,6.7,11.6,13.5,17.5,20.2C291.4,187.8,299.7,198.3,309,207.9z"/>
<path class="st8" d="M145,335.5c-0.1-14.2-0.1-28.3-0.2-42.5c0-2.4,0.9-3.3,3.3-3.2c6.4,0.1,12.8,0.1,19.1,0c2.4,0,3.3,1,3.2,3.3
	c-0.1,4.4,0.1,8.8-0.1,13.2c-0.1,3,1,3.9,3.9,3.8c4.1-0.2,8.2,0.2,12.3-0.1c3.7-0.3,4.5,1.2,4.4,4.6c-0.2,6.9-0.1,13.9-0.1,20.8
	C175.6,335.4,160.3,335.4,145,335.5z"/>
<path class="st8" d="M144.8,147.2c0-6.4,0.1-12.7,0-19.1c-0.1-2.7,0.9-3.7,3.6-3.7c13,0.1,26,0.1,39.1,0c2.5,0,3.6,0.7,3.5,3.3
	c-0.2,6.4-0.1,12.7,0,19.1c0,2.4-0.9,3.2-3.3,3.1c-4.4-0.1-8.8,0.2-13.2-0.1c-3.5-0.2-4.4,1.2-4.2,4.4c0.2,4.1,0,8.2,0.1,12.3
	c0.1,2.3-0.8,3.3-3.2,3.3c-6.4-0.1-12.7-0.1-19.1,0c-2.7,0.1-3.3-1.2-3.3-3.6C144.9,159.9,144.8,153.5,144.8,147.2z"/>
<path class="st10" d="M309,207.9c-9.4-9.6-17.7-20.1-26.5-30.2c-5.9-6.7-11.7-13.4-17.5-20.2c0.5-0.2,1-0.6,1.5-0.6
	c13.9,0,27.8,0.1,41.8,0.1c0.9,1.2,0.9,2.7,0.9,4.1C309.1,176.8,309.1,192.3,309,207.9z"/>
<path class="st11" d="M145,335.5c15.3,0,30.6-0.1,45.9-0.1c-1,1-2.3,1-3.6,1c-12.9,0-25.8,0-38.7,0C147.3,336.3,146,336.4,145,335.5
	z"/>
</svg>
