<svg width="25" height="24" viewBox="0 0 25 24" fill="none" xmlns="http://www.w3.org/2000/svg">
<g clip-path="url(#clip0_2_2724)">
<path d="M12.3301 0C9.07358 0 8.66408 0.015 7.38458 0.072C6.10508 0.132 5.23358 0.333 4.47008 0.63C3.66922 0.931229 2.94382 1.40374 2.34458 2.0145C1.73419 2.61404 1.26174 3.33936 0.960078 4.14C0.663078 4.902 0.460578 5.775 0.402078 7.05C0.345078 8.3325 0.330078 8.7405 0.330078 12.0015C0.330078 15.2595 0.345078 15.6675 0.402078 16.947C0.462078 18.225 0.663078 19.0965 0.960078 19.86C1.26758 20.649 1.67708 21.318 2.34458 21.9855C3.01058 22.653 3.67958 23.064 4.46858 23.37C5.23358 23.667 6.10358 23.8695 7.38158 23.928C8.66258 23.985 9.07058 24 12.3301 24C15.5896 24 15.9961 23.985 17.2771 23.928C18.5536 23.868 19.4281 23.667 20.1916 23.37C20.9919 23.0686 21.7168 22.5961 22.3156 21.9855C22.9831 21.318 23.3926 20.649 23.7001 19.86C23.9956 19.0965 24.1981 18.225 24.2581 16.947C24.3151 15.6675 24.3301 15.2595 24.3301 12C24.3301 8.7405 24.3151 8.3325 24.2581 7.0515C24.1981 5.775 23.9956 4.902 23.7001 4.14C23.3985 3.33934 22.926 2.61401 22.3156 2.0145C21.7165 1.40351 20.9911 0.930968 20.1901 0.63C19.4251 0.333 18.5521 0.1305 17.2756 0.072C15.9946 0.015 15.5881 0 12.3271 0H12.3316H12.3301ZM11.2546 2.163H12.3316C15.5356 2.163 15.9151 2.1735 17.1796 2.232C18.3496 2.2845 18.9856 2.481 19.4086 2.6445C19.9681 2.862 20.3686 3.123 20.7886 3.543C21.2086 3.963 21.4681 4.362 21.6856 4.923C21.8506 5.3445 22.0456 5.9805 22.0981 7.1505C22.1566 8.415 22.1686 8.7945 22.1686 11.997C22.1686 15.1995 22.1566 15.5805 22.0981 16.845C22.0456 18.015 21.8491 18.6495 21.6856 19.0725C21.4932 19.5935 21.1861 20.0647 20.7871 20.451C20.3671 20.871 19.9681 21.1305 19.4071 21.348C18.9871 21.513 18.3511 21.708 17.1796 21.762C15.9151 21.819 15.5356 21.8325 12.3316 21.8325C9.12758 21.8325 8.74658 21.819 7.48208 21.762C6.31208 21.708 5.67758 21.513 5.25458 21.348C4.73333 21.1559 4.26177 20.8494 3.87458 20.451C3.4752 20.0641 3.16766 19.5925 2.97458 19.071C2.81108 18.6495 2.61458 18.0135 2.56208 16.8435C2.50508 15.579 2.49308 15.1995 2.49308 11.994C2.49308 8.79 2.50508 8.412 2.56208 7.1475C2.61608 5.9775 2.81108 5.3415 2.97608 4.9185C3.19358 4.359 3.45458 3.9585 3.87458 3.5385C4.29458 3.1185 4.69358 2.859 5.25458 2.6415C5.67758 2.4765 6.31208 2.2815 7.48208 2.2275C8.58908 2.1765 9.01808 2.1615 11.2546 2.16V2.163ZM18.7366 4.155C18.5475 4.155 18.3602 4.19225 18.1855 4.26461C18.0108 4.33698 17.8521 4.44305 17.7183 4.57677C17.5846 4.71048 17.4786 4.86923 17.4062 5.04394C17.3338 5.21864 17.2966 5.4059 17.2966 5.595C17.2966 5.7841 17.3338 5.97135 17.4062 6.14606C17.4786 6.32077 17.5846 6.47952 17.7183 6.61323C17.8521 6.74695 18.0108 6.85302 18.1855 6.92539C18.3602 6.99775 18.5475 7.035 18.7366 7.035C19.1185 7.035 19.4848 6.88329 19.7548 6.61323C20.0249 6.34318 20.1766 5.97691 20.1766 5.595C20.1766 5.21309 20.0249 4.84682 19.7548 4.57677C19.4848 4.30671 19.1185 4.155 18.7366 4.155ZM12.3316 5.838C11.5142 5.82525 10.7024 5.97523 9.94355 6.27921C9.18467 6.58319 8.49385 7.03511 7.9113 7.60863C7.32876 8.18216 6.86612 8.86585 6.55034 9.61989C6.23456 10.3739 6.07193 11.1833 6.07193 12.0007C6.07193 12.8182 6.23456 13.6276 6.55034 14.3816C6.86612 15.1356 7.32876 15.8193 7.9113 16.3929C8.49385 16.9664 9.18467 17.4183 9.94355 17.7223C10.7024 18.0263 11.5142 18.1763 12.3316 18.1635C13.9494 18.1383 15.4924 17.4779 16.6275 16.3249C17.7627 15.1719 18.3989 13.6188 18.3989 12.0007C18.3989 10.3827 17.7627 8.82962 16.6275 7.67662C15.4924 6.52363 13.9494 5.86324 12.3316 5.838ZM12.3316 7.9995C13.3926 7.9995 14.4101 8.42098 15.1604 9.17122C15.9106 9.92146 16.3321 10.939 16.3321 12C16.3321 13.061 15.9106 14.0785 15.1604 14.8288C14.4101 15.579 13.3926 16.0005 12.3316 16.0005C11.2706 16.0005 10.253 15.579 9.5028 14.8288C8.75256 14.0785 8.33108 13.061 8.33108 12C8.33108 10.939 8.75256 9.92146 9.5028 9.17122C10.253 8.42098 11.2706 7.9995 12.3316 7.9995Z" fill="#380D00"/>
</g>
<defs>
<clipPath id="clip0_2_2724">
<rect width="24" height="24" fill="white" transform="translate(0.330078)"/>
</clipPath>
</defs>
</svg>
