<svg width="32" height="32" viewBox="0 0 32 32" fill="none" xmlns="http://www.w3.org/2000/svg">
<path d="M26.667 2.66675H5.33366C3.86699 2.66675 2.66699 3.86675 2.66699 5.33341V26.6667C2.66699 28.1334 3.86699 29.3334 5.33366 29.3334H26.667C28.1337 29.3334 29.3337 28.1334 29.3337 26.6667V5.33341C29.3337 3.86675 28.1337 2.66675 26.667 2.66675ZM10.667 26.6667H5.33366V21.3334H10.667V26.6667ZM10.667 18.6667H5.33366V13.3334H10.667V18.6667ZM10.667 10.6667H5.33366V5.33341H10.667V10.6667ZM18.667 26.6667H13.3337V21.3334H18.667V26.6667ZM18.667 18.6667H13.3337V13.3334H18.667V18.6667ZM18.667 10.6667H13.3337V5.33341H18.667V10.6667ZM26.667 26.6667H21.3337V21.3334H26.667V26.6667ZM26.667 18.6667H21.3337V13.3334H26.667V18.6667ZM26.667 10.6667H21.3337V5.33341H26.667V10.6667Z" fill="#9A4523"/>
</svg>
