<?xml version="1.0" encoding="utf-8"?>
<!-- Generator: Adobe Illustrator 23.0.1, SVG Export Plug-In . SVG Version: 6.00 Build 0)  -->
<svg version="1.1" id="Layer_1" xmlns="http://www.w3.org/2000/svg" xmlns:xlink="http://www.w3.org/1999/xlink" x="0px" y="0px"
	 viewBox="0 0 595.3 508.7" style="enable-background:new 0 0 595.3 508.7;" xml:space="preserve">
<style type="text/css">
	.st0{fill:#ACB8B8;}
	.st1{fill:#555865;}
	.st2{fill:#F4A1A1;}
	.st3{fill:#E9E9E9;}
	.st4{fill:#C4946C;}
	.st5{fill:#C6C5C5;}
	.st6{fill:#A8714B;}
	.st7{fill:#767B8A;}
	.st8{fill:#FED604;}
	.st9{fill:#EE7475;}
	.st10{fill:#E2B162;}
	.st11{fill:#E99393;}
	.st12{fill:#C3A70C;}
	.st13{fill:#F6E0A9;}
	.st14{fill:#D8D8D7;}
	.st15{fill:#865339;}
	.st16{fill:#E56766;}
	.st17{fill:#F6B2B3;}
	.st18{fill:#E4E5E4;}
	.st19{fill:#9A483C;}
	.st20{fill:#F8C6C5;}
	.st21{fill:#FFFFFF;}
	.st22{fill:#AAC9E2;}
	.st23{fill:#F2D67B;}
	.st24{fill:#C99B8D;}
	.st25{fill:#EBCFC3;}
	.st26{fill:#D0C4C0;}
	.st27{fill:#EDDEDA;}
	.st28{fill:#223564;}
	.st29{fill:#3672B8;}
	.st30{fill:#CFCFE6;}
</style>
<g>
	<path class="st24" d="M310.3,455.2c0-2.7,0.1-5.4,0.1-8.2c0-38.1,0-76.1,0-114.2c0-1,0.1-1.9,0-2.9c-0.3-2.8,0.8-4.8,2.8-6.7
		c25.5-25.4,50.9-50.8,76.3-76.3c6.7-6.7,14.5-8.4,23.3-5.6c5.5,1.8,9.6,5.7,11.8,11.1c3.8,9.3,1.9,17.6-5.1,24.6
		c-11.6,11.7-23.3,23.3-34.9,35c-1.2,1.2-2.4,2.5-3.6,3.8c0.4,0.8,0.5,1.5,0.9,2c3.2,3.8,11.7,11.9,14.4,13.6
		c0.8-0.6,1.8-1.1,2.5-1.9c12.1-12.1,24.3-24.1,36.3-36.3c3.7-3.7,6.9-7.9,9.2-12.8c2.7-5.7,4.4-11.6,4.4-18c0-26.2,0-52.5,0-78.7
		c0-2.6,0.2-5.1,0.7-7.6c1.7-8.1,6.4-13.2,14-16.1c10.5-4,23.1,2.3,26.8,13c1,3,1.5,6.2,1.5,9.4c-0.1,14.7,0,29.4,0,44.1
		c0,23-0.1,46.1,0.1,69.1c0,4.4-1.1,7.9-3.8,11.4c-9.6,12.3-18.9,24.9-28.3,37.4c-8.6,11.3-17.3,22.6-25.9,33.9
		c-6,7.9-11.9,15.8-18,23.6c-1.3,1.6-1.8,3.2-1.8,5.3c0.1,16,0.1,32,0.1,48C379.4,455.2,344.9,455.2,310.3,455.2z"/>
	<path class="st25" d="M184.5,455.2c0-15.8,0-31.7,0.1-47.5c0-2.4-0.6-4.2-2.1-6.1c-5.4-6.9-10.5-14.1-15.7-21.1
		c-6-8-12.1-16-18.2-24c-7.1-9.4-14.2-18.8-21.4-28.2c-5-6.6-10.5-12.8-15.1-19.8c-0.1-0.1-0.2-0.3-0.3-0.4
		c-4.6-3.9-5.1-9.1-5.1-14.8c0.2-35.3,0-70.7,0.1-106c0-4.1,0.2-8.3,1.1-12.3c1.8-8.1,7.2-13.6,15.8-15.5c4.4-1,5.8-0.9,9.9,0.1
		c2.8,0.7,5.4,1.9,7.7,3.6c3.3,2.3,5.4,5.5,6.7,9.1c1.3,3.8,2,7.7,2,11.7c0,26.1,0.1,52.1-0.1,78.2c-0.1,8.7,3,16.3,7.3,23.4
		c1.8,3,4.3,5.5,6.8,8c11.6,11.7,23.3,23.3,34.9,35c3.4,3.4,3.6,3.4,6.9,0.1c3.4-3.4,6.8-6.8,10.2-10.2c1.8-1.8,1.7-2.6,0.1-4.5
		c-0.8-0.8-1.6-1.6-2.4-2.4c-9.6-9.6-19.3-19.2-28.8-28.9c-3-3.1-6.1-6.2-8.6-9.6c-3.9-5.3-5.2-11.3-3.3-17.7
		c1.5-5,3.8-9.4,8.6-12.2c5.7-3.3,11.5-4.4,17.9-2.5c3.8,1.1,6.9,3.1,9.7,5.9c25.3,25.4,50.7,50.7,76,76c0.6,0.6,1.1,1.2,1.7,1.7
		c1,0.9,1.5,2,1.5,3.4c0,1.3,0,2.6,0,3.8c0,41.1,0,82.2,0,123.3C253.7,455.2,219.1,455.2,184.5,455.2z"/>
	<path class="st26" d="M298.9,71.3c3.6,0,7.3-0.3,11.1,0.2c0.1,1.5,0.3,2.8,0.3,4c0,4.5,0,9,0,13.4c0,1.1,0,2.2,0,3.4
		c0.1,1.8,0.6,2.4,2.6,2.9c5.4,1.4,10.7,3.1,15.7,5.8c1,0.5,2,1.1,2.9,1.6c3.1,1.8,3.6,1.8,6.2-0.7c2.9-2.8,5.6-5.7,8.5-8.5
		c1.7-1.7,3.2-3.5,5.1-4.8c3.9,2.6,13.8,12.7,15.6,15.9c-1.9,3.3-5.1,5.6-7.6,8.3c-2.5,2.7-5.1,5.2-7.9,8c2,4,4.1,7.8,5.7,11.7
		c1.6,3.9,2.8,8.1,4.3,12.3c1.2,0.1,2.3,0.3,3.3,0.4c4.8,0,9.6,0,14.4,0c1.4,0,2.8,0.1,4.4,0.2c1.2,3.7,0.5,7.4,0.6,11
		c0.1,3.6,0,7.3-0.1,11.2c-1.3,0.2-2.4,0.5-3.5,0.5c-4.8,0.1-9.6,0-14.4,0c-1.1,0-2.2,0-3.4,0.1c-1.5,0.1-2.3,0.9-2.7,2.3
		c-0.5,1.8-1,3.7-1.6,5.5c-1.4,4.6-3.2,9-6,13c-0.5,0.8-0.8,1.7-1.3,2.8c0.6,0.9,1.2,1.8,1.9,2.6c3.4,3.4,6.8,6.8,10.1,10.2
		c1.1,1.1,2.2,2.3,3.3,3.4c-0.2,0.6-0.2,1.2-0.4,1.5c-4.7,4.8-9.4,9.5-14.2,14.4c-3.9-1.5-6.3-4.5-9-7.1c-2.7-2.7-5.4-5.4-8.3-8.2
		c-2.1,1.1-4,2.2-5.9,3.2c-4.7,2.5-9.5,4.6-14.7,5.6c-1.2,0.3-2.3,0.9-3.8,1.4c-0.1,7.6-0.1,15-0.2,22.8c-4.1,0.7-7.8,1.1-11.4-0.3
		c0-14.7,0-29.5,0-44.2c1.6-0.3,3.4,0.3,4.9-0.8c2.8,0.2,5.3-0.8,7.9-1.6c14-4.3,25.8-17.3,27.5-33.7c2-19.6-9-33.5-21-39.9
		c-6.1-3.2-12.5-4.6-19.3-4.8c0-2.1,0.1-4.1,0.1-6.2C298.8,97.1,298.8,84.2,298.9,71.3z"/>
	<path class="st27" d="M298.8,196.9c0,14.7,0,29.5,0,44.2c-3.3,0-6.7,0.2-10-0.2c-0.9-2.6-0.5-5-0.5-7.3c-0.1-2.4,0-4.8,0-7.2
		c0-2.4,0-4.8,0-6.8c-0.9-1.6-2-2.1-3.3-2.3c-6.4-1-12.1-3.7-17.6-7.1c-0.3-0.2-0.5-0.4-0.8-0.5c-2.6-1.5-3.3-1.5-5.4,0.6
		c-3.4,3.4-6.8,6.8-10.2,10.2c-1.1,1.1-2.3,2.2-3.6,3.4c-3.4-1.9-5.6-4.9-8.2-7.4c-2.5-2.4-4.9-5-7.6-7.6c0.6-0.9,1.1-1.8,1.7-2.4
		c3.5-3.5,7-7,10.5-10.5c1.1-1.1,2.2-2.3,3.1-3.3c0.2-2.3-0.8-3.8-1.8-5.2c-3.5-4.9-5-10.7-6.7-16.3c-0.8-2.5-1.1-2.9-3.6-2.9
		c-5-0.1-9.9,0-14.9,0c-2.3,0-2.3,0-5-1.3c-0.8-3.3-0.9-16.2-0.1-21.2c1-0.2,2-0.5,3.1-0.5c4.6-0.1,9.3,0,13.9,0c1.6,0,3.2,0,4.8,0
		c0.6-1.2,1.3-2.1,1.6-3.1c2-6.6,4.5-13,7.8-19c1.4-2.6,1.3-2.9-0.8-5c-3.4-3.4-6.8-6.8-10.2-10.2c-1.1-1.1-2.2-2.3-3.4-3.6
		c1.8-3.4,4.9-5.5,7.3-8.2c2.4-2.6,5-5,7.6-7.6c0.9,0.6,1.8,1,2.4,1.6c3.5,3.5,7,7,10.5,10.5c0.8,0.8,1.6,1.6,2.4,2.3
		c1,1,2.3,1.1,3.6,0.7c0.7-0.3,1.5-0.6,2.1-1.1c5.3-3.8,11.5-5.5,17.6-7.3c2.5-0.8,2.9-1.1,3-3.5c0.1-5,0-9.9,0-14.9
		c0-1.6,0-3.2,0.1-4.9c1.1-0.3,2-0.6,2.9-0.6c2.6-0.1,5.1,0,7.7,0c0,12.9,0,25.8-0.1,38.7c0,2.1,0,4.1-0.1,6.2c0,0,0.1,0.3,0.1,0.3
		c-1.8,0-3.5-0.1-5.2,0.1c-20.8,3.2-34.8,21.1-34.5,40.4c0.3,15.7,10.5,31.4,26.5,37c2.1,0.7,4.3,1.3,6.4,2c1.8,1.6,4,0.8,6,0.7
		l0.4-0.1L298.8,196.9z"/>
	<path class="st28" d="M298.7,116.2c6.8,0.1,13.3,1.5,19.3,4.8c12,6.4,23,20.3,21,39.9c-1.7,16.3-13.4,29.4-27.5,33.7
		c-2.6,0.8-5.2,1.7-7.9,1.6c-1.5-0.5-3.2,0.4-4.7-1.1c-0.1-0.8-0.2-1.7-0.2-2.7c0-25.3,0-50.5,0-75.8L298.7,116.2z"/>
	<path class="st29" d="M298.9,116.6c0,25.3,0,50.5,0,75.8c0,0.9,0.1,1.9,0.2,2.7c1.5,1.5,3.2,0.6,4.7,1.1c-1.5,1.1-3.3,0.4-4.9,0.8
		c0,0-0.3-0.1-0.3-0.1s-0.4,0.1-0.4,0.1c-2-0.2-4-0.5-6-0.7c-2.1-0.7-4.3-1.3-6.4-2c-16-5.6-26.2-21.3-26.5-37
		c-0.3-19.3,13.7-37.2,34.5-40.4C295.3,116.4,297.1,116.6,298.9,116.6z"/>
	<path class="st30" d="M292.1,196.1c2,0.2,4,0.5,6,0.7C296.1,196.9,293.9,197.7,292.1,196.1z"/>
</g>
</svg>
