<?xml version="1.0" encoding="utf-8"?>
<!-- Generator: Adobe Illustrator 23.0.1, SVG Export Plug-In . SVG Version: 6.00 Build 0)  -->
<svg version="1.1" id="Layer_1" xmlns="http://www.w3.org/2000/svg" xmlns:xlink="http://www.w3.org/1999/xlink" x="0px" y="0px"
	 viewBox="0 0 595.3 508.7" style="enable-background:new 0 0 595.3 508.7;" xml:space="preserve">
<style type="text/css">
	.st0{fill:#F4A1A1;}
	.st1{fill:#ACB8B8;}
	.st2{fill:#C99B8D;}
	.st3{fill:#EBCFC3;}
	.st4{fill:#D0C4C0;}
	.st5{fill:#EDDEDA;}
	.st6{fill:#223564;}
	.st7{fill:#3672B8;}
	.st8{fill:#CFCFE6;}
	.st9{fill:#FDEDEB;}
	.st10{fill:#E4E5E4;}
	.st11{fill:#555865;}
	.st12{fill:#C4946C;}
	.st13{fill:#A8714B;}
	.st14{fill:#767B8A;}
	.st15{fill:#E2B162;}
	.st16{fill:#E99393;}
	.st17{fill:#F6E0A9;}
	.st18{fill:#D8D8D7;}
	.st19{fill:#865339;}
	.st20{fill:#E56766;}
	.st21{fill:#AAC9E2;}
	.st22{fill:#F2D67B;}
	.st23{fill:#FFFFFF;}
	.st24{fill:#F5AA93;}
	.st25{fill:#FED604;}
	.st26{fill:#BB5C39;}
	.st27{fill:#C3A70C;}
	.st28{fill:#C45E31;}
	.st29{fill:#9A483C;}
	.st30{fill:#F8C6C5;}
</style>
<g>
	<path class="st24" d="M176.7,166.5c1,0.1,1.8,0,2.7-0.6c4.3-2.7,8.5-5.5,13-7.8c4.7-2.5,9.7-4.5,14.6-6.6
		c6.8-2.8,13.9-4.9,21.1-6.7c5.4-1.3,11-2.1,16.5-2.9c3-0.5,6-0.6,9-0.9c0.9-0.1,1.8-0.5,2.7-0.8c2.1,4.2,4.2,8.5,7,12.2
		c0.6,0.8,1,1.6,0.7,2.6c-0.9,0-1.9,0-2.8-0.2c-6.2-1.3-12.3,2.8-14,8.7c-1.9,6.4,2,12.5,6.7,14.4c0.8,0.3,1.5,0.7,2.2,1
		c4.7,2,9.4,3.9,14,6c10.7,4.7,20.9,10.4,30.6,17c8.5,5.8,16.7,12,24.1,19.2c5,4.8,13.3,4.8,18.2-1.3c3.5-4.4,3.5-10.9-0.1-15.2
		c-1.3-1.5-2.6-2.8-4-4.1c-5.8-5.5-12.1-10.4-18.5-15.1c-1.1-0.8-2.1-1.7-3.2-2.6c2.4-1.6,4.7-3.3,7.1-4.9c0.3-0.2,0.6-0.5,0.9-0.7
		l-0.1,0.1c0.5,0,0.9-0.2,0.9-0.9c0,0,0,0,0,0c0.8-0.2,1.6-0.2,2.3-0.5c3.8-2.1,7.5-4.3,11.2-6.5c0.7-0.4,1.3-1,1.9-1.5
		c2.9-2.3,4.9-5.4,7-8.3c1.5,0.7,3.1,1.2,4.5,2c13,6.8,25.3,14.7,36.6,24.1c0.4,0.3,0.6,0.9,0.9,1.3c-1,1.1-1.9,2.3-3.1,3.1
		c-5.6,3.7-9,9.1-11.5,15.1c-1.2,3-2.1,6.2-0.9,9.7c2.6,0.4,5.2,0.2,7.8,0.2c4.4,0,8.7,0,13.1,0c1.9,0,3.8,0.1,5.7,0.5
		c2.8,0.6,5.6,0.7,8.4,1.1c3.4,0.7,6.6,2.2,10.2,1.5c1,1.1,2.1,2.2,3,3.4c6.4,9.2,12.1,18.9,16.9,29.1c2.5,5.4,4.7,10.8,6.7,16.3
		c1.8,5.3,3.1,10.8,4.4,16.2c0.9,3.8,1.7,7.8,2.2,11.7c0.9,8,1.8,16.1,1,24.2c-0.3-0.2-0.9-0.4-1-0.7c-0.3-2.7-2.3-4.2-4-6
		c-3.2-3.3-7.2-5-11.8-5c-1.6,0-3.3-0.1-4.9,0c-4,0.2-7.9,1-11.5,2.7c-5.2,2.5-10.2,5.3-14.8,8.8c-3.2,2.4-6.5,4.6-9.1,7.6
		c-1.8,2-3.6,4.2-5.4,6.2c-3.6,3.9-6.5,8.4-9.4,12.9c-2.3,3.5-3.8,7.3-5.5,11c-3.4,7.2-4.6,14.9-5.4,22.6c-0.1,0.9,0.1,1.9,0.2,2.9
		c0.1,1.1,0.4,2.1,0.5,3.2c1.5,11,8.2,16.6,17.9,17.7c5.3,0.6,10.3-0.7,15.3-2.5c4.3-1.5,8.1-4,12-6.3c4.9-2.9,8.7-7,13.2-10.4
		c0.7-0.6,1.2-1.5,1.9-2.2c2.2-2.4,4.4-4.9,6.6-7.3c0.2-0.2,0.5-0.1,0.8-0.2c-0.2,2.4-1.6,4.3-2.8,6.2c-2.3,3.8-4.9,7.5-7.4,11.2
		c-1.2,1.8-2.4,3.6-3.6,5.4c-2.6,2.4-5.3,4.7-7.3,7.7c-0.9,1.3-2.2,2.4-3.4,3.5c-3.1,2.7-6.2,5.3-9.4,7.9c-2.3,1.9-4.7,3.7-7.1,5.5
		c-4.6,3.4-9.6,6.2-14.7,8.9c-1.3,0.7-2.3,1.5-2,3.1c-1.8-0.4-3.4,0-5.1,0.8c-10,4.5-20.4,8-31.1,10.3c-6.9,1.5-13.9,2.4-21,3.1
		c-9.3,1-18.6,0.4-27.9,0.6c-0.6-0.2-1.3-0.7-1.9-0.7c-4.6-0.2-9.2-1.1-13.8-1.6c-6.2-0.8-12.4-2.1-18.4-3.7
		c-7.5-2.1-14.8-4.8-22.2-7.3c-1.2-0.4-2.3-0.7-3.6-0.6c-0.7-0.6-1.4-1.4-2.2-1.7c-11.9-5.3-23.3-11.4-34-18.8
		c-0.9-0.6-1.7-1.3-2.6-1.9c-1-0.7-2-1.5-3.3-1.4c-0.1-0.4-0.1-0.9-0.4-1.1c-1.4-1.3-2.8-2.6-4.4-3.7c-5.4-3.8-10-8.5-14.9-12.9
		c-2.8-2.4-5-5.4-7.5-8.1c-2.3-2.5-4.7-4.9-6.9-7.6c-5.3-6.8-10.7-13.5-14.8-21.1c-1.4-2.6-3.1-5.2-4.6-7.8c-0.5-0.8-1.1-1.2-2-1.3
		c-0.5-1.8-0.8-3.7-1.5-5.4c-0.7-1.8-1.7-3.4-2.5-5.2c-4.1-8.9-7.1-18.2-9.3-27.6c-1.5-6.1-2.5-12.3-3.3-18.6
		c-1.1-8.8-0.9-17.6-0.5-26.3c0.3-6.3,1.5-12.5,2.8-18.7c2.7-12.6,7.3-24.4,13.6-35.7c3.5-6.2,7.5-12.1,12.1-17.7
		c1.2-1.5,2.8-2.7,2.9-4.9c1.6,0,2.4-1.2,3.3-2.2c5.6-5.7,11.4-11,17.9-15.6C175.8,168.7,176.6,167.8,176.7,166.5z M298.7,244.2
		c0.5-0.1,1.2,0.1,1.6-0.2c2.8-1.7,5.6-3.4,8.2-5.6c-0.4-0.9-0.7-1.7-1.2-2.3c-1.9-2.5-3.8-5-5.7-7.5c-0.8-1.1-1.5-2.4-2.5-3.2
		c-5.5-4.8-11.9-6.8-19-5.8c-6.4,0.9-11.9,3.9-16.7,8.3c-3.1,2.8-5.4,6.1-7.4,9.8c-1.9,3.6-3.1,7.4-3.5,11.3
		c-0.6,6.5,0.7,12.5,4.8,17.8c1,1.3,1.7,2.9,2.8,4.1c1.3,1.5,2,3.6,4,4.7c2.7-2.1,5-4.5,7.1-7c0.2-0.3,0.2-0.8,0.3-1.2
		c1.4,0,2.2-1,3.1-1.9c2.4-2.4,4.7-5,7.4-7.2c4.9-4,9.9-7.7,15-11.5C297.8,246,298.6,245.4,298.7,244.2z M431.3,290.2
		c7.4,0,12.4-6.3,12.3-12.8c-0.1-6.6-5.9-12.5-12.4-12.3c-7.6,0.2-12.4,5.9-12.5,12.6C418.5,284.6,424.4,290.3,431.3,290.2z
		 M361.9,311.8c0.1-6.9-5-12.4-12.4-12.8c-6.7-0.3-12.7,5.7-12.7,12.4c0,6.8,5.8,12.5,12.6,12.6C356,324,361.8,318.3,361.9,311.8z"
		/>
	<path class="st25" d="M264,155.1c0.3-1-0.1-1.8-0.7-2.6c-2.9-3.8-4.9-8-7-12.2c-4-8.8-7.2-17.7-9.2-27.2c-0.7-3.6-1.1-7.3-1.6-11
		c-0.5-4-0.7-7.9-0.5-11.9c0.4-6,1.1-12,3.5-17.7c2.4-5.8,5.5-11.1,11.1-14.5c1.7-1.1,3.6-1.8,5.5-2.8c0.5,0,1.1,0,1.6-0.1
		c4.8-1.4,9.4-0.6,14.1,0.9c9.4,2.8,16.6,8.9,23.5,15.4c2.5,2.3,4.4,5.2,6.5,7.9c9.7,12.6,16.6,26.7,20.5,42.2
		c1.6,6.2,3,12.5,2.9,19c0,2.2,0,4.4,0,6.6c0,3.7,0,7.4-0.8,11c-1.3,5.6-2.8,11.2-6.3,15.9c-0.6,0.8-1.2,1.5-1.1,2.6c0,0,0,0,0,0
		c-0.3,0.3-0.6,0.6-0.9,0.9c0,0,0.1-0.1,0.1-0.1c-0.3,0.2-0.6,0.5-0.9,0.7c-2.4,1.6-4.7,3.3-7.1,4.9c-2,0.4-4,0.9-6,1.1
		c-6,0.6-11.7-0.3-17.2-2.9c-8.6-4.1-15.6-10-21.8-17.2c-2.3-2.7-4.6-5.4-6.9-8.1C264.8,155.6,264.4,155.3,264,155.1L264,155.1z
		 M319.9,137.1c0-2.7,0.4-5.6-0.1-8.2c-1.6-9.4-4.4-18.4-9-26.8c-2.7-5-5.8-9.6-9.6-13.8c-3.5-3.9-7.5-7.2-12.1-9.8
		c-3.8-2.1-7.7-3.6-12.1-3.4c-5.8,0.3-10.2,2.9-13.3,7.7c-3.3,5.2-4.7,11-4.8,17.2c-0.1,6.2,0.7,12.2,2.3,18.3
		c1.4,5.3,3.3,10.5,5.6,15.4c3.9,7.9,8.8,15.2,15.3,21.2c4.5,4.2,9.6,7.4,15.6,8.8c5.4,1.3,10.2,0.2,14.5-3.7
		c3.6-3.3,5.5-7.4,6.9-12C320.2,144.5,320.1,140.8,319.9,137.1z"/>
	<path class="st26" d="M439.6,374.5c-0.3,0.1-0.6,0-0.8,0.2c-2.2,2.4-4.4,4.8-6.6,7.3c-0.6,0.7-1.1,1.6-1.9,2.2
		c-4.5,3.4-8.2,7.6-13.2,10.4c-3.9,2.3-7.7,4.7-12,6.3c-4.9,1.8-10,3.1-15.3,2.5c-9.7-1.1-16.5-6.7-17.9-17.7
		c-0.1-1.1-0.4-2.1-0.5-3.2c-0.1-0.9-0.3-1.9-0.2-2.9c0.8-7.8,2-15.4,5.4-22.6c1.8-3.7,3.3-7.5,5.5-11c2.9-4.4,5.8-8.9,9.4-12.9
		c1.9-2,3.6-4.1,5.4-6.2c2.7-3,6-5.2,9.1-7.6c4.6-3.5,9.6-6.3,14.8-8.8c3.6-1.7,7.5-2.5,11.5-2.7c1.6-0.1,3.3,0,4.9,0
		c4.6,0,8.5,1.7,11.8,5c1.7,1.8,3.8,3.3,4,6c0,0.3,0.6,0.5,1,0.7c0.3,1.4,0.7,2.7,1,4.1c-0.8,1.5-0.8,1.5,0.4,2.6
		c0.6,3.5,0.6,7,0,10.5c-1.2,1.2-1.2,1.2-0.4,2.6c-0.1,0.8-0.3,1.6-0.4,2.4c-0.8,0.4-1.3,0.9-0.4,1.8c-0.1,0.5-0.2,1-0.3,1.5
		c-1.5,1.8-2.3,3.9-2.5,7.1c-0.2,0.7-0.5,1.3-0.7,2c-1.5,0.8-2,2.1-1.8,3.7c-0.5,1-1,1.9-1.4,2.9c-1.6,0.6-2,2-2.1,3.5
		C443.6,367.4,441.6,370.9,439.6,374.5z M423.9,349C423.9,349,423.9,349,423.9,349c0,4.9,0,9.9,0,14.8c0,1.2,0,2.5,0.2,3.7
		c0.6,3,3.1,4.3,5.9,3.1c1.9-0.8,3.5-2,4.8-3.7c2.6-3.4,3.8-7.3,3.8-11.5c0.1-9.6,0.1-19.2,0-28.8c0-1.7-0.6-3.5-1.3-5.1
		c-0.8-1.8-2.7-2.5-4.5-1.6c-1.6,0.8-3.2,1.7-4.4,2.9c-2.8,2.8-4.5,6.2-4.5,10.3C423.9,338.3,423.9,343.7,423.9,349z M403.5,361.3
		C403.5,361.3,403.5,361.3,403.5,361.3c0-5.2,0-10.4,0-15.7c0-1.4-0.1-2.7-0.8-4c-0.8-1.4-1.9-2-3.4-1.8c-2.1,0.2-4,1.2-5.4,2.7
		c-3,3.2-4.7,7.1-4.7,11.5c-0.1,10.3,0,20.6,0,30.9c0,1.1,0.1,2.2,0.5,3.2c0.8,2.3,2.4,3.2,4.8,2.7c0.6-0.1,1.3-0.4,1.9-0.8
		c4.5-3,7-7.3,7.1-12.7C403.6,372,403.5,366.7,403.5,361.3z"/>
	<path class="st27" d="M325.9,176.6c-0.1-1.1,0.5-1.8,1.1-2.6c3.5-4.7,5-10.3,6.3-15.9c0.8-3.7,0.8-7.3,0.8-11c0-2.2-0.1-4.4,0-6.6
		c0.1-6.5-1.3-12.8-2.9-19c-3.9-15.5-10.7-29.6-20.5-42.2c-2.1-2.7-4.1-5.6-6.5-7.9c-6.9-6.5-14.1-12.6-23.5-15.4
		c-4.7-1.4-9.3-2.3-14.1-0.9c-0.5,0.1-1.1,0.1-1.6,0.1c1.1-0.8,2.1-1.7,3.3-2.4c3.4-2,7-3.8,10.4-5.9c6.5-4.1,13.4-4.5,20.6-2.5
		c7.5,2.2,13.9,6.3,19.8,11.5c7.9,7,14.1,15.3,19.3,24.4c6.3,11,10.9,22.7,13.3,35.2c1.1,5.5,1.8,11.1,1.9,16.7
		c0.2,8.7-0.9,17.2-4.6,25.3c-0.3,0.6-0.4,1.3-0.7,1.9c-2.2,2.9-4.1,6.1-7,8.3c-0.6,0.5-1.2,1.1-1.9,1.5c-3.7,2.2-7.5,4.4-11.2,6.5
		C327.5,176.4,326.6,176.4,325.9,176.6z"/>
	<path class="st26" d="M139.3,347.3c0.9,0,1.5,0.5,2,1.3c1.5,2.6,3.2,5.1,4.6,7.8c4.2,7.6,9.5,14.4,14.8,21.1
		c2.1,2.7,4.6,5.1,6.9,7.6c2.5,2.7,4.7,5.7,7.5,8.1c4.9,4.3,9.5,9.1,14.9,12.9c1.6,1.1,2.9,2.4,4.4,3.7c0.3,0.2,0.3,0.8,0.4,1.1
		c-5.3,9.4-13.7,14-24.2,14.7c-7.6,0.5-14.4-1.8-20.3-6.6c-5.2-4.2-8.6-9.6-10.1-16.1c-0.5-2.1-0.9-4.3-0.9-6.5
		C139.3,380,139.3,363.6,139.3,347.3z"/>
	<path class="st26" d="M236.9,434.8c1.2-0.1,2.4,0.1,3.6,0.6c7.4,2.5,14.7,5.2,22.2,7.3c6,1.7,12.2,3,18.4,3.7
		c4.6,0.6,9.1,1.4,13.8,1.6c0.6,0,1.3,0.4,1.9,0.7c0.3,3.7,0,7.5-0.8,11.1c-2.3,10.4-8.5,17.7-18.5,21.5c-0.9-0.4-1.6-0.1-2.1,0.8
		c-0.5,0.1-1,0.3-1.5,0.4c-0.8-0.9-1.3-0.4-1.8,0.4c-0.8,0.1-1.6,0.3-2.4,0.4c-1.9-0.9-3.8-0.9-5.7,0c-0.8-0.1-1.6-0.3-2.4-0.4
		c-0.5-0.8-1-1.3-1.8-0.4c-0.5-0.1-1-0.3-1.5-0.4c-0.5-0.9-1.2-1.2-2.1-0.8c-5.3-1.7-9.6-5-12.8-9.5c0-0.9-0.5-1.5-1.4-1.7
		c-1.3-1.9-2.5-3.9-3.1-6.2c0.3-0.9,0.1-1.6-0.8-2.1c-0.1-0.5-0.2-1-0.4-1.6c0.8-1.5,0.8-1.5-0.6-2.5c-0.1-0.8-0.3-1.6-0.3-2.4
		C236.9,448.4,236.9,441.6,236.9,434.8z"/>
	<path class="st26" d="M176.7,166.5c-0.1,1.3-0.9,2.3-1.9,3c-6.5,4.6-12.4,9.9-17.9,15.6c-0.9,1-1.7,2.2-3.3,2.2
		c-3.4-3.4-6.9-6.6-10.2-10.1c-2.7-2.9-4.3-6.5-4.2-10.4c0-7.6,5.2-14.5,13-15.7c5.6-0.9,10.6,0.5,14.6,4.7c2.7,2.9,5.6,5.6,8.4,8.4
		C175.7,164.8,176.2,165.7,176.7,166.5z"/>
	<path class="st28" d="M382.8,215.2c-2.6,0-5.2,0.2-7.8-0.2c-1.2-3.5-0.3-6.7,0.9-9.7c2.4-6,5.9-11.4,11.5-15.1
		c1.2-0.8,2.1-2.1,3.1-3.1c1.1,0.2,2.1-0.2,3.1-0.7c3-1.6,6.3-2.1,9.5-2.1c3.9-0.1,7.9,0.9,11,3.6c3,2.6,4.9,5.8,5.7,9.7
		c0.6,3,1,5.8,0.2,8.9c-0.7,2.6-0.8,5.4-0.9,8.1c0,1.3,0.6,2.6,1,3.9c-3.6,0.7-6.8-0.8-10.2-1.5c0.7-2.1,1-4.2,0.9-6.4
		c-0.1-1.5-0.2-3,0-4.5c0.6-4.1-4.2-9-10-9.6c-3.9,0.8-7.9,1.2-10.7,4.4c-0.7,0.8-1.6,1.5-2.3,2.3
		C384.9,206.6,382.7,210.5,382.8,215.2z"/>
	<path class="st26" d="M381.9,433.9c-0.3-1.7,0.8-2.4,2-3.1c5-2.7,10.1-5.5,14.7-8.9c2.4-1.8,4.8-3.6,7.1-5.5
		c3.2-2.6,6.3-5.2,9.4-7.9c1.2-1.1,2.5-2.2,3.4-3.5c2-3,4.7-5.3,7.3-7.7c0.1,3.7,0.1,7.4,0.3,11.1c0.3,6.4-1.8,12.1-5.5,17.2
		c-3.8,5.4-9.1,9.2-15.4,11.1C397.1,439,389.2,438.4,381.9,433.9z"/>
	<path class="st0" d="M451.5,351.7c0.2-3.1,1-5.3,2.5-7.1C453.9,347.2,453.3,349.7,451.5,351.7z"/>
	<path class="st0" d="M445.5,363.9c0.1-1.5,0.5-2.9,2.1-3.5C447.6,361.9,447.1,363.2,445.5,363.9z"/>
	<path class="st0" d="M449,357.5c-0.3-1.7,0.3-2.9,1.8-3.7C451,355.4,450.3,356.5,449,357.5z"/>
	<path class="st0" d="M237.2,457.7c1.4,1,1.4,1,0.6,2.5C236.8,459.6,236.8,458.7,237.2,457.7z"/>
	<path class="st0" d="M455.6,326c-1.2-1.1-1.2-1.1-0.4-2.6C456,324.1,456.1,325,455.6,326z"/>
	<path class="st0" d="M455.2,339c-0.9-1.4-0.9-1.4,0.4-2.6C456.1,337.4,456,338.2,455.2,339z"/>
	<path class="st0" d="M454.4,343.1c-1-0.8-0.4-1.3,0.4-1.8C455.2,342.1,455,342.6,454.4,343.1z"/>
	<path class="st0" d="M238.2,461.8c0.9,0.5,1.1,1.2,0.8,2.1C238.2,463.4,237.6,462.8,238.2,461.8z"/>
	<path class="st0" d="M242,470.1c0.9,0.2,1.3,0.8,1.4,1.7C242.4,471.6,241.8,471.2,242,470.1z"/>
	<path class="st29" d="M265.2,155.9c2.3,2.7,4.6,5.4,6.9,8.1c6.1,7.2,13.2,13.1,21.8,17.2c5.5,2.6,11.2,3.5,17.2,2.9
		c2-0.2,4-0.7,6-1.1c1.1,0.9,2.1,1.7,3.2,2.6c6.4,4.7,12.7,9.6,18.5,15.1c1.4,1.3,2.8,2.7,4,4.1c3.7,4.3,3.6,10.8,0.1,15.2
		c-4.8,6.1-13.2,6.1-18.2,1.3c-7.4-7.2-15.6-13.5-24.1-19.2c-9.7-6.5-19.9-12.3-30.6-17c-4.7-2-9.4-4-14-6c-0.8-0.3-1.5-0.7-2.2-1
		c-4.7-1.9-8.6-7.9-6.7-14.4c1.8-5.9,7.8-10,14-8.7c0.9,0.2,1.9,0.1,2.8,0.2c0,0,0,0,0,0C264,155.8,264.6,155.9,265.2,155.9z"/>
	<path class="st28" d="M271.4,267.3c-0.1,0.4,0,0.9-0.3,1.2c-2.1,2.5-4.3,4.9-7.1,7c-2-1.1-2.7-3.2-4-4.7c-1.1-1.2-1.8-2.8-2.8-4.1
		c-4.1-5.3-5.4-11.4-4.8-17.8c0.4-3.9,1.5-7.7,3.5-11.3c2-3.7,4.3-7,7.4-9.8c4.8-4.4,10.3-7.4,16.7-8.3c7.1-1,13.6,1,19,5.8
		c1,0.9,1.7,2.1,2.5,3.2c1.9,2.5,3.8,5,5.7,7.5c0.5,0.6,0.7,1.4,1.2,2.3c-2.6,2.2-5.4,3.9-8.2,5.6c-0.4,0.3-1.1,0.1-1.6,0.2
		c-0.9-1.5-1.7-3.2-2.8-4.5c-1.4-1.7-2.7-3.7-4.6-4.6c-2.9-1.5-6-3.4-9.7-1.9c-0.5,0.2-1.1,0.2-1.6,0.2c-2.9,0.4-5.4,1.9-7.7,3.6
		c-3.7,2.9-6,6.8-7.1,11.2c-1.1,4.3-1,8.7,1.8,12.5C268.6,262.9,270,265.1,271.4,267.3z"/>
	<path class="st30" d="M271.4,267.3c-1.4-2.2-2.8-4.3-4.3-6.4c-2.8-3.9-2.9-8.2-1.8-12.5c1.1-4.5,3.4-8.4,7.1-11.2
		c2.3-1.8,4.8-3.2,7.7-3.6c0.5-0.1,1.1,0,1.6-0.2c3.6-1.5,6.8,0.3,9.7,1.9c1.8,1,3.2,2.9,4.6,4.6c1.1,1.4,1.9,3,2.8,4.5
		c-0.1,1.2-0.9,1.8-1.8,2.5c-5.1,3.8-10.1,7.5-15,11.5c-2.7,2.2-4.9,4.8-7.4,7.2C273.6,266.3,272.8,267.3,271.4,267.3z"/>
	<path class="st29" d="M431.3,290.2c-6.9,0.1-12.8-5.6-12.6-12.5c0.1-6.7,4.9-12.4,12.5-12.6c6.5-0.2,12.3,5.7,12.4,12.3
		C443.6,283.9,438.6,290.2,431.3,290.2z"/>
	<path class="st29" d="M361.9,311.8c-0.1,6.5-5.9,12.3-12.5,12.2c-6.8,0-12.6-5.8-12.6-12.6c0-6.8,6-12.7,12.7-12.4
		C356.8,299.4,362,304.9,361.9,311.8z"/>
	<path class="st30" d="M382.8,215.2c-0.1-4.8,2.1-8.6,5.1-12.1c0.7-0.8,1.6-1.5,2.3-2.3c2.8-3.3,6.8-3.7,10.7-4.4
		c5.7,0.6,10.5,5.5,10,9.6c-0.2,1.5-0.1,3,0,4.5c0.1,2.2-0.1,4.4-0.9,6.4c-2.8-0.3-5.7-0.5-8.4-1.1c-1.9-0.4-3.8-0.5-5.7-0.5
		C391.5,215.3,387.1,215.3,382.8,215.2z"/>
	<path class="st27" d="M324.1,178.1c0.3-0.2,0.6-0.5,0.9-0.7C324.8,177.6,324.4,177.8,324.1,178.1z"/>
	<path class="st27" d="M325,177.4c0.3-0.3,0.6-0.6,0.9-0.9C325.9,177.2,325.5,177.4,325,177.4z"/>
	<path class="st27" d="M319.9,137.1c0.2,3.7,0.3,7.4-0.7,11c-1.3,4.5-3.3,8.7-6.9,12c-4.2,3.9-9.1,4.9-14.5,3.7
		c-6-1.4-11-4.7-15.6-8.8c-6.6-6-11.5-13.3-15.3-21.2c-2.4-4.9-4.2-10.1-5.6-15.4c-1.6-6-2.4-12.1-2.3-18.3c0.1-6.2,1.5-12,4.8-17.2
		c3.1-4.9,7.5-7.4,13.3-7.7c4.4-0.2,8.3,1.2,12.1,3.4c4.6,2.6,8.6,5.9,12.1,9.8c3.7,4.2,6.9,8.8,9.6,13.8c4.5,8.4,7.4,17.4,9,26.8
		C320.3,131.5,319.9,134.3,319.9,137.1z M268.8,107.6c0.1,2.2,0.1,4.4,0.5,6.6c0.5,3.5,1.6,6.9,2.8,10.3c2.9,7.7,7.1,14.5,13.2,20.1
		c2.7,2.4,5.7,4.3,9.3,5.2c3.1,0.7,6.3,1.1,9.1-1c2.9-2.2,5.4-4.8,6.2-8.5c0.6-2.7,1.2-5.3,1.2-8.1c0-4-0.8-7.9-1.7-11.7
		c-1.3-5.8-4-11.1-7-16.2c-2.5-4.3-6.2-7.7-9.9-10.9c-2.1-1.8-4.4-3.3-7.2-3.8c-6-1.2-9.7,0-12.5,3.8c-1,1.4-1.7,3.1-2.5,4.7
		C268.8,101,268.7,104.3,268.8,107.6z"/>
	<path class="st0" d="M265.2,155.9c-0.6,0-1.1-0.1-1.2-0.8C264.4,155.3,264.8,155.6,265.2,155.9z"/>
	<path class="st29" d="M423.9,349c0-5.3,0-10.7,0-16c0-4.1,1.7-7.5,4.5-10.3c1.2-1.2,2.9-2.1,4.4-2.9c1.8-0.9,3.7-0.2,4.5,1.6
		c0.7,1.6,1.2,3.4,1.3,5.1c0.1,9.6,0.1,19.2,0,28.8c0,4.2-1.2,8.1-3.8,11.5c-1.3,1.7-2.9,2.9-4.8,3.7c-2.8,1.3-5.3-0.1-5.9-3.1
		c-0.2-1.2-0.2-2.5-0.2-3.7C423.9,358.9,423.9,354,423.9,349C423.9,349,423.9,349,423.9,349z"/>
	<path class="st29" d="M403.5,361.3c0,5.4,0.1,10.7,0,16.1c-0.1,5.5-2.6,9.7-7.1,12.7c-0.6,0.4-1.2,0.7-1.9,0.8
		c-2.4,0.5-4.1-0.3-4.8-2.7c-0.3-1-0.5-2.2-0.5-3.2c0-10.3-0.1-20.6,0-30.9c0-4.4,1.7-8.3,4.7-11.5c1.4-1.5,3.3-2.5,5.4-2.7
		c1.5-0.2,2.6,0.5,3.4,1.8c0.7,1.3,0.8,2.6,0.8,4C403.5,350.9,403.5,356.1,403.5,361.3C403.5,361.3,403.5,361.3,403.5,361.3z"/>
	<path class="st25" d="M268.8,107.6c0-3.3,0-6.6,1.5-9.7c0.7-1.6,1.4-3.3,2.5-4.7c2.8-3.8,6.5-5,12.5-3.8c2.8,0.6,5.1,2,7.2,3.8
		c3.7,3.2,7.4,6.7,9.9,10.9c3,5.1,5.7,10.3,7,16.2c0.9,3.9,1.7,7.7,1.7,11.7c0,2.8-0.7,5.4-1.2,8.1c-0.8,3.7-3.3,6.3-6.2,8.5
		c-2.8,2.1-6,1.7-9.1,1c-3.5-0.9-6.6-2.7-9.3-5.2c-6.1-5.6-10.3-12.4-13.2-20.1c-1.3-3.3-2.3-6.8-2.8-10.3
		C268.9,112,268.9,109.8,268.8,107.6z"/>
</g>
</svg>
