<?xml version="1.0" encoding="utf-8"?>
<!-- Generator: Adobe Illustrator 23.0.1, SVG Export Plug-In . SVG Version: 6.00 Build 0)  -->
<svg version="1.1" id="Layer_1" xmlns="http://www.w3.org/2000/svg" xmlns:xlink="http://www.w3.org/1999/xlink" x="0px" y="0px"
	 viewBox="0 0 595.3 508.7" style="enable-background:new 0 0 595.3 508.7;" xml:space="preserve">
<style type="text/css">
	.st0{fill:#BDE3F3;}
	.st1{fill:#8CBD45;}
	.st2{fill:#3B4193;}
	.st3{fill:#F0F9FE;}
	.st4{fill:#FFE678;}
	.st5{fill:#BDD143;}
	.st6{fill:#F2BA7C;}
	.st7{fill:#E88837;}
	.st8{fill:#C5DFF6;}
	.st9{fill:#FAB82B;}
	.st10{fill:#FAB72D;}
	.st11{fill:#BDD144;}
	.st12{fill:#E94C4B;}
	.st13{fill:#D1E6F8;}
	.st14{fill:#FFDE56;}
	.st15{fill:#E9524B;}
	.st16{fill:#EEF7F8;}
</style>
<path class="st4" d="M187.2,307.7c-0.7-1.5-1.5-3-2.2-4.4c0.1-1.9-1-3.3-1.7-4.9c-3.6-7.5-7.3-14.9-10.7-22.5
	c-2.4-5.4-4.5-10.9-6.3-16.5c-2.2-7.1-4.3-14.3-5.8-21.7c-1.9-8.9-3.1-17.8-3.5-26.9c-0.2-5.3-0.6-10.4,0.1-15.7
	c0.5-3.8,0.3-7.6,1-11.4c1.9-11,5.2-21.3,11.3-30.7c2.5-3.9,5.2-7.7,8.8-10.7c3.1-2.5,6.2-5.1,9.7-6.9c3.5-1.9,7.1-3.6,10.6-5.4
	c0.7,1,1.5,0.9,2.5,0.7c4.3-0.9,8.7-1.8,13.2-1.6c3.5,0.1,6.9,0.3,10.4,0.8c5.1,0.8,10,1.8,14.8,3.5c10.6,3.7,20.6,8.6,29.8,15.1
	c4.4,3.1,8.6,6.5,12.9,9.9c4.4,3.4,8.7,7,12.7,10.9c4,3.9,7.7,8.1,11.4,12.2c4,4.4,7.6,9,11.2,13.7c0.9,1.2,2.2,2.4,2.1,4.2
	c-0.3,0.4-0.5,0.8-0.9,1.1c-5.1,4.8-6.1,11.1-5.6,17.5c0.6,7.3,2.8,14.3,6.5,20.8c4.4,7.8,9.9,14.5,17.4,19.3
	c4,2.6,8.2,4.8,12.3,7.3c3,1.8,6,3.6,8.9,5.4c-0.4,0.7-1.2,1.4-1.1,2c0.3,2.2,0.9,4.3,1.4,6.5c1.3,5.6,2.6,11.1,3.9,16.7
	c0.1,0.6,0.2,1.3,0.2,1.9c-0.1,4.3,1.5,8.5,1.1,12.8c-0.1,0.4,0.2,0.9,0.3,1.4c0.2,1.6,0.5,3.1,0.6,4.7c0.1,3.5,0.1,7,0,10.5
	c0,1.3-0.2,2.5-0.3,3.8c-0.2,1.7-0.5,3.5-0.6,5.2c-0.1,0.9,0,1.9-0.2,2.9c-1,4.2-1.5,8.4-2.6,12.5c-3,10.8-7.3,20.7-15.6,28.6
	c-0.9,0.9-1.8,1.8-1.8,3.2c-4.4,3.1-8.9,6.1-13.9,8.4c-5,2.2-10.2,3.9-15.6,4c-6.5,0.2-13,0.4-19.6-0.6c-5.3-0.8-10.2-2.5-15.2-4.1
	c-5.5-1.7-10.6-4.3-15.6-7.2c-2.9-1.7-5.8-3.3-8.7-5c-4.1-2.4-8-5.2-11.8-8.1c-5.3-4.1-10.3-8.5-15.2-13.1
	c-5.1-4.8-10-9.8-14.5-15.3c-4.6-5.5-9.2-11-13.3-16.9c-3.7-5.4-7.6-10.6-10.6-16.4C189,308.2,188.2,307.7,187.2,307.7z"/>
<path class="st6" d="M198.4,130c-3.5,1.8-7.1,3.6-10.6,5.4c-3.5,1.9-6.6,4.4-9.7,6.9c-3.6,3-6.3,6.8-8.8,10.7
	c-6.1,9.4-9.4,19.7-11.3,30.7c-0.7,3.8-0.5,7.6-1,11.4c-0.7,5.3-0.3,10.4-0.1,15.7c0.4,9.1,1.6,18,3.5,26.9
	c1.6,7.3,3.6,14.5,5.8,21.7c1.7,5.6,3.9,11.2,6.3,16.5c3.4,7.6,7.1,15,10.7,22.5c0.8,1.6,1.8,3,1.7,4.9c-1.9-0.3-2.8-2-4.2-3.1
	c-12.3-9.8-24.5-19.6-36.7-29.4c-1.1-0.9-2.1-1.9-3.4-3c5-14,10-28,15.1-42c-11.4-18.6-23.3-36.8-34.6-55.2c1-2,2.8-2.5,4.3-3.4
	c8.3-4.9,16.6-9.6,24.9-14.5c1.4-0.8,2.7-1.6,4.1-2.5c-0.2-1.5-0.3-2.8-0.6-4c-1.9-7.6-3.8-15.2-5.7-22.8
	c-1.9-7.7-3.9-15.5-5.8-23.2c-0.4-1.5-0.4-3.1-0.5-4.7c4.7,1.6,9.4,3.1,14,4.7c9.8,3.4,19.6,6.9,29.4,10.3c0.7,0.2,1.4,0,2.1,0
	c0.9-3.5,1.9-6.7,2.3-10c0.8-5.7,1.8-11.3,3-16.9c0.6-2.8,1.2-5.6,1.8-8.3c0.2-3.7,0.4-7.4,2.2-10.8c0.9,0.6,1.9,1.1,2.7,1.9
	c8.4,8.3,16.6,16.8,25.5,24.6c4.8,4.2,9.1,9,13.6,13.5c2.1,2,2.4,2.1,4.9,0.4c7.1-5.1,14.1-10.3,21.2-15.5c1.7-1.2,3.2-2.6,4.9-3.8
	c1.2-0.9,2.5-0.6,3.3,0.6c0.3,0.4,0.5,0.8,0.7,1.2c3.3,6.2,6.5,12.4,9.8,18.6c1.4,2.7,2.8,5.3,4.2,8c2.6,4.9,5.2,9.8,7.9,14.7
	c1.9,3.7,3.8,7.3,5.8,11c0.9,1.6,2.1,2.6,4.1,2.9c2.2,0.3,4.3,1,6.5,1.4c5.8,1.1,11.5,2.2,17.3,3.3c4.7,0.9,9.3,2.1,14,2.6
	c3.4,0.3,4.2,2.4,4.8,4.9c0.2,0.9,0.2,1.9,0.3,2.8c0.1,1.1,0.1,2.2,0.2,3.3c0.9,5.5,1.8,10.9,2.6,16.4c0.4,2.5,1.4,4.9,1,7.5
	c-5-0.4-9.4,1.2-13.5,3.8c-1.6,1-3.3,2-4.9,2.9c-0.8,0.4-1.7,0.7-2.6,1.1c-4.3-7.7-10.4-14.1-16.3-20.6c-7.7-8.5-16-16.5-25.2-23.5
	c-7.1-5.4-14.5-10.4-22.5-14.5c-7.8-4-16-7.3-24.5-9.3c-5.6-1.3-11.2-2.5-17-2.4c-2.7,0-5.4,0.7-8,0.8c-5.6,0.4-10.5,2.5-15.5,4.6
	C200.7,128.3,199.6,129.2,198.4,130z"/>
<path class="st7" d="M352,184.9c0.4-2.6-0.6-5-1-7.5c-0.8-5.5-1.8-10.9-2.6-16.4c-0.2-1.1-0.1-2.2-0.2-3.3c-0.1-1,0-1.9-0.3-2.8
	c-0.7-2.5-1.5-4.6-4.8-4.9c-4.7-0.5-9.3-1.7-14-2.6c-5.8-1.1-11.5-2.2-17.3-3.3c-2.2-0.4-4.3-1.1-6.5-1.4c-2-0.3-3.2-1.3-4.1-2.9
	c-1.9-3.7-3.8-7.3-5.8-11c-2.6-4.9-5.2-9.8-7.9-14.7c-1.4-2.7-2.8-5.3-4.2-8c-3.3-6.2-6.5-12.4-9.8-18.6c-0.2-0.4-0.4-0.9-0.7-1.2
	c-0.8-1.2-2.2-1.5-3.3-0.6c-1.7,1.2-3.3,2.6-4.9,3.8c-7,5.2-14.1,10.4-21.2,15.5c-2.4,1.7-2.8,1.7-4.9-0.4
	c-4.6-4.5-8.8-9.3-13.6-13.5c-8.9-7.8-17-16.3-25.5-24.6c-0.8-0.8-1.8-1.3-2.7-1.9c0.8-1.9,2.7-2.6,4.3-3.6
	c6.7-4,13.5-7.9,20.3-11.8c3.7-2.2,7.5-4.4,11.2-6.5c1.2-0.7,2.5-1.3,4-2.1c3.7,3.2,7,6.7,10.4,10c3.5,3.3,6.9,6.7,10.3,10
	c3.3,3.2,6.7,6.4,10,9.7c3.4,3.3,6.9,6.6,10.5,10.1C289,73.7,300.1,67.3,311,61c1.8,0.4,2.1,2.1,2.7,3.3
	c6.7,12.6,13.3,25.2,19.9,37.7c2.4,4.5,4.9,9,7.1,13.6c1.2,2.4,2.7,3.6,5.4,4c11.8,2,23.6,4.3,35.4,6.5c1.7,0.3,3.4,0.7,5.3,1.1
	c0.5,2.8,1.1,5.5,1.5,8.1c2.1,13.6,4.1,27.2,6.2,40.8c0,0.3,0.2,0.6,0.3,0.9c-3.5,2.7-7.5,4.7-11.3,6.8c-2.2-1.4-4-2.7-5.9-3.7
	c-3.6-1.9-7.3-2.1-10.9,0.1c-2.5,1.5-5,2.8-7.4,4.3C356.7,186.1,354.4,186.4,352,184.9z"/>
<path class="st6" d="M187.2,307.7c1.1,0,1.8,0.5,2.3,1.4c3.1,5.8,6.9,11.1,10.6,16.4c4.1,5.9,8.7,11.3,13.3,16.9
	c4.5,5.4,9.4,10.4,14.5,15.3c4.8,4.6,9.9,9,15.2,13.1c3.8,2.9,7.6,5.8,11.8,8.1c2.9,1.7,5.8,3.3,8.7,5c5,2.9,10.1,5.5,15.6,7.2
	c5,1.6,9.9,3.2,15.2,4.1c6.5,1.1,13.1,0.9,19.6,0.6c5.4-0.2,10.6-1.8,15.6-4c5-2.2,9.4-5.3,13.9-8.4c0.3,0,0.7,0,0.9-0.2
	c6.3-3.3,11.5-8.1,15.8-13.6c5.7-7.3,9.6-15.7,11.8-24.8c1.9-7.6,3.5-15.2,3.1-23.1c-0.1-1.2,0.3-2.5,0.5-3.8
	c0.1-1.3,0.6-2.6,0.2-3.7c-0.8-2.5-0.7-5-0.7-7.6c0-5.1-0.9-10.1-1.6-15.1c-0.6-4.2-1.7-8.4-1.3-12.8c5.2,3,10.4,6,15.5,9
	c-0.2,1.2,0.3,2.1,0.9,3.1c2.5,3.7,4.9,7.5,7.2,11.2c7.6,12,15.1,24,22.7,35.9c1,1.6,1.9,3.3,2.4,5.2c-1.8,1.5-3.9,2.4-5.9,3.3
	c-8.8,3.7-17.6,7.4-26.4,11.1c-1.7,0.7-2.1,1.5-1.6,3.4c1.7,6.6,3.3,13.2,5.1,19.8c1.3,5.1,2.9,10.1,4,15.2c1.2,6.1,2.7,12.1,4.5,18
	c0.4,1.2,0.4,2.5,0.5,3.8c-1.1-0.2-2.2-0.4-3.2-0.7c-3-0.9-6.1-2-9.1-3c-2.4-1-4.7-2-7.1-2.9c-6.3-2.3-12.5-4.5-18.9-6.6
	c-2.3-0.8-4.6-2.2-7.6-1.8c-0.6,3.1-1.2,6.2-1.8,9.3c-0.8,4-1.6,8.1-2.4,12.1c-0.9,4.5-1.8,9-2.7,13.5c-0.6,3.1-1.2,6.2-1.7,9.3
	c-0.1,0.5,0.5,1.1,0.7,1.6c-0.6,0.2-1.3,0.7-1.6,0.5c-0.9-0.6-1.7-1.4-2.5-2.2c-11.5-11.1-22.9-22.3-34.4-33.4
	c-1.2-1.2-2.5-2.4-4-3.7c-11.5,6.3-22.4,13.1-33.9,19.4c-0.7-1.2-1.4-2.1-1.9-3c-7.3-13.9-14.6-27.7-21.9-41.6
	c-1.9-3.7-3.9-7.3-5.8-11c-0.9-1.7-2-2.7-4-3c-10.4-1.8-20.7-3.8-31.1-5.7c-3.4-0.6-6.8-1.4-10.4-2.1c-0.3-1.2-0.7-2.2-0.9-3.3
	c-1.6-10.1-3.1-20.2-4.6-30.3C189.2,322.2,188.2,315,187.2,307.7z"/>
<path class="st7" d="M401,417.9c-0.2-1.3-0.2-2.6-0.5-3.8c-1.7-6-3.2-12-4.5-18c-1-5.1-2.7-10.1-4-15.2c-1.7-6.6-3.4-13.2-5.1-19.8
	c-0.5-1.9-0.1-2.7,1.6-3.4c8.8-3.7,17.6-7.3,26.4-11.1c2-0.9,4.1-1.7,5.9-3.3c-0.5-1.9-1.4-3.6-2.4-5.2c-7.5-12-15.1-24-22.7-35.9
	c-2.4-3.8-4.8-7.5-7.2-11.2c-0.7-1-1.1-1.9-0.9-3.1c1,0.5,2.1,0.9,3,1.4c10.5,6,20.9,12.1,31.4,18.1c2.8,1.6,5.5,3.1,8.4,4.4
	c4.5,2,9.2,2.5,13.8,0.3c2-1,3.7-2.4,5.6-3.6c1.5-0.2,2.8-1.8,4.4-0.6c1.3,2.2,2.6,4.4,3.9,6.6c1.1,1.8,2.1,3.5,3.3,5.4
	c-3.5,3-7.5,4.6-11.1,6.9c-3.7,2.3-7.4,4.4-11.1,6.5c-3.7,2.2-7.4,4.3-11.3,6.6c0.1,1.1,0.1,2,0.3,2.9c4.1,16.4,8.2,32.8,12.3,49.2
	c0.2,0.9,0.4,1.8,0.6,2.9c-0.7,0.5-1.3,1.1-2,1.5c-11.9,6.9-23.7,13.8-35.6,20.7C402.8,417.5,401.8,417.6,401,417.9z"/>
<path class="st8" d="M454.3,308c-1.7-1.2-3,0.4-4.4,0.6c0.1-0.6-0.1-1.4,0.2-1.9c2-4,1.8-8.4,1.7-12.7c0-5-1.1-9.7-2.9-14.4
	c-1.3-3.4-2.9-6.7-4.9-9.8c-4.6-7.2-10.1-13.5-17.7-17.7c-1.3-0.7-2.5-1.4-3-3c0.8-3.1,1.2-6.2,0-9.3c-0.2-0.4-0.2-0.9-0.2-1.4
	c-0.8-8.5-4.1-16.3-8.2-23.7c-3.1-5.5-7.1-10.5-11.7-15c-5.4-5.2-11.6-9.1-18.8-10.8c-5.9-1.4-11.4,0.1-15.7,4.7
	c-1,1-1.4,2.5-2.3,3.6c-0.5,0.7-1.3,1.2-2,1.9c-0.9-0.8-1.6-1.5-2.4-2.1c-2.5-1.7-5-3.5-7.6-4.9c-2.5-1.3-5.4-1.5-7.8-0.1
	c-2.5,1.4-4.5,3.6-5,6.7c-0.2,0.9-0.3,1.8-0.4,2.9c-0.8,0-1.5,0.1-2-0.1c-3.4-1.8-6.7-3.5-10.7-3.6c-1,0-2.1-0.8-3.1-1.2
	c1.9-1.4,3.8-2.8,5.7-4.1c0.9-0.3,1.8-0.6,2.6-1.1c1.7-0.9,3.3-1.8,4.9-2.9c4.1-2.7,8.5-4.2,13.5-3.8c2.5,1.6,4.8,1.2,7.1-0.3
	c2.4-1.5,5-2.9,7.4-4.3c3.6-2.2,7.3-2,10.9-0.1c2,1,3.8,2.4,5.9,3.7c3.8-2.1,7.8-4,11.3-6.8c1.9-0.3,3.7-0.8,5.6-1
	c6.1-0.8,11.3,1.5,16.2,4.6c5.5,3.4,10,7.7,14,12.8c4.8,6.1,8.5,12.7,11.3,19.8c2.4,5.8,3.4,11.9,3.2,18.2c-0.2,5.8-0.1,5.8,4.6,8.8
	c7.9,5,13.5,12,17.9,20.1c2.7,5,4.9,10.1,5.8,15.6c1,5.8,1.3,11.7-1.5,17.3c-1.2,2.3-2.6,4.3-4.9,5.7c-3.4,2-6.8,4.1-10.3,6.1
	C455.5,305.8,454.6,306.6,454.3,308z"/>
<path class="st7" d="M194.5,75.1c-0.6,2.8-1.2,5.6-1.8,8.3c-1.2,5.6-2.2,11.2-3,16.9c-0.5,3.3-1.5,6.5-2.3,10c-0.7,0-1.5,0.2-2.1,0
	c-9.8-3.4-19.6-6.9-29.4-10.3c-4.7-1.6-9.3-3.1-14-4.7c0.4-1.7,2-1.9,3.2-2.6c8.8-5.2,17.7-10.3,26.5-15.4c2.5-1.4,5-2.8,7.5-4.3
	c1.5-0.9,3-1,4.6-0.5c2.4,0.8,4.8,1.7,7.2,2.5C192,75.5,193.3,75.9,194.5,75.1z"/>
<path class="st7" d="M347.3,448.8c-0.3-0.5-0.8-1.1-0.7-1.6c0.5-3.1,1.1-6.2,1.7-9.3c0.9-4.5,1.8-9,2.7-13.5c0.8-4,1.6-8.1,2.4-12.1
	c0.6-3.1,1.2-6.2,1.8-9.3c3-0.4,5.2,1,7.6,1.8c6.3,2,12.6,4.3,18.9,6.6c2.4,0.9,4.7,1.9,7.1,2.9c-0.9,4-1.7,8.1-2.6,12.4
	c-2.7,1.6-5.6,3.3-8.5,5c-8.8,5.1-17.6,10.3-26.4,15.4C349.9,447.7,348.6,448.2,347.3,448.8z"/>
<path class="st13" d="M325.3,196.7c1,0.4,2,1.2,3.1,1.2c4,0.1,7.3,1.8,10.7,3.6c0.5,0.3,1.2,0.1,2,0.1c0.2-1.1,0.3-2,0.4-2.9
	c0.5-3.1,2.5-5.3,5-6.7c2.4-1.3,5.4-1.2,7.8,0.1c2.7,1.4,5.1,3.2,7.6,4.9c0.8,0.5,1.4,1.2,2.4,2.1c0.7-0.7,1.5-1.2,2-1.9
	c0.8-1.1,1.3-2.6,2.3-3.6c4.3-4.5,9.7-6.1,15.7-4.7c7.3,1.7,13.4,5.6,18.8,10.8c4.7,4.5,8.6,9.5,11.7,15c4.2,7.3,7.4,15.1,8.2,23.7
	c0,0.5,0.1,1,0.2,1.4c1.2,3.1,0.8,6.3,0,9.3c0.6,1.5,1.7,2.3,3,3c7.6,4.1,13.1,10.4,17.7,17.7c2,3.1,3.5,6.4,4.9,9.8
	c1.8,4.6,2.9,9.4,2.9,14.4c0,4.3,0.3,8.6-1.7,12.7c-0.3,0.5-0.1,1.3-0.2,1.9c-1.8,1.2-3.6,2.6-5.6,3.6c-4.6,2.2-9.3,1.8-13.8-0.3
	c-2.9-1.3-5.7-2.9-8.4-4.4c-10.5-6-20.9-12.1-31.4-18.1c-1-0.6-2-0.9-3-1.4c-5.2-3-10.4-6-15.5-9c-4.7-2.7-9.4-5.4-14.1-8.1
	c-3-1.8-5.9-3.7-8.9-5.4c-4.1-2.4-8.3-4.7-12.3-7.3c-7.5-4.9-13-11.6-17.4-19.3c-3.6-6.5-5.9-13.5-6.5-20.8
	c-0.5-6.4,0.5-12.7,5.6-17.5c0.3-0.3,0.6-0.7,0.9-1.1C321.4,198.4,323.3,197.6,325.3,196.7z"/>
<path class="st14" d="M325.3,196.7c-2,0.8-3.9,1.7-5.9,2.5c0.1-1.8-1.2-3-2.1-4.2c-3.6-4.7-7.2-9.3-11.2-13.7
	c-3.8-4.1-7.4-8.3-11.4-12.2c-4-3.9-8.3-7.5-12.7-10.9c-4.3-3.3-8.5-6.7-12.9-9.9c-9.2-6.5-19.2-11.4-29.8-15.1
	c-4.8-1.7-9.8-2.7-14.8-3.5c-3.5-0.5-6.9-0.7-10.4-0.8c-4.5-0.2-8.9,0.7-13.2,1.6c-1,0.2-1.9,0.3-2.5-0.7c1.2-0.8,2.3-1.7,3.6-2.2
	c5-2.1,9.9-4.2,15.5-4.6c2.7-0.2,5.3-0.8,8-0.8c5.8-0.1,11.4,1.1,17,2.4c8.6,2,16.7,5.3,24.5,9.3c8,4.1,15.3,9.1,22.5,14.5
	c9.2,7,17.5,14.9,25.2,23.5c5.9,6.5,12,12.8,16.3,20.6C329,194,327.2,195.4,325.3,196.7z"/>
<path class="st14" d="M358.1,270.8c4.7,2.7,9.4,5.4,14.1,8.1c-0.4,4.3,0.7,8.5,1.3,12.8c0.7,5,1.6,10,1.6,15.1
	c0,2.5-0.1,5.1,0.7,7.6c0.4,1.1-0.1,2.5-0.2,3.7c-0.1,1.3-0.5,2.5-0.5,3.8c0.4,7.9-1.3,15.5-3.1,23.1c-2.2,9-6.1,17.5-11.8,24.8
	c-4.3,5.5-9.5,10.3-15.8,13.6c-0.3,0.1-0.6,0.1-0.9,0.2c-0.1-1.4,0.9-2.3,1.8-3.2c8.2-7.9,12.6-17.8,15.6-28.6
	c1.2-4.1,1.6-8.4,2.6-12.5c0.2-0.9,0.1-1.9,0.2-2.9c0.2-1.7,0.4-3.5,0.6-5.2c0.1-1.3,0.3-2.5,0.3-3.8c0-3.5,0.1-7,0-10.5
	c0-1.6-0.4-3.1-0.6-4.7c-0.1-0.5-0.3-0.9-0.3-1.4c0.5-4.3-1.1-8.5-1.1-12.8c0-0.6,0-1.3-0.2-1.9c-1.3-5.6-2.6-11.1-3.9-16.7
	c-0.5-2.2-1.1-4.3-1.4-6.5C356.9,272.2,357.7,271.5,358.1,270.8z"/>
</svg>
