<?xml version="1.0" encoding="utf-8"?>
<!-- Generator: Adobe Illustrator 23.0.1, SVG Export Plug-In . SVG Version: 6.00 Build 0)  -->
<svg version="1.1" id="Layer_1" xmlns="http://www.w3.org/2000/svg" xmlns:xlink="http://www.w3.org/1999/xlink" x="0px" y="0px"
	 viewBox="0 0 595.3 508.7" style="enable-background:new 0 0 595.3 508.7;" xml:space="preserve">
<style type="text/css">
	.st0{fill:#F4E4DF;}
	.st1{fill:#FBF0F1;}
	.st2{fill:#F7B39C;}
	.st3{fill:#BB5C39;}
	.st4{fill:#E6D5D1;}
</style>
<g>
	<path class="st0" d="M442.5,74.6c0,1.1,0.9,1.4,1.5,2c15.4,14.4,28.6,30.3,35,50.8c5.6,18,4.2,35.6-3.7,52.7
		c-4.3,9.4-9.7,18-17.4,25c-7.4,6.8-15.6,12.3-25.1,15.7c1.8-3.9,5.2-6.5,7.8-9.8c11.6-14.6,19.8-30.9,23.3-49.4
		c1.8-9.7,2.5-19.3,0.6-29.2c-2.2-11.3-6.1-21.8-12.3-31.4c-3.7-5.7-7.1-11.7-12.7-15.9c-0.7-3.5-2.4-6.9-0.8-10.5
		C440,74.6,441.3,74.6,442.5,74.6z"/>
	<path class="st1" d="M334.6,281.1c1-7.1,1.6-14.1,1.4-21.3c0.1-7.4-1-15,3.4-21.7c2.4-3.6,5-7.1,7.5-10.6
		c5.8-8.1,12.2-15.6,17.6-23.9c0,0,0,0,0,0c0.3-0.2,0.5-0.5,0.8-0.7c3.7-5.5,2.9-9.7-2.6-13.7c-7.2-5.3-14.4-10.7-21.5-16.1
		c-5.1-3.9-5.6-8.7-1.6-13.9c7.7-10.2,15.4-20.5,23.1-30.7c3.2-4.2,6-3.8,8,1.4c2.8,7,6.6,13.4,12,18.8
		c11.2,11.3,25.3,10.7,37.3,2.1c10.6-7.5,14.9-18.9,18.1-30.9c1.2-4.5,0.8-9.4,3-13.7c1.8,0.8,2.1,2.7,3,4.2
		c7.5,12.7,11.1,26.5,9.6,41.1c-1.5,15.2-6.6,29.3-14.8,42.3c-4.3,6.9-9.4,13.1-15.8,18.2c-0.4,0.1-0.8,0-1.1,0.2
		c-11.3,8.5-24.2,13.3-37.8,16c-6,1.2-10.6,3.8-14.1,8.7c-3.2,4.6-6.5,9.1-10,13.5c-2.2,2.7-4,5.5-4.4,8.9c-0.9,8.5-1.6,17-2.4,25.6
		C346.9,284.2,340.9,282.1,334.6,281.1z"/>
	<path class="st2" d="M138.8,374.6c-1-0.8-1-2-1.1-3.1c-0.4-11.2-1.1-22.4,0.1-33.6c0.6-5,2.6-9.6,5.3-13.9
		c22.5-35.3,52.6-62.1,90-80.8c22.1-11,45.5-18.4,69.8-22.9c1-0.2,2-0.1,3-0.1c0.1,0.9,0.1,1.7,0.3,2.6c2.8,12.8,5.7,25.6,8.5,38.4
		c-0.9,0.2-1.9,0.5-2.8,0.7c-0.3-1.6-1.6-1.2-2.7-1.3c-13.1-0.9-25.8,1.4-38.1,5.5c-14.6,4.9-28.2,11.8-41.1,20.1
		c-13.5,8.7-26,18.7-37.9,29.5c-6.9,6.3-13.4,12.9-19.8,19.8c-9.8,10.5-19,21.3-27.7,32.7C142.8,370.4,141.7,373.3,138.8,374.6z"/>
	<path class="st2" d="M334.6,281.1c6.2,1,12.2,3.1,18.6,3.7c0,0.2,0.1,0.4,0.1,0.5c-1.6,3.3-1.6,6.9-2.2,10.4
		c-3.7,22.6-10.6,44.2-20.5,64.8c-9,18.9-20.8,36-34.8,51.4c-12.4,13.7-26.3,25.8-41.3,36.5c-5.9,4.2-12.1,7.7-19,10
		c-3.6-0.1-7.3,0.1-10.8-0.3c-5.9-0.7-9.6-4.3-11-10.2c-1.3-5.5,0.2-10.1,4.9-13.5c20.2-14.6,39.1-30.7,56.3-48.7
		c19.3-20.1,36.2-42,48-67.4C328.4,306.6,332.4,294.1,334.6,281.1z M264.1,422.6c-3.4,0-6.1,2.4-6.1,5.5c0,3,2.5,5.6,5.7,5.7
		c2.6,0.1,6.1-3.1,6.2-5.8C270.1,425.3,267.3,422.7,264.1,422.6z"/>
	<path class="st3" d="M235.6,458.5c6.8-2.4,13-5.8,19-10c15.1-10.7,29-22.8,41.3-36.5c14-15.4,25.8-32.5,34.8-51.4
		c9.8-20.6,16.8-42.2,20.5-64.8c0.6-3.5,0.6-7.1,2.2-10.4c7.7,1.3,15.3,2.7,22.7,5.2c-12.3,68-44.6,123.2-103.2,161.6
		c-6.6,4.4-13.8,6.7-21.9,6.4C245.8,458.5,240.7,458.5,235.6,458.5z"/>
	<path class="st3" d="M138.8,374.6c2.9-1.3,4-4.3,5.8-6.6c8.7-11.3,17.9-22.2,27.7-32.7c6.4-6.8,12.9-13.5,19.8-19.8
		c11.9-10.8,24.4-20.8,37.9-29.5c13-8.3,26.5-15.2,41.1-20.1c12.4-4.1,25-6.4,38.1-5.5c1.1,0.1,2.4-0.3,2.7,1.3
		c-21,3.9-40,12.5-57.8,24c-36.9,23.8-66.2,55.4-92,90.6c-5.1,6.9-12.9,8.3-19.6,3.4C140.7,378.6,139,377.1,138.8,374.6z"/>
	<path class="st4" d="M423,211.9c6.4-5.1,11.5-11.3,15.8-18.2c8.2-12.9,13.2-27.1,14.8-42.3c1.5-14.7-2-28.5-9.6-41.1
		c-0.9-1.4-1.2-3.4-3-4.2c-0.6-1.9-0.9-3.8-0.8-5.8c0.4-5.1-0.7-10.1-0.8-15.2c5.6,4.2,9,10.2,12.7,15.9
		c6.2,9.6,10.1,20.1,12.3,31.4c1.9,9.8,1.2,19.5-0.6,29.2c-3.5,18.5-11.7,34.8-23.3,49.4c-2.6,3.3-6.1,5.9-7.8,9.8
		c-7.7,4-16.1,5.8-24.5,7.5c-1.6,0.3-3.2,0.5-4.8,0.8c3.2-3.7,7.9-5.6,11.2-9C417.5,217.3,421.6,216,423,211.9z"/>
	<path class="st0" d="M423,211.9c-1.4,4.1-5.6,5.4-8.3,8.2c-3.4,3.4-8,5.4-11.2,9c-8.3,2.8-11.3,10.8-16.5,16.6
		c-1.2,1.4-2.2,3-3.4,4.5c-4.1,5-4.6,11.2-4.9,17.2c-0.3,7.8-1.7,15.5-2.8,23.2c-7.4-2.5-15-3.9-22.7-5.2c-0.1-0.2-0.1-0.3-0.1-0.5
		c0.8-8.5,1.5-17.1,2.4-25.6c0.4-3.4,2.2-6.2,4.4-8.9c3.5-4.4,6.8-8.9,10-13.5c3.5-5,8.1-7.6,14.1-8.7c13.7-2.7,26.6-7.5,37.8-16
		C422.2,211.9,422.6,212,423,211.9z"/>
	<path class="st4" d="M314.8,261.2c-2.8-12.8-5.7-25.6-8.5-38.4c-0.2-0.8-0.2-1.7-0.3-2.6c4.3-1.6,8.9-1.8,13.3-2.3
		c6.3-0.8,12.6-0.9,18.8-1.6c4.3-0.5,7.8-3.1,11.5-5c4.9-2.6,9.5-5.9,14.8-7.7c-5.4,8.3-11.8,15.9-17.6,23.9
		c-2.5,3.5-5.2,7-7.5,10.6c-4.4,6.7-3.3,14.3-3.4,21.7C328.9,259.6,321.8,260.2,314.8,261.2z"/>
	<path class="st4" d="M365.2,202.9c-0.3,0.2-0.5,0.5-0.8,0.7C364.7,203.4,365,203.2,365.2,202.9z"/>
	<path class="st3" d="M264.1,422.6c3.1,0,6,2.7,5.8,5.4c-0.1,2.7-3.6,5.9-6.2,5.8c-3.2-0.1-5.7-2.7-5.7-5.7
		C258.1,425,260.7,422.6,264.1,422.6z"/>
</g>
</svg>
